solid button
facet normal 0.0 0.0 -1.0
  outer loop
    vertex -5.409184627218782 1.4493866525741173 0.0
    vertex -5.4091846272187825 -1.4493866525741155 0.0
    vertex -5.6 3.429011037612589e-16 0.0
  endloop
endfacet
facet normal 0.0 0.0 -1.0
  outer loop
    vertex -5.4091846272187825 -1.4493866525741155 0.0
    vertex -5.409184627218782 1.4493866525741173 0.0
    vertex -4.849742261192856 -2.7999999999999985 0.0
  endloop
endfacet
facet normal 0.0 0.0 -1.0
  outer loop
    vertex -4.849742261192856 -2.7999999999999985 0.0
    vertex -5.409184627218782 1.4493866525741173 0.0
    vertex -5.346798536040571 1.5999999999999996 0.0
  endloop
endfacet
facet normal 0.0 0.0 -1.0
  outer loop
    vertex -4.849742261192856 -2.7999999999999985 0.0
    vertex -5.346798536040571 1.5999999999999996 0.0
    vertex -4.849742261192856 2.8000000000000007 0.0
  endloop
endfacet
facet normal 0.0 0.0 -1.0
  outer loop
    vertex -4.849742261192856 -2.7999999999999985 0.0
    vertex -4.849742261192856 2.8000000000000007 0.0
    vertex -3.9597979746446663 3.9597979746446663 0.0
  endloop
endfacet
facet normal 0.0 0.0 -1.0
  outer loop
    vertex -4.849742261192856 -2.7999999999999985 0.0
    vertex -3.9597979746446663 3.9597979746446663 0.0
    vertex -3.9597979746446663 -3.9597979746446654 0.0
  endloop
endfacet
facet normal 0.0 0.0 -1.0
  outer loop
    vertex -3.9597979746446663 -3.9597979746446654 0.0
    vertex -3.9597979746446663 3.9597979746446663 0.0
    vertex -2.7999999999999994 4.849742261192856 0.0
  endloop
endfacet
facet normal 0.0 0.0 -1.0
  outer loop
    vertex -3.9597979746446663 -3.9597979746446654 0.0
    vertex -2.7999999999999994 4.849742261192856 0.0
    vertex -3.2000000000000006 1.9594348786357655e-16 0.0
  endloop
endfacet
facet normal 0.0 0.0 -1.0
  outer loop
    vertex -3.2000000000000006 1.9594348786357655e-16 0.0
    vertex -2.7999999999999994 4.849742261192856 0.0
    vertex -3.090962644125019 0.8282209443280671 0.0
  endloop
endfacet
facet normal 0.0 0.0 -1.0
  outer loop
    vertex -3.090962644125019 0.8282209443280671 0.0
    vertex -2.7999999999999994 4.849742261192856 0.0
    vertex -2.854124004584823 1.3999999999999988 0.0
  endloop
endfacet
facet normal 0.0 0.0 -1.0
  outer loop
    vertex -2.854124004584823 1.3999999999999988 0.0
    vertex -2.7999999999999994 4.849742261192856 0.0
    vertex 2.8541240045848237 1.3999999999999988 0.0
  endloop
endfacet
facet normal 0.0 0.0 -1.0
  outer loop
    vertex 2.8541240045848237 1.3999999999999988 0.0
    vertex -2.7999999999999994 4.849742261192856 0.0
    vertex -1.4493866525741161 5.4091846272187825 0.0
  endloop
endfacet
facet normal 0.0 0.0 -1.0
  outer loop
    vertex 2.8541240045848237 1.3999999999999988 0.0
    vertex -1.4493866525741161 5.4091846272187825 0.0
    vertex 0.0 5.6 0.0
  endloop
endfacet
facet normal 0.0 0.0 -1.0
  outer loop
    vertex 2.8541240045848237 1.3999999999999988 0.0
    vertex 0.0 5.6 0.0
    vertex 1.4493866525741208 5.409184627218781 0.0
  endloop
endfacet
facet normal 0.0 0.0 -1.0
  outer loop
    vertex 2.8541240045848237 1.3999999999999988 0.0
    vertex 1.4493866525741208 5.409184627218781 0.0
    vertex 2.8000000000000025 4.849742261192855 0.0
  endloop
endfacet
facet normal 0.0 0.0 -1.0
  outer loop
    vertex 2.8541240045848237 1.3999999999999988 0.0
    vertex 2.8000000000000025 4.849742261192855 0.0
    vertex 3.959797974644667 3.959797974644665 0.0
  endloop
endfacet
facet normal 0.0 0.0 -1.0
  outer loop
    vertex 2.8541240045848237 1.3999999999999988 0.0
    vertex 3.959797974644667 3.959797974644665 0.0
    vertex 3.0909626441250193 0.828220944328065 0.0
  endloop
endfacet
facet normal 0.0 0.0 -1.0
  outer loop
    vertex 3.0909626441250193 0.828220944328065 0.0
    vertex 3.959797974644667 3.959797974644665 0.0
    vertex 3.2000000000000006 -5.878304635907295e-16 0.0
  endloop
endfacet
facet normal 0.0 0.0 -1.0
  outer loop
    vertex 3.2000000000000006 -5.878304635907295e-16 0.0
    vertex 3.959797974644667 3.959797974644665 0.0
    vertex 3.9597979746446637 -3.9597979746446677 0.0
  endloop
endfacet
facet normal 0.0 0.0 -1.0
  outer loop
    vertex 3.9597979746446637 -3.9597979746446677 0.0
    vertex 3.959797974644667 3.959797974644665 0.0
    vertex 4.849742261192855 -2.8000000000000025 0.0
  endloop
endfacet
facet normal 0.0 0.0 -1.0
  outer loop
    vertex 4.849742261192855 -2.8000000000000025 0.0
    vertex 3.959797974644667 3.959797974644665 0.0
    vertex 4.8497422611928585 2.799999999999996 0.0
  endloop
endfacet
facet normal 0.0 0.0 -1.0
  outer loop
    vertex 4.849742261192855 -2.8000000000000025 0.0
    vertex 4.8497422611928585 2.799999999999996 0.0
    vertex 5.409184627218781 -1.4493866525741204 0.0
  endloop
endfacet
facet normal 0.0 0.0 -1.0
  outer loop
    vertex 5.409184627218781 -1.4493866525741204 0.0
    vertex 4.8497422611928585 2.799999999999996 0.0
    vertex 5.34679853604057 1.5999999999999996 0.0
  endloop
endfacet
facet normal 0.0 0.0 -1.0
  outer loop
    vertex 5.409184627218781 -1.4493866525741204 0.0
    vertex 5.34679853604057 1.5999999999999996 0.0
    vertex 5.409184627218783 1.4493866525741135 0.0
  endloop
endfacet
facet normal 0.0 0.0 -1.0
  outer loop
    vertex 5.409184627218781 -1.4493866525741204 0.0
    vertex 5.409184627218783 1.4493866525741135 0.0
    vertex 5.6 -1.0287033112837766e-15 0.0
  endloop
endfacet
facet normal 0.0 0.0 -1.0
  outer loop
    vertex -3.2000000000000006 1.9594348786357655e-16 0.0
    vertex -2.8000000000000016 -4.849742261192856 0.0
    vertex -3.9597979746446663 -3.9597979746446654 0.0
  endloop
endfacet
facet normal 0.0 0.0 -1.0
  outer loop
    vertex -2.8000000000000016 -4.849742261192856 0.0
    vertex -3.2000000000000006 1.9594348786357655e-16 0.0
    vertex -3.090962644125019 -0.8282209443280661 0.0
  endloop
endfacet
facet normal 0.0 0.0 -1.0
  outer loop
    vertex -2.8000000000000016 -4.849742261192856 0.0
    vertex -3.090962644125019 -0.8282209443280661 0.0
    vertex -2.771281292110204 -1.5999999999999996 0.0
  endloop
endfacet
facet normal 0.0 0.0 -1.0
  outer loop
    vertex -2.8000000000000016 -4.849742261192856 0.0
    vertex -2.771281292110204 -1.5999999999999996 0.0
    vertex -1.4493866525741175 -5.409184627218782 0.0
  endloop
endfacet
facet normal 0.0 0.0 -1.0
  outer loop
    vertex -1.4493866525741175 -5.409184627218782 0.0
    vertex -2.771281292110204 -1.5999999999999996 0.0
    vertex -2.2627416997969525 -2.2627416997969525 0.0
  endloop
endfacet
facet normal 0.0 0.0 -1.0
  outer loop
    vertex -1.4493866525741175 -5.409184627218782 0.0
    vertex -2.2627416997969525 -2.2627416997969525 0.0
    vertex -1.6000000000000012 -2.7712812921102032 0.0
  endloop
endfacet
facet normal 0.0 0.0 -1.0
  outer loop
    vertex -1.4493866525741175 -5.409184627218782 0.0
    vertex -1.6000000000000012 -2.7712812921102032 0.0
    vertex -0.8282209443280674 -3.090962644125019 0.0
  endloop
endfacet
facet normal 0.0 0.0 -1.0
  outer loop
    vertex -1.4493866525741175 -5.409184627218782 0.0
    vertex -0.8282209443280674 -3.090962644125019 0.0
    vertex -6.858022075225178e-16 -5.6 0.0
  endloop
endfacet
facet normal 0.0 0.0 -1.0
  outer loop
    vertex -6.858022075225178e-16 -5.6 0.0
    vertex -0.8282209443280674 -3.090962644125019 0.0
    vertex -3.918869757271531e-16 -3.2000000000000006 0.0
  endloop
endfacet
facet normal 0.0 0.0 -1.0
  outer loop
    vertex -6.858022075225178e-16 -5.6 0.0
    vertex -3.918869757271531e-16 -3.2000000000000006 0.0
    vertex 1.449386652574114 -5.409184627218783 0.0
  endloop
endfacet
facet normal 0.0 0.0 -1.0
  outer loop
    vertex 1.449386652574114 -5.409184627218783 0.0
    vertex -3.918869757271531e-16 -3.2000000000000006 0.0
    vertex 0.8282209443280653 -3.0909626441250193 0.0
  endloop
endfacet
facet normal 0.0 0.0 -1.0
  outer loop
    vertex 1.449386652574114 -5.409184627218783 0.0
    vertex 0.8282209443280653 -3.0909626441250193 0.0
    vertex 1.5999999999999992 -2.7712812921102046 0.0
  endloop
endfacet
facet normal 0.0 0.0 -1.0
  outer loop
    vertex 1.449386652574114 -5.409184627218783 0.0
    vertex 1.5999999999999992 -2.7712812921102046 0.0
    vertex 2.7999999999999985 -4.849742261192857 0.0
  endloop
endfacet
facet normal 0.0 0.0 -1.0
  outer loop
    vertex 2.7999999999999985 -4.849742261192857 0.0
    vertex 1.5999999999999992 -2.7712812921102046 0.0
    vertex 2.262741699796951 -2.262741699796954 0.0
  endloop
endfacet
facet normal 0.0 0.0 -1.0
  outer loop
    vertex 2.7999999999999985 -4.849742261192857 0.0
    vertex 2.262741699796951 -2.262741699796954 0.0
    vertex 2.7712812921102032 -1.6000000000000016 0.0
  endloop
endfacet
facet normal 0.0 0.0 -1.0
  outer loop
    vertex 2.7999999999999985 -4.849742261192857 0.0
    vertex 2.7712812921102032 -1.6000000000000016 0.0
    vertex 3.0909626441250184 -0.8282209443280689 0.0
  endloop
endfacet
facet normal 0.0 0.0 -1.0
  outer loop
    vertex 2.7999999999999985 -4.849742261192857 0.0
    vertex 3.0909626441250184 -0.8282209443280689 0.0
    vertex 3.9597979746446637 -3.9597979746446677 0.0
  endloop
endfacet
facet normal 0.0 0.0 -1.0
  outer loop
    vertex 3.9597979746446637 -3.9597979746446677 0.0
    vertex 3.0909626441250184 -0.8282209443280689 0.0
    vertex 3.2000000000000006 -5.878304635907295e-16 0.0
  endloop
endfacet
facet normal -0.0 -0.0 1.0
  outer loop
    vertex -5.4091846272187825 -1.4493866525741155 10.0
    vertex -5.409184627218782 1.4493866525741173 10.0
    vertex -5.6 3.429011037612589e-16 10.0
  endloop
endfacet
facet normal -0.0 -0.0 1.0
  outer loop
    vertex -5.409184627218782 1.4493866525741173 10.0
    vertex -5.4091846272187825 -1.4493866525741155 10.0
    vertex -4.849742261192856 -2.7999999999999985 10.0
  endloop
endfacet
facet normal -0.0 -0.0 1.0
  outer loop
    vertex -5.409184627218782 1.4493866525741173 10.0
    vertex -4.849742261192856 -2.7999999999999985 10.0
    vertex -5.346798536040571 1.5999999999999996 10.0
  endloop
endfacet
facet normal -0.0 -0.0 1.0
  outer loop
    vertex -5.346798536040571 1.5999999999999996 10.0
    vertex -4.849742261192856 -2.7999999999999985 10.0
    vertex -4.849742261192856 2.8000000000000007 10.0
  endloop
endfacet
facet normal -0.0 -0.0 1.0
  outer loop
    vertex -4.849742261192856 2.8000000000000007 10.0
    vertex -4.849742261192856 -2.7999999999999985 10.0
    vertex -3.9597979746446663 -3.9597979746446654 10.0
  endloop
endfacet
facet normal -0.0 -0.0 1.0
  outer loop
    vertex -4.849742261192856 2.8000000000000007 10.0
    vertex -3.9597979746446663 -3.9597979746446654 10.0
    vertex -3.9597979746446663 3.9597979746446663 10.0
  endloop
endfacet
facet normal -0.0 -0.0 1.0
  outer loop
    vertex -3.9597979746446663 3.9597979746446663 10.0
    vertex -3.9597979746446663 -3.9597979746446654 10.0
    vertex -2.8000000000000016 -4.849742261192856 10.0
  endloop
endfacet
facet normal -0.0 -0.0 1.0
  outer loop
    vertex -3.9597979746446663 3.9597979746446663 10.0
    vertex -2.8000000000000016 -4.849742261192856 10.0
    vertex -3.2000000000000006 1.9594348786357655e-16 10.0
  endloop
endfacet
facet normal -0.0 -0.0 1.0
  outer loop
    vertex -3.2000000000000006 1.9594348786357655e-16 10.0
    vertex -2.8000000000000016 -4.849742261192856 10.0
    vertex -3.090962644125019 -0.8282209443280661 10.0
  endloop
endfacet
facet normal -0.0 -0.0 1.0
  outer loop
    vertex -3.090962644125019 -0.8282209443280661 10.0
    vertex -2.8000000000000016 -4.849742261192856 10.0
    vertex -2.771281292110204 -1.5999999999999996 10.0
  endloop
endfacet
facet normal -0.0 -0.0 1.0
  outer loop
    vertex -2.771281292110204 -1.5999999999999996 10.0
    vertex -2.8000000000000016 -4.849742261192856 10.0
    vertex -1.4493866525741175 -5.409184627218782 10.0
  endloop
endfacet
facet normal -0.0 -0.0 1.0
  outer loop
    vertex -2.771281292110204 -1.5999999999999996 10.0
    vertex -1.4493866525741175 -5.409184627218782 10.0
    vertex -2.2627416997969525 -2.2627416997969525 10.0
  endloop
endfacet
facet normal -0.0 -0.0 1.0
  outer loop
    vertex -2.2627416997969525 -2.2627416997969525 10.0
    vertex -1.4493866525741175 -5.409184627218782 10.0
    vertex -1.6000000000000012 -2.7712812921102032 10.0
  endloop
endfacet
facet normal -0.0 -0.0 1.0
  outer loop
    vertex -1.6000000000000012 -2.7712812921102032 10.0
    vertex -1.4493866525741175 -5.409184627218782 10.0
    vertex -0.8282209443280674 -3.090962644125019 10.0
  endloop
endfacet
facet normal -0.0 -0.0 1.0
  outer loop
    vertex -0.8282209443280674 -3.090962644125019 10.0
    vertex -1.4493866525741175 -5.409184627218782 10.0
    vertex -6.858022075225178e-16 -5.6 10.0
  endloop
endfacet
facet normal -0.0 -0.0 1.0
  outer loop
    vertex -0.8282209443280674 -3.090962644125019 10.0
    vertex -6.858022075225178e-16 -5.6 10.0
    vertex -3.918869757271531e-16 -3.2000000000000006 10.0
  endloop
endfacet
facet normal -0.0 -0.0 1.0
  outer loop
    vertex -3.918869757271531e-16 -3.2000000000000006 10.0
    vertex -6.858022075225178e-16 -5.6 10.0
    vertex 1.449386652574114 -5.409184627218783 10.0
  endloop
endfacet
facet normal -0.0 -0.0 1.0
  outer loop
    vertex -3.918869757271531e-16 -3.2000000000000006 10.0
    vertex 1.449386652574114 -5.409184627218783 10.0
    vertex 0.8282209443280653 -3.0909626441250193 10.0
  endloop
endfacet
facet normal -0.0 -0.0 1.0
  outer loop
    vertex 0.8282209443280653 -3.0909626441250193 10.0
    vertex 1.449386652574114 -5.409184627218783 10.0
    vertex 1.5999999999999992 -2.7712812921102046 10.0
  endloop
endfacet
facet normal -0.0 -0.0 1.0
  outer loop
    vertex 1.5999999999999992 -2.7712812921102046 10.0
    vertex 1.449386652574114 -5.409184627218783 10.0
    vertex 2.7999999999999985 -4.849742261192857 10.0
  endloop
endfacet
facet normal -0.0 -0.0 1.0
  outer loop
    vertex 1.5999999999999992 -2.7712812921102046 10.0
    vertex 2.7999999999999985 -4.849742261192857 10.0
    vertex 2.262741699796951 -2.262741699796954 10.0
  endloop
endfacet
facet normal -0.0 -0.0 1.0
  outer loop
    vertex 2.262741699796951 -2.262741699796954 10.0
    vertex 2.7999999999999985 -4.849742261192857 10.0
    vertex 2.7712812921102032 -1.6000000000000016 10.0
  endloop
endfacet
facet normal -0.0 -0.0 1.0
  outer loop
    vertex 2.7712812921102032 -1.6000000000000016 10.0
    vertex 2.7999999999999985 -4.849742261192857 10.0
    vertex 3.0909626441250184 -0.8282209443280689 10.0
  endloop
endfacet
facet normal -0.0 -0.0 1.0
  outer loop
    vertex 3.0909626441250184 -0.8282209443280689 10.0
    vertex 2.7999999999999985 -4.849742261192857 10.0
    vertex 3.9597979746446637 -3.9597979746446677 10.0
  endloop
endfacet
facet normal -0.0 -0.0 1.0
  outer loop
    vertex 3.0909626441250184 -0.8282209443280689 10.0
    vertex 3.9597979746446637 -3.9597979746446677 10.0
    vertex 3.2000000000000006 -5.878304635907295e-16 10.0
  endloop
endfacet
facet normal -0.0 -0.0 1.0
  outer loop
    vertex -3.2000000000000006 1.9594348786357655e-16 10.0
    vertex -2.7999999999999994 4.849742261192856 10.0
    vertex -3.9597979746446663 3.9597979746446663 10.0
  endloop
endfacet
facet normal -0.0 -0.0 1.0
  outer loop
    vertex -2.7999999999999994 4.849742261192856 10.0
    vertex -3.2000000000000006 1.9594348786357655e-16 10.0
    vertex -3.090962644125019 0.8282209443280671 10.0
  endloop
endfacet
facet normal -0.0 -0.0 1.0
  outer loop
    vertex -2.7999999999999994 4.849742261192856 10.0
    vertex -3.090962644125019 0.8282209443280671 10.0
    vertex -2.854124004584823 1.3999999999999988 10.0
  endloop
endfacet
facet normal -0.0 -0.0 1.0
  outer loop
    vertex -2.7999999999999994 4.849742261192856 10.0
    vertex -2.854124004584823 1.3999999999999988 10.0
    vertex 2.8541240045848237 1.3999999999999988 10.0
  endloop
endfacet
facet normal -0.0 -0.0 1.0
  outer loop
    vertex -2.7999999999999994 4.849742261192856 10.0
    vertex 2.8541240045848237 1.3999999999999988 10.0
    vertex -1.4493866525741161 5.4091846272187825 10.0
  endloop
endfacet
facet normal -0.0 -0.0 1.0
  outer loop
    vertex -1.4493866525741161 5.4091846272187825 10.0
    vertex 2.8541240045848237 1.3999999999999988 10.0
    vertex 0.0 5.6 10.0
  endloop
endfacet
facet normal -0.0 -0.0 1.0
  outer loop
    vertex 0.0 5.6 10.0
    vertex 2.8541240045848237 1.3999999999999988 10.0
    vertex 1.4493866525741208 5.409184627218781 10.0
  endloop
endfacet
facet normal -0.0 -0.0 1.0
  outer loop
    vertex 1.4493866525741208 5.409184627218781 10.0
    vertex 2.8541240045848237 1.3999999999999988 10.0
    vertex 2.8000000000000025 4.849742261192855 10.0
  endloop
endfacet
facet normal -0.0 -0.0 1.0
  outer loop
    vertex 2.8000000000000025 4.849742261192855 10.0
    vertex 2.8541240045848237 1.3999999999999988 10.0
    vertex 3.959797974644667 3.959797974644665 10.0
  endloop
endfacet
facet normal -0.0 -0.0 1.0
  outer loop
    vertex 3.959797974644667 3.959797974644665 10.0
    vertex 2.8541240045848237 1.3999999999999988 10.0
    vertex 3.0909626441250193 0.828220944328065 10.0
  endloop
endfacet
facet normal -0.0 -0.0 1.0
  outer loop
    vertex 3.959797974644667 3.959797974644665 10.0
    vertex 3.0909626441250193 0.828220944328065 10.0
    vertex 3.2000000000000006 -5.878304635907295e-16 10.0
  endloop
endfacet
facet normal -0.0 -0.0 1.0
  outer loop
    vertex 3.959797974644667 3.959797974644665 10.0
    vertex 3.2000000000000006 -5.878304635907295e-16 10.0
    vertex 3.9597979746446637 -3.9597979746446677 10.0
  endloop
endfacet
facet normal -0.0 -0.0 1.0
  outer loop
    vertex 3.959797974644667 3.959797974644665 10.0
    vertex 3.9597979746446637 -3.9597979746446677 10.0
    vertex 4.849742261192855 -2.8000000000000025 10.0
  endloop
endfacet
facet normal -0.0 -0.0 1.0
  outer loop
    vertex 3.959797974644667 3.959797974644665 10.0
    vertex 4.849742261192855 -2.8000000000000025 10.0
    vertex 4.8497422611928585 2.799999999999996 10.0
  endloop
endfacet
facet normal -0.0 -0.0 1.0
  outer loop
    vertex 4.8497422611928585 2.799999999999996 10.0
    vertex 4.849742261192855 -2.8000000000000025 10.0
    vertex 5.409184627218781 -1.4493866525741204 10.0
  endloop
endfacet
facet normal -0.0 -0.0 1.0
  outer loop
    vertex 4.8497422611928585 2.799999999999996 10.0
    vertex 5.409184627218781 -1.4493866525741204 10.0
    vertex 5.34679853604057 1.5999999999999996 10.0
  endloop
endfacet
facet normal -0.0 -0.0 1.0
  outer loop
    vertex 5.34679853604057 1.5999999999999996 10.0
    vertex 5.409184627218781 -1.4493866525741204 10.0
    vertex 5.409184627218783 1.4493866525741135 10.0
  endloop
endfacet
facet normal -0.0 -0.0 1.0
  outer loop
    vertex 5.409184627218783 1.4493866525741135 10.0
    vertex 5.409184627218781 -1.4493866525741204 10.0
    vertex 5.6 -1.0287033112837766e-15 10.0
  endloop
endfacet
facet normal -0.13052619222005146 0.9914448613738105 0.0
  outer loop
    vertex -1.4493866525741161 5.4091846272187825 10.0
    vertex 0.0 5.6 0.0
    vertex -1.4493866525741161 5.4091846272187825 0.0
  endloop
endfacet
facet normal -0.13052619222005146 0.9914448613738105 0.0
  outer loop
    vertex 0.0 5.6 0.0
    vertex -1.4493866525741161 5.4091846272187825 10.0
    vertex 0.0 5.6 10.0
  endloop
endfacet
facet normal 0.13052619222005202 0.9914448613738104 0.0
  outer loop
    vertex 0.0 5.6 10.0
    vertex 1.4493866525741208 5.409184627218781 0.0
    vertex 0.0 5.6 0.0
  endloop
endfacet
facet normal 0.13052619222005202 0.9914448613738104 0.0
  outer loop
    vertex 1.4493866525741208 5.409184627218781 0.0
    vertex 0.0 5.6 10.0
    vertex 1.4493866525741208 5.409184627218781 10.0
  endloop
endfacet
facet normal 0.3826834323650904 0.9238795325112865 0.0
  outer loop
    vertex 1.4493866525741208 5.409184627218781 10.0
    vertex 2.8000000000000025 4.849742261192855 0.0
    vertex 1.4493866525741208 5.409184627218781 0.0
  endloop
endfacet
facet normal 0.3826834323650904 0.9238795325112865 0.0
  outer loop
    vertex 2.8000000000000025 4.849742261192855 0.0
    vertex 1.4493866525741208 5.409184627218781 10.0
    vertex 2.8000000000000025 4.849742261192855 10.0
  endloop
endfacet
facet normal 0.6087614290087209 0.7933533402912349 0.0
  outer loop
    vertex 2.8000000000000025 4.849742261192855 10.0
    vertex 3.959797974644667 3.959797974644665 0.0
    vertex 2.8000000000000025 4.849742261192855 0.0
  endloop
endfacet
facet normal 0.6087614290087209 0.7933533402912349 0.0
  outer loop
    vertex 3.959797974644667 3.959797974644665 0.0
    vertex 2.8000000000000025 4.849742261192855 10.0
    vertex 3.959797974644667 3.959797974644665 10.0
  endloop
endfacet
facet normal 0.7933533402912356 0.6087614290087201 0.0
  outer loop
    vertex 3.959797974644667 3.959797974644665 0.0
    vertex 4.8497422611928585 2.799999999999996 10.0
    vertex 4.8497422611928585 2.799999999999996 0.0
  endloop
endfacet
facet normal 0.7933533402912356 0.6087614290087201 0.0
  outer loop
    vertex 4.8497422611928585 2.799999999999996 10.0
    vertex 3.959797974644667 3.959797974644665 0.0
    vertex 3.959797974644667 3.959797974644665 10.0
  endloop
endfacet
facet normal 0.9238795325112871 0.3826834323650894 0.0
  outer loop
    vertex 4.8497422611928585 2.799999999999996 0.0
    vertex 5.34679853604057 1.5999999999999996 10.0
    vertex 5.34679853604057 1.5999999999999996 0.0
  endloop
endfacet
facet normal 0.9238795325112871 0.3826834323650894 0.0
  outer loop
    vertex 5.34679853604057 1.5999999999999996 10.0
    vertex 4.8497422611928585 2.799999999999996 0.0
    vertex 4.8497422611928585 2.799999999999996 10.0
  endloop
endfacet
facet normal 0.923879532511287 0.3826834323650894 0.0
  outer loop
    vertex 5.34679853604057 1.5999999999999996 0.0
    vertex 5.409184627218783 1.4493866525741135 10.0
    vertex 5.409184627218783 1.4493866525741135 0.0
  endloop
endfacet
facet normal 0.923879532511287 0.3826834323650894 0.0
  outer loop
    vertex 5.409184627218783 1.4493866525741135 10.0
    vertex 5.34679853604057 1.5999999999999996 0.0
    vertex 5.34679853604057 1.5999999999999996 10.0
  endloop
endfacet
facet normal 0.9914448613738106 0.13052619222005116 0.0
  outer loop
    vertex 5.409184627218783 1.4493866525741135 0.0
    vertex 5.6 -1.0287033112837766e-15 10.0
    vertex 5.6 -1.0287033112837766e-15 0.0
  endloop
endfacet
facet normal 0.9914448613738106 0.13052619222005116 0.0
  outer loop
    vertex 5.6 -1.0287033112837766e-15 10.0
    vertex 5.409184627218783 1.4493866525741135 0.0
    vertex 5.409184627218783 1.4493866525741135 10.0
  endloop
endfacet
facet normal 0.9914448613738104 -0.13052619222005216 0.0
  outer loop
    vertex 5.6 -1.0287033112837766e-15 0.0
    vertex 5.409184627218781 -1.4493866525741204 10.0
    vertex 5.409184627218781 -1.4493866525741204 0.0
  endloop
endfacet
facet normal 0.9914448613738104 -0.13052619222005216 0.0
  outer loop
    vertex 5.409184627218781 -1.4493866525741204 10.0
    vertex 5.6 -1.0287033112837766e-15 0.0
    vertex 5.6 -1.0287033112837766e-15 10.0
  endloop
endfacet
facet normal 0.9238795325112866 -0.38268343236509034 0.0
  outer loop
    vertex 5.409184627218781 -1.4493866525741204 0.0
    vertex 4.849742261192855 -2.8000000000000025 10.0
    vertex 4.849742261192855 -2.8000000000000025 0.0
  endloop
endfacet
facet normal 0.9238795325112866 -0.38268343236509034 0.0
  outer loop
    vertex 4.849742261192855 -2.8000000000000025 10.0
    vertex 5.409184627218781 -1.4493866525741204 0.0
    vertex 5.409184627218781 -1.4493866525741204 10.0
  endloop
endfacet
facet normal 0.7933533402912348 -0.6087614290087213 0.0
  outer loop
    vertex 4.849742261192855 -2.8000000000000025 0.0
    vertex 3.9597979746446637 -3.9597979746446677 10.0
    vertex 3.9597979746446637 -3.9597979746446677 0.0
  endloop
endfacet
facet normal 0.7933533402912348 -0.6087614290087213 0.0
  outer loop
    vertex 3.9597979746446637 -3.9597979746446677 10.0
    vertex 4.849742261192855 -2.8000000000000025 0.0
    vertex 4.849742261192855 -2.8000000000000025 10.0
  endloop
endfacet
facet normal 0.6087614290087205 -0.7933533402912354 0.0
  outer loop
    vertex 3.9597979746446637 -3.9597979746446677 10.0
    vertex 2.7999999999999985 -4.849742261192857 0.0
    vertex 3.9597979746446637 -3.9597979746446677 0.0
  endloop
endfacet
facet normal 0.6087614290087205 -0.7933533402912354 0.0
  outer loop
    vertex 2.7999999999999985 -4.849742261192857 0.0
    vertex 3.9597979746446637 -3.9597979746446677 10.0
    vertex 2.7999999999999985 -4.849742261192857 10.0
  endloop
endfacet
facet normal 0.3826834323650897 -0.923879532511287 0.0
  outer loop
    vertex 2.7999999999999985 -4.849742261192857 10.0
    vertex 1.449386652574114 -5.409184627218783 0.0
    vertex 2.7999999999999985 -4.849742261192857 0.0
  endloop
endfacet
facet normal 0.3826834323650897 -0.923879532511287 0.0
  outer loop
    vertex 1.449386652574114 -5.409184627218783 0.0
    vertex 2.7999999999999985 -4.849742261192857 10.0
    vertex 1.449386652574114 -5.409184627218783 10.0
  endloop
endfacet
facet normal 0.13052619222005116 -0.9914448613738106 0.0
  outer loop
    vertex 1.449386652574114 -5.409184627218783 10.0
    vertex -6.858022075225178e-16 -5.6 0.0
    vertex 1.449386652574114 -5.409184627218783 0.0
  endloop
endfacet
facet normal 0.13052619222005116 -0.9914448613738106 0.0
  outer loop
    vertex -6.858022075225178e-16 -5.6 0.0
    vertex 1.449386652574114 -5.409184627218783 10.0
    vertex -6.858022075225178e-16 -5.6 10.0
  endloop
endfacet
facet normal -0.13052619222005188 -0.9914448613738104 -0.0
  outer loop
    vertex -6.858022075225178e-16 -5.6 10.0
    vertex -1.4493866525741175 -5.409184627218782 0.0
    vertex -6.858022075225178e-16 -5.6 0.0
  endloop
endfacet
facet normal -0.13052619222005188 -0.9914448613738104 -0.0
  outer loop
    vertex -1.4493866525741175 -5.409184627218782 0.0
    vertex -6.858022075225178e-16 -5.6 10.0
    vertex -1.4493866525741175 -5.409184627218782 10.0
  endloop
endfacet
facet normal -0.3826834323650898 -0.9238795325112867 -0.0
  outer loop
    vertex -1.4493866525741175 -5.409184627218782 10.0
    vertex -2.8000000000000016 -4.849742261192856 0.0
    vertex -1.4493866525741175 -5.409184627218782 0.0
  endloop
endfacet
facet normal -0.3826834323650898 -0.9238795325112867 -0.0
  outer loop
    vertex -2.8000000000000016 -4.849742261192856 0.0
    vertex -1.4493866525741175 -5.409184627218782 10.0
    vertex -2.8000000000000016 -4.849742261192856 10.0
  endloop
endfacet
facet normal -0.6087614290087209 -0.7933533402912349 -0.0
  outer loop
    vertex -2.8000000000000016 -4.849742261192856 10.0
    vertex -3.9597979746446663 -3.9597979746446654 0.0
    vertex -2.8000000000000016 -4.849742261192856 0.0
  endloop
endfacet
facet normal -0.6087614290087209 -0.7933533402912349 -0.0
  outer loop
    vertex -3.9597979746446663 -3.9597979746446654 0.0
    vertex -2.8000000000000016 -4.849742261192856 10.0
    vertex -3.9597979746446663 -3.9597979746446654 10.0
  endloop
endfacet
facet normal -0.7933533402912357 -0.6087614290087202 -0.0
  outer loop
    vertex -4.849742261192856 -2.7999999999999985 10.0
    vertex -3.9597979746446663 -3.9597979746446654 0.0
    vertex -3.9597979746446663 -3.9597979746446654 10.0
  endloop
endfacet
facet normal -0.7933533402912357 -0.6087614290087202 -0.0
  outer loop
    vertex -3.9597979746446663 -3.9597979746446654 0.0
    vertex -4.849742261192856 -2.7999999999999985 10.0
    vertex -4.849742261192856 -2.7999999999999985 0.0
  endloop
endfacet
facet normal -0.9238795325112867 -0.38268343236509006 -0.0
  outer loop
    vertex -5.4091846272187825 -1.4493866525741155 10.0
    vertex -4.849742261192856 -2.7999999999999985 0.0
    vertex -4.849742261192856 -2.7999999999999985 10.0
  endloop
endfacet
facet normal -0.9238795325112867 -0.38268343236509006 -0.0
  outer loop
    vertex -4.849742261192856 -2.7999999999999985 0.0
    vertex -5.4091846272187825 -1.4493866525741155 10.0
    vertex -5.4091846272187825 -1.4493866525741155 0.0
  endloop
endfacet
facet normal -0.9914448613738106 -0.13052619222005152 -0.0
  outer loop
    vertex -5.6 3.429011037612589e-16 10.0
    vertex -5.4091846272187825 -1.4493866525741155 0.0
    vertex -5.4091846272187825 -1.4493866525741155 10.0
  endloop
endfacet
facet normal -0.9914448613738106 -0.13052619222005152 -0.0
  outer loop
    vertex -5.4091846272187825 -1.4493866525741155 0.0
    vertex -5.6 3.429011037612589e-16 10.0
    vertex -5.6 3.429011037612589e-16 0.0
  endloop
endfacet
facet normal -0.9914448613738105 0.13052619222005188 0.0
  outer loop
    vertex -5.409184627218782 1.4493866525741173 10.0
    vertex -5.6 3.429011037612589e-16 0.0
    vertex -5.6 3.429011037612589e-16 10.0
  endloop
endfacet
facet normal -0.9914448613738105 0.13052619222005188 0.0
  outer loop
    vertex -5.6 3.429011037612589e-16 0.0
    vertex -5.409184627218782 1.4493866525741173 10.0
    vertex -5.409184627218782 1.4493866525741173 0.0
  endloop
endfacet
facet normal -0.9238795325112882 0.38268343236508673 0.0
  outer loop
    vertex -5.346798536040571 1.5999999999999996 10.0
    vertex -5.409184627218782 1.4493866525741173 0.0
    vertex -5.409184627218782 1.4493866525741173 10.0
  endloop
endfacet
facet normal -0.9238795325112882 0.38268343236508673 0.0
  outer loop
    vertex -5.409184627218782 1.4493866525741173 0.0
    vertex -5.346798536040571 1.5999999999999996 10.0
    vertex -5.346798536040571 1.5999999999999996 0.0
  endloop
endfacet
facet normal -0.9238795325112868 0.38268343236509 0.0
  outer loop
    vertex -4.849742261192856 2.8000000000000007 10.0
    vertex -5.346798536040571 1.5999999999999996 0.0
    vertex -5.346798536040571 1.5999999999999996 10.0
  endloop
endfacet
facet normal -0.9238795325112868 0.38268343236509 0.0
  outer loop
    vertex -5.346798536040571 1.5999999999999996 0.0
    vertex -4.849742261192856 2.8000000000000007 10.0
    vertex -4.849742261192856 2.8000000000000007 0.0
  endloop
endfacet
facet normal -0.7933533402912354 0.6087614290087207 0.0
  outer loop
    vertex -3.9597979746446663 3.9597979746446663 10.0
    vertex -4.849742261192856 2.8000000000000007 0.0
    vertex -4.849742261192856 2.8000000000000007 10.0
  endloop
endfacet
facet normal -0.7933533402912354 0.6087614290087207 0.0
  outer loop
    vertex -4.849742261192856 2.8000000000000007 0.0
    vertex -3.9597979746446663 3.9597979746446663 10.0
    vertex -3.9597979746446663 3.9597979746446663 0.0
  endloop
endfacet
facet normal -0.6087614290087203 0.7933533402912356 0.0
  outer loop
    vertex -3.9597979746446663 3.9597979746446663 10.0
    vertex -2.7999999999999994 4.849742261192856 0.0
    vertex -3.9597979746446663 3.9597979746446663 0.0
  endloop
endfacet
facet normal -0.6087614290087203 0.7933533402912356 0.0
  outer loop
    vertex -2.7999999999999994 4.849742261192856 0.0
    vertex -3.9597979746446663 3.9597979746446663 10.0
    vertex -2.7999999999999994 4.849742261192856 10.0
  endloop
endfacet
facet normal -0.38268343236509 0.9238795325112868 0.0
  outer loop
    vertex -2.7999999999999994 4.849742261192856 10.0
    vertex -1.4493866525741161 5.4091846272187825 0.0
    vertex -2.7999999999999994 4.849742261192856 0.0
  endloop
endfacet
facet normal -0.38268343236509 0.9238795325112868 0.0
  outer loop
    vertex -1.4493866525741161 5.4091846272187825 0.0
    vertex -2.7999999999999994 4.849742261192856 10.0
    vertex -1.4493866525741161 5.4091846272187825 10.0
  endloop
endfacet
facet normal -0.9238795325112871 -0.38268343236508945 0.0
  outer loop
    vertex 2.8541240045848237 1.3999999999999988 10.0
    vertex 3.0909626441250193 0.828220944328065 0.0
    vertex 3.0909626441250193 0.828220944328065 10.0
  endloop
endfacet
facet normal -0.9238795325112871 -0.38268343236508945 0.0
  outer loop
    vertex 3.0909626441250193 0.828220944328065 0.0
    vertex 2.8541240045848237 1.3999999999999988 10.0
    vertex 2.8541240045848237 1.3999999999999988 0.0
  endloop
endfacet
facet normal 0.0 -1.0 0.0
  outer loop
    vertex 2.8541240045848237 1.3999999999999988 10.0
    vertex -2.854124004584823 1.3999999999999988 0.0
    vertex 2.8541240045848237 1.3999999999999988 0.0
  endloop
endfacet
facet normal 0.0 -1.0 0.0
  outer loop
    vertex -2.854124004584823 1.3999999999999988 0.0
    vertex 2.8541240045848237 1.3999999999999988 10.0
    vertex -2.854124004584823 1.3999999999999988 10.0
  endloop
endfacet
facet normal 0.9238795325112862 -0.38268343236509106 0.0
  outer loop
    vertex -2.854124004584823 1.3999999999999988 0.0
    vertex -3.090962644125019 0.8282209443280671 10.0
    vertex -3.090962644125019 0.8282209443280671 0.0
  endloop
endfacet
facet normal 0.9238795325112862 -0.38268343236509106 0.0
  outer loop
    vertex -3.090962644125019 0.8282209443280671 10.0
    vertex -2.854124004584823 1.3999999999999988 0.0
    vertex -2.854124004584823 1.3999999999999988 10.0
  endloop
endfacet
facet normal 0.9914448613738105 -0.1305261922200519 0.0
  outer loop
    vertex -3.090962644125019 0.8282209443280671 0.0
    vertex -3.2000000000000006 1.9594348786357655e-16 10.0
    vertex -3.2000000000000006 1.9594348786357655e-16 0.0
  endloop
endfacet
facet normal 0.9914448613738105 -0.1305261922200519 0.0
  outer loop
    vertex -3.2000000000000006 1.9594348786357655e-16 10.0
    vertex -3.090962644125019 0.8282209443280671 0.0
    vertex -3.090962644125019 0.8282209443280671 10.0
  endloop
endfacet
facet normal 0.9914448613738104 0.1305261922200516 0.0
  outer loop
    vertex -3.2000000000000006 1.9594348786357655e-16 0.0
    vertex -3.090962644125019 -0.8282209443280661 10.0
    vertex -3.090962644125019 -0.8282209443280661 0.0
  endloop
endfacet
facet normal 0.9914448613738104 0.1305261922200516 0.0
  outer loop
    vertex -3.090962644125019 -0.8282209443280661 10.0
    vertex -3.2000000000000006 1.9594348786357655e-16 0.0
    vertex -3.2000000000000006 1.9594348786357655e-16 10.0
  endloop
endfacet
facet normal 0.9238795325112867 0.3826834323650899 0.0
  outer loop
    vertex -3.090962644125019 -0.8282209443280661 0.0
    vertex -2.771281292110204 -1.5999999999999996 10.0
    vertex -2.771281292110204 -1.5999999999999996 0.0
  endloop
endfacet
facet normal 0.9238795325112867 0.3826834323650899 0.0
  outer loop
    vertex -2.771281292110204 -1.5999999999999996 10.0
    vertex -3.090962644125019 -0.8282209443280661 0.0
    vertex -3.090962644125019 -0.8282209443280661 10.0
  endloop
endfacet
facet normal 0.7933533402912356 0.6087614290087201 0.0
  outer loop
    vertex -2.771281292110204 -1.5999999999999996 0.0
    vertex -2.2627416997969525 -2.2627416997969525 10.0
    vertex -2.2627416997969525 -2.2627416997969525 0.0
  endloop
endfacet
facet normal 0.7933533402912356 0.6087614290087201 0.0
  outer loop
    vertex -2.2627416997969525 -2.2627416997969525 10.0
    vertex -2.771281292110204 -1.5999999999999996 0.0
    vertex -2.771281292110204 -1.5999999999999996 10.0
  endloop
endfacet
facet normal 0.6087614290087207 0.7933533402912352 0.0
  outer loop
    vertex -2.2627416997969525 -2.2627416997969525 10.0
    vertex -1.6000000000000012 -2.7712812921102032 0.0
    vertex -2.2627416997969525 -2.2627416997969525 0.0
  endloop
endfacet
facet normal 0.6087614290087207 0.7933533402912352 0.0
  outer loop
    vertex -1.6000000000000012 -2.7712812921102032 0.0
    vertex -2.2627416997969525 -2.2627416997969525 10.0
    vertex -1.6000000000000012 -2.7712812921102032 10.0
  endloop
endfacet
facet normal 0.38268343236509 0.9238795325112867 0.0
  outer loop
    vertex -1.6000000000000012 -2.7712812921102032 10.0
    vertex -0.8282209443280674 -3.090962644125019 0.0
    vertex -1.6000000000000012 -2.7712812921102032 0.0
  endloop
endfacet
facet normal 0.38268343236509 0.9238795325112867 0.0
  outer loop
    vertex -0.8282209443280674 -3.090962644125019 0.0
    vertex -1.6000000000000012 -2.7712812921102032 10.0
    vertex -0.8282209443280674 -3.090962644125019 10.0
  endloop
endfacet
facet normal 0.1305261922200519 0.9914448613738105 0.0
  outer loop
    vertex -0.8282209443280674 -3.090962644125019 10.0
    vertex -3.918869757271531e-16 -3.2000000000000006 0.0
    vertex -0.8282209443280674 -3.090962644125019 0.0
  endloop
endfacet
facet normal 0.1305261922200519 0.9914448613738105 0.0
  outer loop
    vertex -3.918869757271531e-16 -3.2000000000000006 0.0
    vertex -0.8282209443280674 -3.090962644125019 10.0
    vertex -3.918869757271531e-16 -3.2000000000000006 10.0
  endloop
endfacet
facet normal -0.13052619222005132 0.9914448613738106 0.0
  outer loop
    vertex -3.918869757271531e-16 -3.2000000000000006 10.0
    vertex 0.8282209443280653 -3.0909626441250193 0.0
    vertex -3.918869757271531e-16 -3.2000000000000006 0.0
  endloop
endfacet
facet normal -0.13052619222005132 0.9914448613738106 0.0
  outer loop
    vertex 0.8282209443280653 -3.0909626441250193 0.0
    vertex -3.918869757271531e-16 -3.2000000000000006 10.0
    vertex 0.8282209443280653 -3.0909626441250193 10.0
  endloop
endfacet
facet normal -0.3826834323650897 0.923879532511287 0.0
  outer loop
    vertex 0.8282209443280653 -3.0909626441250193 10.0
    vertex 1.5999999999999992 -2.7712812921102046 0.0
    vertex 0.8282209443280653 -3.0909626441250193 0.0
  endloop
endfacet
facet normal -0.3826834323650897 0.923879532511287 0.0
  outer loop
    vertex 1.5999999999999992 -2.7712812921102046 0.0
    vertex 0.8282209443280653 -3.0909626441250193 10.0
    vertex 1.5999999999999992 -2.7712812921102046 10.0
  endloop
endfacet
facet normal -0.60876142900872 0.7933533402912358 0.0
  outer loop
    vertex 1.5999999999999992 -2.7712812921102046 10.0
    vertex 2.262741699796951 -2.262741699796954 0.0
    vertex 1.5999999999999992 -2.7712812921102046 0.0
  endloop
endfacet
facet normal -0.60876142900872 0.7933533402912358 0.0
  outer loop
    vertex 2.262741699796951 -2.262741699796954 0.0
    vertex 1.5999999999999992 -2.7712812921102046 10.0
    vertex 2.262741699796951 -2.262741699796954 10.0
  endloop
endfacet
facet normal -0.7933533402912352 0.6087614290087209 0.0
  outer loop
    vertex 2.7712812921102032 -1.6000000000000016 10.0
    vertex 2.262741699796951 -2.262741699796954 0.0
    vertex 2.262741699796951 -2.262741699796954 10.0
  endloop
endfacet
facet normal -0.7933533402912352 0.6087614290087209 0.0
  outer loop
    vertex 2.262741699796951 -2.262741699796954 0.0
    vertex 2.7712812921102032 -1.6000000000000016 10.0
    vertex 2.7712812921102032 -1.6000000000000016 0.0
  endloop
endfacet
facet normal -0.9238795325112866 0.3826834323650906 0.0
  outer loop
    vertex 3.0909626441250184 -0.8282209443280689 10.0
    vertex 2.7712812921102032 -1.6000000000000016 0.0
    vertex 2.7712812921102032 -1.6000000000000016 10.0
  endloop
endfacet
facet normal -0.9238795325112866 0.3826834323650906 0.0
  outer loop
    vertex 2.7712812921102032 -1.6000000000000016 0.0
    vertex 3.0909626441250184 -0.8282209443280689 10.0
    vertex 3.0909626441250184 -0.8282209443280689 0.0
  endloop
endfacet
facet normal -0.9914448613738104 0.1305261922200521 0.0
  outer loop
    vertex 3.2000000000000006 -5.878304635907295e-16 10.0
    vertex 3.0909626441250184 -0.8282209443280689 0.0
    vertex 3.0909626441250184 -0.8282209443280689 10.0
  endloop
endfacet
facet normal -0.9914448613738104 0.1305261922200521 0.0
  outer loop
    vertex 3.0909626441250184 -0.8282209443280689 0.0
    vertex 3.2000000000000006 -5.878304635907295e-16 10.0
    vertex 3.2000000000000006 -5.878304635907295e-16 0.0
  endloop
endfacet
facet normal -0.9914448613738106 -0.13052619222005132 -0.0
  outer loop
    vertex 3.0909626441250193 0.828220944328065 10.0
    vertex 3.2000000000000006 -5.878304635907295e-16 0.0
    vertex 3.2000000000000006 -5.878304635907295e-16 10.0
  endloop
endfacet
facet normal -0.9914448613738106 -0.13052619222005132 -0.0
  outer loop
    vertex 3.2000000000000006 -5.878304635907295e-16 0.0
    vertex 3.0909626441250193 0.828220944328065 10.0
    vertex 3.0909626441250193 0.828220944328065 0.0
  endloop
endfacet
endsolid button
