solid cable
facet normal -0.0 -0.0 1.0
  outer loop
    vertex 3.0 0.0 0.9999999999999999
    vertex 0.0 8.5 0.9999999999999999
    vertex 0.0 0.0 0.9999999999999999
  endloop
endfacet
facet normal -0.0 -0.0 1.0
  outer loop
    vertex 0.0 8.5 0.9999999999999999
    vertex 3.0 0.0 0.9999999999999999
    vertex 3.0 8.5 0.9999999999999999
  endloop
endfacet
facet normal 0.0 -1.0 0.0
  outer loop
    vertex 3.0 8.5 1.9999999999999998
    vertex 0.0 8.5 0.9999999999999999
    vertex 3.0 8.5 0.9999999999999999
  endloop
endfacet
facet normal 0.0 -1.0 0.0
  outer loop
    vertex 0.0 8.5 0.9999999999999999
    vertex 3.0 8.5 1.9999999999999998
    vertex 0.0 8.5 1.9999999999999998
  endloop
endfacet
facet normal -0.0 1.0 0.0
  outer loop
    vertex 0.0 0.0 1.9999999999999984
    vertex 3.0 0.0 0.9999999999999999
    vertex 0.0 0.0 0.9999999999999999
  endloop
endfacet
facet normal -0.0 1.0 0.0
  outer loop
    vertex 3.0 0.0 0.9999999999999999
    vertex 0.0 0.0 1.9999999999999984
    vertex 3.0 0.0 1.9999999999999984
  endloop
endfacet
facet normal -0.0 0.9807852804032302 -0.19509032201612975
  outer loop
    vertex 1.4099832412739487e-15 9.5 0.9999999999999999
    vertex 3.0 9.423879532511286 0.6173165676349103
    vertex 1.4099832412739487e-15 9.423879532511286 0.6173165676349103
  endloop
endfacet
facet normal -0.0 0.9807852804032302 -0.19509032201612975
  outer loop
    vertex 3.0 9.423879532511286 0.6173165676349103
    vertex 1.4099832412739487e-15 9.5 0.9999999999999999
    vertex 3.0 9.5 0.9999999999999999
  endloop
endfacet
facet normal -0.0 0.8314696123025468 -0.5555702330196001
  outer loop
    vertex 1.4099832412739487e-15 9.423879532511286 0.6173165676349103
    vertex 3.0 9.207106781186548 0.29289321881345265
    vertex 1.4099832412739487e-15 9.207106781186548 0.29289321881345265
  endloop
endfacet
facet normal -0.0 0.8314696123025468 -0.5555702330196001
  outer loop
    vertex 3.0 9.207106781186548 0.29289321881345265
    vertex 1.4099832412739487e-15 9.423879532511286 0.6173165676349103
    vertex 3.0 9.423879532511286 0.6173165676349103
  endloop
endfacet
facet normal -0.0 0.5555702330196012 -0.831469612302546
  outer loop
    vertex 3.0 9.207106781186548 0.29289321881345265
    vertex 1.4099832412739487e-15 8.88268343236509 0.07612046748871361
    vertex 1.4099832412739487e-15 9.207106781186548 0.29289321881345265
  endloop
endfacet
facet normal -0.0 0.5555702330196012 -0.831469612302546
  outer loop
    vertex 1.4099832412739487e-15 8.88268343236509 0.07612046748871361
    vertex 3.0 9.207106781186548 0.29289321881345265
    vertex 3.0 8.88268343236509 0.07612046748871361
  endloop
endfacet
facet normal 0.0 0.1950903220161285 -0.9807852804032304
  outer loop
    vertex 3.0 8.88268343236509 0.07612046748871361
    vertex 1.4099832412739487e-15 8.5 3.524958103184872e-16
    vertex 1.4099832412739487e-15 8.88268343236509 0.07612046748871361
  endloop
endfacet
facet normal 0.0 0.1950903220161285 -0.9807852804032304
  outer loop
    vertex 1.4099832412739487e-15 8.5 3.524958103184872e-16
    vertex 3.0 8.88268343236509 0.07612046748871361
    vertex 3.0 8.5 3.524958103184872e-16
  endloop
endfacet
facet normal 0.0 -0.9807852804032304 -0.1950903220161289
  outer loop
    vertex 3.0 -0.9999999999999998 0.9999999999999992
    vertex 0.024254999999999652 -0.9238795325112863 0.6173165676349097
    vertex 3.0 -0.9238795325112863 0.6173165676349097
  endloop
endfacet
facet normal 0.0 -0.9807852804032304 -0.1950903220161289
  outer loop
    vertex 0.024254999999999652 -0.9238795325112863 0.6173165676349097
    vertex 3.0 -0.9999999999999998 0.9999999999999992
    vertex 0.024254999999999652 -0.9999999999999998 0.9999999999999992
  endloop
endfacet
facet normal 0.0 -0.19509032201612803 -0.9807852804032307
  outer loop
    vertex 3.0 -2.2374534095486894e-17 0.0
    vertex 0.024254999999999652 -0.3826834323650895 0.07612046748871308
    vertex 0.024254999999999652 -2.2374534095486894e-17 0.0
  endloop
endfacet
facet normal 0.0 -0.19509032201612803 -0.9807852804032307
  outer loop
    vertex 0.024254999999999652 -0.3826834323650895 0.07612046748871308
    vertex 3.0 -2.2374534095486894e-17 0.0
    vertex 3.0 -0.3826834323650895 0.07612046748871308
  endloop
endfacet
facet normal -0.0 -0.5555702330196022 -0.8314696123025452
  outer loop
    vertex 3.0 -0.3826834323650895 0.07612046748871308
    vertex 0.024254999999999652 -0.7071067811865471 0.2928932188134522
    vertex 0.024254999999999652 -0.3826834323650895 0.07612046748871308
  endloop
endfacet
facet normal -0.0 -0.5555702330196022 -0.8314696123025452
  outer loop
    vertex 0.024254999999999652 -0.7071067811865471 0.2928932188134522
    vertex 3.0 -0.3826834323650895 0.07612046748871308
    vertex 3.0 -0.7071067811865471 0.2928932188134522
  endloop
endfacet
facet normal -0.0 -0.831469612302545 -0.5555702330196024
  outer loop
    vertex 3.0 -0.9238795325112863 0.6173165676349097
    vertex 0.024254999999999652 -0.7071067811865471 0.2928932188134522
    vertex 3.0 -0.7071067811865471 0.2928932188134522
  endloop
endfacet
facet normal -0.0 -0.831469612302545 -0.5555702330196024
  outer loop
    vertex 0.024254999999999652 -0.7071067811865471 0.2928932188134522
    vertex 3.0 -0.9238795325112863 0.6173165676349097
    vertex 0.024254999999999652 -0.9238795325112863 0.6173165676349097
  endloop
endfacet
facet normal 0.0 -1.0 0.0
  outer loop
    vertex 6.499999999999999 8.5 1.9999999999999998
    vertex 3.0 8.5 0.9999999999999999
    vertex 6.499999999999999 8.5 0.9999999999999999
  endloop
endfacet
facet normal 0.0 -1.0 0.0
  outer loop
    vertex 3.0 8.5 0.9999999999999999
    vertex 6.499999999999999 8.5 1.9999999999999998
    vertex 3.0 8.5 1.9999999999999998
  endloop
endfacet
facet normal -0.0 0.0 1.0
  outer loop
    vertex 6.499999999999999 0.0 0.9999999999999999
    vertex 3.0 8.5 0.9999999999999999
    vertex 3.0 0.0 0.9999999999999999
  endloop
endfacet
facet normal -0.0 0.0 1.0
  outer loop
    vertex 3.0 8.5 0.9999999999999999
    vertex 6.499999999999999 0.0 0.9999999999999999
    vertex 6.499999999999999 8.5 0.9999999999999999
  endloop
endfacet
facet normal 0.0 1.0 0.0
  outer loop
    vertex 3.0 0.0 1.9999999999999984
    vertex 6.499999999999999 0.0 0.9999999999999999
    vertex 3.0 0.0 0.9999999999999999
  endloop
endfacet
facet normal 0.0 1.0 0.0
  outer loop
    vertex 6.499999999999999 0.0 0.9999999999999999
    vertex 3.0 0.0 1.9999999999999984
    vertex 6.499999999999999 0.0 1.9999999999999984
  endloop
endfacet
facet normal 0.0 0.19509032201612844 -0.9807852804032304
  outer loop
    vertex 9.5 8.88268343236509 0.07612046748871361
    vertex 6.499999999999999 8.5 3.524958103184872e-16
    vertex 6.499999999999999 8.88268343236509 0.07612046748871361
  endloop
endfacet
facet normal 0.0 0.19509032201612844 -0.9807852804032304
  outer loop
    vertex 6.499999999999999 8.5 3.524958103184872e-16
    vertex 9.5 8.88268343236509 0.07612046748871361
    vertex 9.5 8.5 3.524958103184872e-16
  endloop
endfacet
facet normal 0.0 0.5555702330196012 -0.831469612302546
  outer loop
    vertex 9.5 9.207106781186548 0.29289321881345265
    vertex 6.499999999999999 8.88268343236509 0.07612046748871361
    vertex 6.499999999999999 9.207106781186548 0.29289321881345265
  endloop
endfacet
facet normal 0.0 0.5555702330196012 -0.831469612302546
  outer loop
    vertex 6.499999999999999 8.88268343236509 0.07612046748871361
    vertex 9.5 9.207106781186548 0.29289321881345265
    vertex 9.5 8.88268343236509 0.07612046748871361
  endloop
endfacet
facet normal 0.0 0.8314696123025468 -0.5555702330196001
  outer loop
    vertex 6.499999999999999 9.423879532511286 0.6173165676349103
    vertex 9.5 9.207106781186548 0.29289321881345265
    vertex 6.499999999999999 9.207106781186548 0.29289321881345265
  endloop
endfacet
facet normal 0.0 0.8314696123025468 -0.5555702330196001
  outer loop
    vertex 9.5 9.207106781186548 0.29289321881345265
    vertex 6.499999999999999 9.423879532511286 0.6173165676349103
    vertex 9.5 9.423879532511286 0.6173165676349103
  endloop
endfacet
facet normal 0.0 0.9807852804032302 -0.1950903220161297
  outer loop
    vertex 6.499999999999999 9.5 0.9999999999999999
    vertex 9.5 9.423879532511286 0.6173165676349103
    vertex 6.499999999999999 9.423879532511286 0.6173165676349103
  endloop
endfacet
facet normal 0.0 0.9807852804032302 -0.1950903220161297
  outer loop
    vertex 9.5 9.423879532511286 0.6173165676349103
    vertex 6.499999999999999 9.5 0.9999999999999999
    vertex 9.5 9.5 0.9999999999999999
  endloop
endfacet
facet normal 0.0 -1.0 0.0
  outer loop
    vertex 9.5 8.5 1.9999999999999998
    vertex 6.499999999999999 8.5 0.9999999999999999
    vertex 9.5 8.5 0.9999999999999999
  endloop
endfacet
facet normal 0.0 -1.0 0.0
  outer loop
    vertex 6.499999999999999 8.5 0.9999999999999999
    vertex 9.5 8.5 1.9999999999999998
    vertex 6.499999999999999 8.5 1.9999999999999998
  endloop
endfacet
facet normal -0.0 0.0 1.0
  outer loop
    vertex 9.5 0.0 0.9999999999999999
    vertex 6.499999999999999 8.5 0.9999999999999999
    vertex 6.499999999999999 0.0 0.9999999999999999
  endloop
endfacet
facet normal -0.0 0.0 1.0
  outer loop
    vertex 6.499999999999999 8.5 0.9999999999999999
    vertex 9.5 0.0 0.9999999999999999
    vertex 9.5 8.5 0.9999999999999999
  endloop
endfacet
facet normal 0.0 1.0 0.0
  outer loop
    vertex 6.499999999999999 0.0 1.9999999999999984
    vertex 9.5 0.0 0.9999999999999999
    vertex 6.499999999999999 0.0 0.9999999999999999
  endloop
endfacet
facet normal 0.0 1.0 0.0
  outer loop
    vertex 9.5 0.0 0.9999999999999999
    vertex 6.499999999999999 0.0 1.9999999999999984
    vertex 9.5 0.0 1.9999999999999984
  endloop
endfacet
facet normal 0.0 -0.9807852804032304 -0.19509032201612886
  outer loop
    vertex 9.5 -0.9999999999999998 0.9999999999999992
    vertex 6.499999999999999 -0.9238795325112863 0.6173165676349097
    vertex 9.5 -0.9238795325112863 0.6173165676349097
  endloop
endfacet
facet normal 0.0 -0.9807852804032304 -0.19509032201612886
  outer loop
    vertex 6.499999999999999 -0.9238795325112863 0.6173165676349097
    vertex 9.5 -0.9999999999999998 0.9999999999999992
    vertex 6.499999999999999 -0.9999999999999998 0.9999999999999992
  endloop
endfacet
facet normal 0.0 -0.831469612302545 -0.5555702330196024
  outer loop
    vertex 9.5 -0.9238795325112863 0.6173165676349097
    vertex 6.499999999999999 -0.7071067811865471 0.2928932188134522
    vertex 9.5 -0.7071067811865471 0.2928932188134522
  endloop
endfacet
facet normal 0.0 -0.831469612302545 -0.5555702330196024
  outer loop
    vertex 6.499999999999999 -0.7071067811865471 0.2928932188134522
    vertex 9.5 -0.9238795325112863 0.6173165676349097
    vertex 6.499999999999999 -0.9238795325112863 0.6173165676349097
  endloop
endfacet
facet normal 0.0 -0.5555702330196022 -0.8314696123025452
  outer loop
    vertex 9.5 -0.3826834323650895 0.07612046748871308
    vertex 6.499999999999999 -0.7071067811865471 0.2928932188134522
    vertex 6.499999999999999 -0.3826834323650895 0.07612046748871308
  endloop
endfacet
facet normal 0.0 -0.5555702330196022 -0.8314696123025452
  outer loop
    vertex 6.499999999999999 -0.7071067811865471 0.2928932188134522
    vertex 9.5 -0.3826834323650895 0.07612046748871308
    vertex 9.5 -0.7071067811865471 0.2928932188134522
  endloop
endfacet
facet normal 0.0 -0.19509032201612805 -0.9807852804032305
  outer loop
    vertex 9.5 -2.2374534095486894e-17 0.0
    vertex 6.499999999999999 -0.3826834323650895 0.07612046748871308
    vertex 6.499999999999999 -2.2374534095486894e-17 0.0
  endloop
endfacet
facet normal 0.0 -0.19509032201612805 -0.9807852804032305
  outer loop
    vertex 6.499999999999999 -0.3826834323650895 0.07612046748871308
    vertex 9.5 -2.2374534095486894e-17 0.0
    vertex 9.5 -0.3826834323650895 0.07612046748871308
  endloop
endfacet
facet normal 0.0 0.19509032201612844 -0.9807852804032304
  outer loop
    vertex 6.499999999999999 8.88268343236509 0.07612046748871361
    vertex 3.0 8.5 3.524958103184872e-16
    vertex 3.0 8.88268343236509 0.07612046748871361
  endloop
endfacet
facet normal 0.0 0.19509032201612844 -0.9807852804032304
  outer loop
    vertex 3.0 8.5 3.524958103184872e-16
    vertex 6.499999999999999 8.88268343236509 0.07612046748871361
    vertex 6.499999999999999 8.5 3.524958103184872e-16
  endloop
endfacet
facet normal 1.0 0.0 0.0
  outer loop
    vertex 6.499999999999999 8.5 3.524958103184872e-16
    vertex 6.499999999999999 0.0 0.9999999999999999
    vertex 6.499999999999999 -2.2374534095486894e-17 0.0
  endloop
endfacet
facet normal 1.0 0.0 0.0
  outer loop
    vertex 6.499999999999999 0.0 0.9999999999999999
    vertex 6.499999999999999 8.5 3.524958103184872e-16
    vertex 6.499999999999999 8.5 0.9999999999999999
  endloop
endfacet
facet normal 1.0 0.0 0.0
  outer loop
    vertex 6.499999999999999 8.5 0.9999999999999999
    vertex 6.499999999999999 8.5 3.524958103184872e-16
    vertex 6.499999999999999 8.88268343236509 0.07612046748871361
  endloop
endfacet
facet normal 1.0 0.0 0.0
  outer loop
    vertex 6.499999999999999 8.5 0.9999999999999999
    vertex 6.499999999999999 8.88268343236509 0.07612046748871361
    vertex 6.499999999999999 8.5 1.9999999999999998
  endloop
endfacet
facet normal 1.0 0.0 0.0
  outer loop
    vertex 6.499999999999999 8.5 1.9999999999999998
    vertex 6.499999999999999 8.88268343236509 0.07612046748871361
    vertex 6.499999999999999 9.5 1.9999999999999998
  endloop
endfacet
facet normal 1.0 0.0 0.0
  outer loop
    vertex 6.499999999999999 9.5 1.9999999999999998
    vertex 6.499999999999999 8.88268343236509 0.07612046748871361
    vertex 6.499999999999999 9.207106781186548 0.29289321881345265
  endloop
endfacet
facet normal 1.0 0.0 0.0
  outer loop
    vertex 6.499999999999999 9.5 1.9999999999999998
    vertex 6.499999999999999 9.207106781186548 0.29289321881345265
    vertex 6.499999999999999 9.423879532511286 0.6173165676349103
  endloop
endfacet
facet normal 1.0 0.0 0.0
  outer loop
    vertex 6.499999999999999 9.5 1.9999999999999998
    vertex 6.499999999999999 9.423879532511286 0.6173165676349103
    vertex 6.499999999999999 9.5 0.9999999999999999
  endloop
endfacet
facet normal 1.0 0.0 0.0
  outer loop
    vertex 6.499999999999999 -0.9999999999999998 0.9999999999999992
    vertex 6.499999999999999 0.0 1.9999999999999984
    vertex 6.499999999999999 -0.9999999999999999 1.9999999999999984
  endloop
endfacet
facet normal 1.0 0.0 0.0
  outer loop
    vertex 6.499999999999999 0.0 1.9999999999999984
    vertex 6.499999999999999 -0.9999999999999998 0.9999999999999992
    vertex 6.499999999999999 -0.9238795325112863 0.6173165676349097
  endloop
endfacet
facet normal 1.0 0.0 0.0
  outer loop
    vertex 6.499999999999999 0.0 1.9999999999999984
    vertex 6.499999999999999 -0.9238795325112863 0.6173165676349097
    vertex 6.499999999999999 -0.7071067811865471 0.2928932188134522
  endloop
endfacet
facet normal 1.0 0.0 0.0
  outer loop
    vertex 6.499999999999999 0.0 1.9999999999999984
    vertex 6.499999999999999 -0.7071067811865471 0.2928932188134522
    vertex 6.499999999999999 -0.3826834323650895 0.07612046748871308
  endloop
endfacet
facet normal 1.0 0.0 0.0
  outer loop
    vertex 6.499999999999999 0.0 1.9999999999999984
    vertex 6.499999999999999 -0.3826834323650895 0.07612046748871308
    vertex 6.499999999999999 -2.2374534095486894e-17 0.0
  endloop
endfacet
facet normal 1.0 0.0 0.0
  outer loop
    vertex 6.499999999999999 0.0 1.9999999999999984
    vertex 6.499999999999999 -2.2374534095486894e-17 0.0
    vertex 6.499999999999999 0.0 0.9999999999999999
  endloop
endfacet
facet normal 0.0 0.5555702330196012 -0.831469612302546
  outer loop
    vertex 6.499999999999999 9.207106781186548 0.29289321881345265
    vertex 3.0 8.88268343236509 0.07612046748871361
    vertex 3.0 9.207106781186548 0.29289321881345265
  endloop
endfacet
facet normal 0.0 0.5555702330196012 -0.831469612302546
  outer loop
    vertex 3.0 8.88268343236509 0.07612046748871361
    vertex 6.499999999999999 9.207106781186548 0.29289321881345265
    vertex 6.499999999999999 8.88268343236509 0.07612046748871361
  endloop
endfacet
facet normal 0.0 -1.0 -1.7624790515924374e-16
  outer loop
    vertex 6.499999999999999 -0.9999999999999999 1.9999999999999984
    vertex 3.0 -0.9999999999999998 0.9999999999999992
    vertex 6.499999999999999 -0.9999999999999998 0.9999999999999992
  endloop
endfacet
facet normal 0.0 -1.0 -1.7624790515924374e-16
  outer loop
    vertex 3.0 -0.9999999999999998 0.9999999999999992
    vertex 6.499999999999999 -0.9999999999999999 1.9999999999999984
    vertex 3.0 -0.9999999999999999 1.9999999999999984
  endloop
endfacet
facet normal 0.0 -0.9807852804032304 -0.19509032201612886
  outer loop
    vertex 6.499999999999999 -0.9999999999999998 0.9999999999999992
    vertex 3.0 -0.9238795325112863 0.6173165676349097
    vertex 6.499999999999999 -0.9238795325112863 0.6173165676349097
  endloop
endfacet
facet normal 0.0 -0.9807852804032304 -0.19509032201612886
  outer loop
    vertex 3.0 -0.9238795325112863 0.6173165676349097
    vertex 6.499999999999999 -0.9999999999999998 0.9999999999999992
    vertex 3.0 -0.9999999999999998 0.9999999999999992
  endloop
endfacet
facet normal 0.0 -0.831469612302545 -0.5555702330196024
  outer loop
    vertex 6.499999999999999 -0.9238795325112863 0.6173165676349097
    vertex 3.0 -0.7071067811865471 0.2928932188134522
    vertex 6.499999999999999 -0.7071067811865471 0.2928932188134522
  endloop
endfacet
facet normal 0.0 -0.831469612302545 -0.5555702330196024
  outer loop
    vertex 3.0 -0.7071067811865471 0.2928932188134522
    vertex 6.499999999999999 -0.9238795325112863 0.6173165676349097
    vertex 3.0 -0.9238795325112863 0.6173165676349097
  endloop
endfacet
facet normal 0.0 0.8314696123025468 -0.5555702330196001
  outer loop
    vertex 3.0 9.423879532511286 0.6173165676349103
    vertex 6.499999999999999 9.207106781186548 0.29289321881345265
    vertex 3.0 9.207106781186548 0.29289321881345265
  endloop
endfacet
facet normal 0.0 0.8314696123025468 -0.5555702330196001
  outer loop
    vertex 6.499999999999999 9.207106781186548 0.29289321881345265
    vertex 3.0 9.423879532511286 0.6173165676349103
    vertex 6.499999999999999 9.423879532511286 0.6173165676349103
  endloop
endfacet
facet normal 0.0 -0.5555702330196022 -0.8314696123025452
  outer loop
    vertex 6.499999999999999 -0.3826834323650895 0.07612046748871308
    vertex 3.0 -0.7071067811865471 0.2928932188134522
    vertex 3.0 -0.3826834323650895 0.07612046748871308
  endloop
endfacet
facet normal 0.0 -0.5555702330196022 -0.8314696123025452
  outer loop
    vertex 3.0 -0.7071067811865471 0.2928932188134522
    vertex 6.499999999999999 -0.3826834323650895 0.07612046748871308
    vertex 6.499999999999999 -0.7071067811865471 0.2928932188134522
  endloop
endfacet
facet normal 0.0 1.0 0.0
  outer loop
    vertex 3.0 9.5 1.9999999999999998
    vertex 6.499999999999999 9.5 0.9999999999999999
    vertex 3.0 9.5 0.9999999999999999
  endloop
endfacet
facet normal 0.0 1.0 0.0
  outer loop
    vertex 6.499999999999999 9.5 0.9999999999999999
    vertex 3.0 9.5 1.9999999999999998
    vertex 6.499999999999999 9.5 1.9999999999999998
  endloop
endfacet
facet normal -0.0 0.0 1.0
  outer loop
    vertex 6.499999999999999 -0.9999999999999999 1.9999999999999984
    vertex 3.0 0.0 1.9999999999999984
    vertex 3.0 -0.9999999999999999 1.9999999999999984
  endloop
endfacet
facet normal -0.0 0.0 1.0
  outer loop
    vertex 3.0 0.0 1.9999999999999984
    vertex 6.499999999999999 -0.9999999999999999 1.9999999999999984
    vertex 6.499999999999999 0.0 1.9999999999999984
  endloop
endfacet
facet normal 0.0 -0.19509032201612805 -0.9807852804032305
  outer loop
    vertex 6.499999999999999 -2.2374534095486894e-17 0.0
    vertex 3.0 -0.3826834323650895 0.07612046748871308
    vertex 3.0 -2.2374534095486894e-17 0.0
  endloop
endfacet
facet normal 0.0 -0.19509032201612805 -0.9807852804032305
  outer loop
    vertex 3.0 -0.3826834323650895 0.07612046748871308
    vertex 6.499999999999999 -2.2374534095486894e-17 0.0
    vertex 6.499999999999999 -0.3826834323650895 0.07612046748871308
  endloop
endfacet
facet normal 0.0 4.147009533158673e-17 -1.0
  outer loop
    vertex 6.499999999999999 8.5 3.524958103184872e-16
    vertex 3.0 -2.2374534095486894e-17 0.0
    vertex 3.0 8.5 3.524958103184872e-16
  endloop
endfacet
facet normal 0.0 4.147009533158673e-17 -1.0
  outer loop
    vertex 3.0 -2.2374534095486894e-17 0.0
    vertex 6.499999999999999 8.5 3.524958103184872e-16
    vertex 6.499999999999999 -2.2374534095486894e-17 0.0
  endloop
endfacet
facet normal 0.0 0.9807852804032302 -0.1950903220161297
  outer loop
    vertex 3.0 9.5 0.9999999999999999
    vertex 6.499999999999999 9.423879532511286 0.6173165676349103
    vertex 3.0 9.423879532511286 0.6173165676349103
  endloop
endfacet
facet normal 0.0 0.9807852804032302 -0.1950903220161297
  outer loop
    vertex 6.499999999999999 9.423879532511286 0.6173165676349103
    vertex 3.0 9.5 0.9999999999999999
    vertex 6.499999999999999 9.5 0.9999999999999999
  endloop
endfacet
facet normal -0.0 0.0 1.0
  outer loop
    vertex 6.499999999999999 8.5 1.9999999999999998
    vertex 3.0 9.5 1.9999999999999998
    vertex 3.0 8.5 1.9999999999999998
  endloop
endfacet
facet normal -0.0 0.0 1.0
  outer loop
    vertex 3.0 9.5 1.9999999999999998
    vertex 6.499999999999999 8.5 1.9999999999999998
    vertex 6.499999999999999 9.5 1.9999999999999998
  endloop
endfacet
facet normal -0.0 0.0 1.0
  outer loop
    vertex 9.5 8.5 1.9999999999999998
    vertex 6.499999999999999 9.5 1.9999999999999998
    vertex 6.499999999999999 8.5 1.9999999999999998
  endloop
endfacet
facet normal -0.0 0.0 1.0
  outer loop
    vertex 6.499999999999999 9.5 1.9999999999999998
    vertex 9.5 8.5 1.9999999999999998
    vertex 6.499999999999999 10.999999999999995 1.9999999999999998
  endloop
endfacet
facet normal -0.0 0.0 1.0
  outer loop
    vertex 6.499999999999999 10.999999999999995 1.9999999999999998
    vertex 9.5 8.5 1.9999999999999998
    vertex 9.5 10.999999999999995 1.9999999999999998
  endloop
endfacet
facet normal 1.0 0.0 0.0
  outer loop
    vertex 9.5 3.98306089018932e-17 -1.5
    vertex 9.5 0.0 0.9999999999999999
    vertex 9.5 -2.2374534095486894e-17 0.0
  endloop
endfacet
facet normal 1.0 0.0 0.0
  outer loop
    vertex 9.5 0.0 0.9999999999999999
    vertex 9.5 3.98306089018932e-17 -1.5
    vertex 9.5 8.5 0.9999999999999999
  endloop
endfacet
facet normal 1.0 0.0 0.0
  outer loop
    vertex 9.5 8.5 0.9999999999999999
    vertex 9.5 3.98306089018932e-17 -1.5
    vertex 9.5 8.5 -1.4999999999999998
  endloop
endfacet
facet normal 1.0 0.0 0.0
  outer loop
    vertex 9.5 8.5 0.9999999999999999
    vertex 9.5 8.5 -1.4999999999999998
    vertex 9.5 8.5 3.524958103184872e-16
  endloop
endfacet
facet normal 1.0 0.0 0.0
  outer loop
    vertex 9.5 8.5 0.9999999999999999
    vertex 9.5 8.5 3.524958103184872e-16
    vertex 9.5 8.88268343236509 0.07612046748871361
  endloop
endfacet
facet normal 1.0 0.0 0.0
  outer loop
    vertex 9.5 8.5 0.9999999999999999
    vertex 9.5 8.88268343236509 0.07612046748871361
    vertex 9.5 8.5 1.9999999999999998
  endloop
endfacet
facet normal 1.0 0.0 0.0
  outer loop
    vertex 9.5 8.5 1.9999999999999998
    vertex 9.5 8.88268343236509 0.07612046748871361
    vertex 9.5 9.5 0.9999999999999999
  endloop
endfacet
facet normal 1.0 0.0 0.0
  outer loop
    vertex 9.5 8.5 1.9999999999999998
    vertex 9.5 9.5 0.9999999999999999
    vertex 9.5 10.999999999999995 1.9999999999999998
  endloop
endfacet
facet normal 1.0 0.0 0.0
  outer loop
    vertex 9.5 9.5 0.9999999999999999
    vertex 9.5 8.88268343236509 0.07612046748871361
    vertex 9.5 9.207106781186548 0.29289321881345265
  endloop
endfacet
facet normal 1.0 0.0 0.0
  outer loop
    vertex 9.5 9.5 0.9999999999999999
    vertex 9.5 9.207106781186548 0.29289321881345265
    vertex 9.5 9.423879532511286 0.6173165676349103
  endloop
endfacet
facet normal 1.0 0.0 0.0
  outer loop
    vertex 9.5 10.999999999999995 1.9999999999999998
    vertex 9.5 9.5 0.9999999999999999
    vertex 9.5 10.999999999999995 0.9999999999999999
  endloop
endfacet
facet normal 1.0 0.0 0.0
  outer loop
    vertex 9.5 -2.4999999999999996 0.9999999999999989
    vertex 9.5 0.0 1.9999999999999984
    vertex 9.5 -2.5 1.999999999999998
  endloop
endfacet
facet normal 1.0 0.0 0.0
  outer loop
    vertex 9.5 0.0 1.9999999999999984
    vertex 9.5 -2.4999999999999996 0.9999999999999989
    vertex 9.5 -0.9999999999999998 0.9999999999999992
  endloop
endfacet
facet normal 1.0 0.0 0.0
  outer loop
    vertex 9.5 0.0 1.9999999999999984
    vertex 9.5 -0.9999999999999998 0.9999999999999992
    vertex 9.5 -0.9238795325112863 0.6173165676349097
  endloop
endfacet
facet normal 1.0 0.0 0.0
  outer loop
    vertex 9.5 0.0 1.9999999999999984
    vertex 9.5 -0.9238795325112863 0.6173165676349097
    vertex 9.5 -0.7071067811865471 0.2928932188134522
  endloop
endfacet
facet normal 1.0 0.0 0.0
  outer loop
    vertex 9.5 0.0 1.9999999999999984
    vertex 9.5 -0.7071067811865471 0.2928932188134522
    vertex 9.5 -0.3826834323650895 0.07612046748871308
  endloop
endfacet
facet normal 1.0 0.0 0.0
  outer loop
    vertex 9.5 0.0 1.9999999999999984
    vertex 9.5 -0.3826834323650895 0.07612046748871308
    vertex 9.5 -2.2374534095486894e-17 0.0
  endloop
endfacet
facet normal 1.0 0.0 0.0
  outer loop
    vertex 9.5 0.0 1.9999999999999984
    vertex 9.5 -2.2374534095486894e-17 0.0
    vertex 9.5 0.0 0.9999999999999999
  endloop
endfacet
facet normal -0.0 0.0 1.0
  outer loop
    vertex 9.5 -2.5 1.999999999999998
    vertex 6.499999999999999 -0.9999999999999999 1.9999999999999984
    vertex 6.499999999999999 -2.5 1.999999999999998
  endloop
endfacet
facet normal -0.0 0.0 1.0
  outer loop
    vertex 6.499999999999999 -0.9999999999999999 1.9999999999999984
    vertex 9.5 -2.5 1.999999999999998
    vertex 6.499999999999999 0.0 1.9999999999999984
  endloop
endfacet
facet normal -0.0 0.0 1.0
  outer loop
    vertex 6.499999999999999 0.0 1.9999999999999984
    vertex 9.5 -2.5 1.999999999999998
    vertex 9.5 0.0 1.9999999999999984
  endloop
endfacet
facet normal 1.0 0.0 0.0
  outer loop
    vertex 3.0 8.5 3.524958103184872e-16
    vertex 3.0 0.0 0.9999999999999999
    vertex 3.0 -2.2374534095486894e-17 0.0
  endloop
endfacet
facet normal 1.0 0.0 0.0
  outer loop
    vertex 3.0 0.0 0.9999999999999999
    vertex 3.0 8.5 3.524958103184872e-16
    vertex 3.0 8.5 0.9999999999999999
  endloop
endfacet
facet normal 1.0 0.0 0.0
  outer loop
    vertex 3.0 8.5 0.9999999999999999
    vertex 3.0 8.5 3.524958103184872e-16
    vertex 3.0 8.88268343236509 0.07612046748871361
  endloop
endfacet
facet normal 1.0 0.0 0.0
  outer loop
    vertex 3.0 8.5 0.9999999999999999
    vertex 3.0 8.88268343236509 0.07612046748871361
    vertex 3.0 8.5 1.9999999999999998
  endloop
endfacet
facet normal 1.0 0.0 0.0
  outer loop
    vertex 3.0 8.5 1.9999999999999998
    vertex 3.0 8.88268343236509 0.07612046748871361
    vertex 3.0 9.5 1.9999999999999998
  endloop
endfacet
facet normal 1.0 0.0 0.0
  outer loop
    vertex 3.0 9.5 1.9999999999999998
    vertex 3.0 8.88268343236509 0.07612046748871361
    vertex 3.0 9.207106781186548 0.29289321881345265
  endloop
endfacet
facet normal 1.0 0.0 0.0
  outer loop
    vertex 3.0 9.5 1.9999999999999998
    vertex 3.0 9.207106781186548 0.29289321881345265
    vertex 3.0 9.423879532511286 0.6173165676349103
  endloop
endfacet
facet normal 1.0 0.0 0.0
  outer loop
    vertex 3.0 9.5 1.9999999999999998
    vertex 3.0 9.423879532511286 0.6173165676349103
    vertex 3.0 9.5 0.9999999999999999
  endloop
endfacet
facet normal 1.0 0.0 0.0
  outer loop
    vertex 3.0 -0.9999999999999998 0.9999999999999992
    vertex 3.0 0.0 1.9999999999999984
    vertex 3.0 -0.9999999999999999 1.9999999999999984
  endloop
endfacet
facet normal 1.0 0.0 0.0
  outer loop
    vertex 3.0 0.0 1.9999999999999984
    vertex 3.0 -0.9999999999999998 0.9999999999999992
    vertex 3.0 -0.9238795325112863 0.6173165676349097
  endloop
endfacet
facet normal 1.0 0.0 0.0
  outer loop
    vertex 3.0 0.0 1.9999999999999984
    vertex 3.0 -0.9238795325112863 0.6173165676349097
    vertex 3.0 -0.7071067811865471 0.2928932188134522
  endloop
endfacet
facet normal 1.0 0.0 0.0
  outer loop
    vertex 3.0 0.0 1.9999999999999984
    vertex 3.0 -0.7071067811865471 0.2928932188134522
    vertex 3.0 -0.3826834323650895 0.07612046748871308
  endloop
endfacet
facet normal 1.0 0.0 0.0
  outer loop
    vertex 3.0 0.0 1.9999999999999984
    vertex 3.0 -0.3826834323650895 0.07612046748871308
    vertex 3.0 -2.2374534095486894e-17 0.0
  endloop
endfacet
facet normal 1.0 0.0 0.0
  outer loop
    vertex 3.0 0.0 1.9999999999999984
    vertex 3.0 -2.2374534095486894e-17 0.0
    vertex 3.0 0.0 0.9999999999999999
  endloop
endfacet
facet normal -0.9996788993204891 -0.017917843806881616 -0.017917843806881627
  outer loop
    vertex 0.0 0.0 0.9999999999999999
    vertex 0.024254999999999652 -0.9238795325112863 0.6173165676349097
    vertex 0.024254999999999652 -0.9999999999999998 0.9999999999999992
  endloop
endfacet
facet normal -0.9996788993204891 -0.017917843806881616 -0.017917843806881627
  outer loop
    vertex 0.024254999999999652 -0.9238795325112863 0.6173165676349097
    vertex 0.0 0.0 0.9999999999999999
    vertex 0.024254999999999652 -0.7071067811865471 0.2928932188134522
  endloop
endfacet
facet normal -0.9996788993204891 -0.017917843806881616 -0.017917843806881627
  outer loop
    vertex 0.024254999999999652 -0.7071067811865471 0.2928932188134522
    vertex 0.0 0.0 0.9999999999999999
    vertex 0.024254999999999652 -0.3826834323650895 0.07612046748871308
  endloop
endfacet
facet normal -0.9996788993204891 -0.017917843806881616 -0.017917843806881627
  outer loop
    vertex 0.024254999999999652 -0.3826834323650895 0.07612046748871308
    vertex 0.0 0.0 0.9999999999999999
    vertex 0.024254999999999652 -2.2374534095486894e-17 0.0
  endloop
endfacet
facet normal -0.9999254523799622 -0.0014266583439690721 -0.012126595923738529
  outer loop
    vertex 0.0 0.0 0.9999999999999999
    vertex 1.4099832412739487e-15 8.5 3.524958103184872e-16
    vertex 0.024254999999999652 -2.2374534095486894e-17 0.0
  endloop
endfacet
facet normal -0.9999254523799622 -0.0014266583439690721 -0.012126595923738529
  outer loop
    vertex 1.4099832412739487e-15 8.5 3.524958103184872e-16
    vertex 0.0 0.0 0.9999999999999999
    vertex 0.0 8.5 0.9999999999999999
  endloop
endfacet
facet normal -1.0 6.43897032454352e-16 -8.120780551634184e-16
  outer loop
    vertex 0.0 11.0 1.9999999999999998
    vertex 0.0 8.5 0.9999999999999999
    vertex 0.0 8.5 1.9999999999999998
  endloop
endfacet
facet normal -1.0 6.43897032454352e-16 -8.120780551634184e-16
  outer loop
    vertex 0.0 8.5 0.9999999999999999
    vertex 0.0 11.0 1.9999999999999998
    vertex 1.4099832412739487e-15 9.5 0.9999999999999999
  endloop
endfacet
facet normal -1.0 6.43897032454352e-16 -8.120780551634184e-16
  outer loop
    vertex 0.0 8.5 0.9999999999999999
    vertex 1.4099832412739487e-15 9.5 0.9999999999999999
    vertex 1.4099832412739487e-15 8.5 3.524958103184872e-16
  endloop
endfacet
facet normal -1.0 6.43897032454352e-16 -8.120780551634184e-16
  outer loop
    vertex 1.4099832412739487e-15 8.5 3.524958103184872e-16
    vertex 1.4099832412739487e-15 9.5 0.9999999999999999
    vertex 1.4099832412739487e-15 8.88268343236509 0.07612046748871361
  endloop
endfacet
facet normal -1.0 6.43897032454352e-16 -8.120780551634184e-16
  outer loop
    vertex 1.4099832412739487e-15 8.88268343236509 0.07612046748871361
    vertex 1.4099832412739487e-15 9.5 0.9999999999999999
    vertex 1.4099832412739487e-15 9.207106781186548 0.29289321881345265
  endloop
endfacet
facet normal -1.0 6.43897032454352e-16 -8.120780551634184e-16
  outer loop
    vertex 1.4099832412739487e-15 9.207106781186548 0.29289321881345265
    vertex 1.4099832412739487e-15 9.5 0.9999999999999999
    vertex 1.4099832412739487e-15 9.423879532511286 0.6173165676349103
  endloop
endfacet
facet normal -1.0 6.43897032454352e-16 -8.120780551634184e-16
  outer loop
    vertex 1.4099832412739487e-15 9.5 0.9999999999999999
    vertex 0.0 11.0 1.9999999999999998
    vertex 1.4099832412739487e-15 11.0 0.9999999999999999
  endloop
endfacet
facet normal -0.9996788993204891 -0.017917843806881616 -0.017917843806881627
  outer loop
    vertex 0.0 0.0 0.9999999999999999
    vertex 0.024254999999999652 -0.9238795325112863 0.6173165676349097
    vertex 0.024254999999999652 -0.9999999999999998 0.9999999999999992
  endloop
endfacet
facet normal -0.9996788993204891 -0.017917843806881616 -0.017917843806881627
  outer loop
    vertex 0.024254999999999652 -0.9238795325112863 0.6173165676349097
    vertex 0.0 0.0 0.9999999999999999
    vertex 0.024254999999999652 -0.7071067811865471 0.2928932188134522
  endloop
endfacet
facet normal -0.9996788993204891 -0.017917843806881616 -0.017917843806881627
  outer loop
    vertex 0.024254999999999652 -0.7071067811865471 0.2928932188134522
    vertex 0.0 0.0 0.9999999999999999
    vertex 0.024254999999999652 -0.3826834323650895 0.07612046748871308
  endloop
endfacet
facet normal -0.9996788993204891 -0.017917843806881616 -0.017917843806881627
  outer loop
    vertex 0.024254999999999652 -0.3826834323650895 0.07612046748871308
    vertex 0.0 0.0 0.9999999999999999
    vertex 0.024254999999999652 -2.2374534095486894e-17 0.0
  endloop
endfacet
facet normal -0.9999254523799622 -0.0014266583439690721 -0.012126595923738529
  outer loop
    vertex 0.0 0.0 0.9999999999999999
    vertex 1.4099832412739487e-15 8.5 3.524958103184872e-16
    vertex 0.024254999999999652 -2.2374534095486894e-17 0.0
  endloop
endfacet
facet normal -0.9999254523799622 -0.0014266583439690721 -0.012126595923738529
  outer loop
    vertex 1.4099832412739487e-15 8.5 3.524958103184872e-16
    vertex 0.0 0.0 0.9999999999999999
    vertex 0.0 8.5 0.9999999999999999
  endloop
endfacet
facet normal -0.9998529561829361 -0.012125716726108385 -0.012125716726108406
  outer loop
    vertex 0.0 0.0 1.9999999999999984
    vertex 0.024254999999999652 -0.9999999999999998 0.9999999999999992
    vertex 0.0 -0.9999999999999999 1.9999999999999984
  endloop
endfacet
facet normal -0.9998529561829361 -0.012125716726108385 -0.012125716726108406
  outer loop
    vertex 0.024254999999999652 -0.9999999999999998 0.9999999999999992
    vertex 0.0 0.0 1.9999999999999984
    vertex 0.0 0.0 0.9999999999999999
  endloop
endfacet
facet normal 0.0 0.0 1.0
  outer loop
    vertex 3.0 8.5 1.9999999999999998
    vertex 0.0 11.0 1.9999999999999998
    vertex 0.0 8.5 1.9999999999999998
  endloop
endfacet
facet normal 0.0 0.0 1.0
  outer loop
    vertex 0.0 11.0 1.9999999999999998
    vertex 3.0 8.5 1.9999999999999998
    vertex 3.0 11.0 1.9999999999999998
  endloop
endfacet
facet normal 0.0 0.0 1.0
  outer loop
    vertex 3.0 11.0 1.9999999999999998
    vertex 3.0 8.5 1.9999999999999998
    vertex 3.0 9.5 1.9999999999999998
  endloop
endfacet
facet normal -0.0 -0.0 1.0
  outer loop
    vertex 5.531140488614862e-34 -2.499999999999999 1.999999999999998
    vertex 0.0 0.0 1.9999999999999984
    vertex 0.0 -0.9999999999999999 1.9999999999999984
  endloop
endfacet
facet normal -0.0 -0.0 1.0
  outer loop
    vertex 0.0 0.0 1.9999999999999984
    vertex 5.531140488614862e-34 -2.499999999999999 1.999999999999998
    vertex 3.0 0.0 1.9999999999999984
  endloop
endfacet
facet normal -0.0 -0.0 1.0
  outer loop
    vertex 3.0 0.0 1.9999999999999984
    vertex 5.531140488614862e-34 -2.499999999999999 1.999999999999998
    vertex 3.0 -2.499999999999999 1.999999999999998
  endloop
endfacet
facet normal -0.0 -0.0 1.0
  outer loop
    vertex 3.0 0.0 1.9999999999999984
    vertex 3.0 -2.499999999999999 1.999999999999998
    vertex 3.0 -0.9999999999999999 1.9999999999999984
  endloop
endfacet
facet normal 0.0 4.147009533158673e-17 -1.0
  outer loop
    vertex 9.5 8.5 -1.4999999999999998
    vertex 6.499999999999999 3.98306089018932e-17 -1.5
    vertex 6.499999999999999 8.5 -1.4999999999999998
  endloop
endfacet
facet normal 0.0 4.147009533158673e-17 -1.0
  outer loop
    vertex 6.499999999999999 3.98306089018932e-17 -1.5
    vertex 9.5 8.5 -1.4999999999999998
    vertex 9.5 3.98306089018932e-17 -1.5
  endloop
endfacet
facet normal -1.0 0.0 0.0
  outer loop
    vertex 6.499999999999999 8.5 3.524958103184872e-16
    vertex 6.499999999999999 3.98306089018932e-17 -1.5
    vertex 6.499999999999999 -2.2374534095486894e-17 0.0
  endloop
endfacet
facet normal -1.0 0.0 0.0
  outer loop
    vertex 6.499999999999999 3.98306089018932e-17 -1.5
    vertex 6.499999999999999 8.5 3.524958103184872e-16
    vertex 6.499999999999999 8.5 -1.4999999999999998
  endloop
endfacet
facet normal -0.0 1.0 4.147009533158673e-17
  outer loop
    vertex 6.499999999999999 8.5 3.524958103184872e-16
    vertex 9.5 8.5 -1.4999999999999998
    vertex 6.499999999999999 8.5 -1.4999999999999998
  endloop
endfacet
facet normal -0.0 1.0 4.147009533158673e-17
  outer loop
    vertex 9.5 8.5 -1.4999999999999998
    vertex 6.499999999999999 8.5 3.524958103184872e-16
    vertex 9.5 8.5 3.524958103184872e-16
  endloop
endfacet
facet normal -0.0 -1.0 -4.147009533158673e-17
  outer loop
    vertex 9.5 -2.2374534095486894e-17 0.0
    vertex 6.499999999999999 3.98306089018932e-17 -1.5
    vertex 9.5 3.98306089018932e-17 -1.5
  endloop
endfacet
facet normal -0.0 -1.0 -4.147009533158673e-17
  outer loop
    vertex 6.499999999999999 3.98306089018932e-17 -1.5
    vertex 9.5 -2.2374534095486894e-17 0.0
    vertex 6.499999999999999 -2.2374534095486894e-17 0.0
  endloop
endfacet
facet normal 8.492565419197348e-34 4.147009533158673e-17 -1.0
  outer loop
    vertex 3.0 8.5 -1.5000000000000009
    vertex 0.024254999999999652 3.983060890189325e-17 -1.5000000000000013
    vertex 1.4099832412739487e-15 8.5 -1.5000000000000009
  endloop
endfacet
facet normal 8.492565419197348e-34 4.147009533158673e-17 -1.0
  outer loop
    vertex 0.024254999999999652 3.983060890189325e-17 -1.5000000000000013
    vertex 3.0 8.5 -1.5000000000000009
    vertex 3.0 3.983060890189325e-17 -1.5000000000000013
  endloop
endfacet
facet normal -0.0 -1.0 -4.147009533158673e-17
  outer loop
    vertex 3.0 -2.2374534095486894e-17 0.0
    vertex 0.024254999999999652 3.983060890189325e-17 -1.5000000000000013
    vertex 3.0 3.983060890189325e-17 -1.5000000000000013
  endloop
endfacet
facet normal -0.0 -1.0 -4.147009533158673e-17
  outer loop
    vertex 0.024254999999999652 3.983060890189325e-17 -1.5000000000000013
    vertex 3.0 -2.2374534095486894e-17 0.0
    vertex 0.024254999999999652 -2.2374534095486894e-17 0.0
  endloop
endfacet
facet normal -0.9999959287098114 -0.0028535177942182023 -1.1833565495660877e-19
  outer loop
    vertex 1.4099832412739487e-15 8.5 3.524958103184872e-16
    vertex 0.024254999999999652 3.983060890189325e-17 -1.5000000000000013
    vertex 0.024254999999999652 -2.2374534095486894e-17 0.0
  endloop
endfacet
facet normal -0.9999959287098114 -0.0028535177942182023 -1.1833565495660877e-19
  outer loop
    vertex 0.024254999999999652 3.983060890189325e-17 -1.5000000000000013
    vertex 1.4099832412739487e-15 8.5 3.524958103184872e-16
    vertex 1.4099832412739487e-15 8.5 -1.5000000000000009
  endloop
endfacet
facet normal -0.0 1.0 4.147009533158673e-17
  outer loop
    vertex 1.4099832412739487e-15 8.5 3.524958103184872e-16
    vertex 3.0 8.5 -1.5000000000000009
    vertex 1.4099832412739487e-15 8.5 -1.5000000000000009
  endloop
endfacet
facet normal -0.0 1.0 4.147009533158673e-17
  outer loop
    vertex 3.0 8.5 -1.5000000000000009
    vertex 1.4099832412739487e-15 8.5 3.524958103184872e-16
    vertex 3.0 8.5 3.524958103184872e-16
  endloop
endfacet
facet normal 1.0 -3.5218749754385086e-50 8.492565419197348e-34
  outer loop
    vertex 3.0 3.983060890189325e-17 -1.5000000000000013
    vertex 3.0 8.5 3.524958103184872e-16
    vertex 3.0 -2.2374534095486894e-17 0.0
  endloop
endfacet
facet normal 1.0 -3.5218749754385086e-50 8.492565419197348e-34
  outer loop
    vertex 3.0 8.5 3.524958103184872e-16
    vertex 3.0 3.983060890189325e-17 -1.5000000000000013
    vertex 3.0 8.5 -1.5000000000000009
  endloop
endfacet
facet normal 0.0 1.0 0.0
  outer loop
    vertex 0.0 11.0 1.9999999999999998
    vertex 3.0 11.0 0.9999999999999999
    vertex 1.4099832412739487e-15 11.0 0.9999999999999999
  endloop
endfacet
facet normal 0.0 1.0 0.0
  outer loop
    vertex 3.0 11.0 0.9999999999999999
    vertex 0.0 11.0 1.9999999999999998
    vertex 3.0 11.0 1.9999999999999998
  endloop
endfacet
facet normal -0.0 -0.0 -1.0
  outer loop
    vertex 3.0 11.0 0.9999999999999999
    vertex 1.4099832412739487e-15 9.5 0.9999999999999999
    vertex 1.4099832412739487e-15 11.0 0.9999999999999999
  endloop
endfacet
facet normal -0.0 -0.0 -1.0
  outer loop
    vertex 1.4099832412739487e-15 9.5 0.9999999999999999
    vertex 3.0 11.0 0.9999999999999999
    vertex 3.0 9.5 0.9999999999999999
  endloop
endfacet
facet normal 1.0 0.0 0.0
  outer loop
    vertex 3.0 11.0 0.9999999999999999
    vertex 3.0 9.5 1.9999999999999998
    vertex 3.0 9.5 0.9999999999999999
  endloop
endfacet
facet normal 1.0 0.0 0.0
  outer loop
    vertex 3.0 9.5 1.9999999999999998
    vertex 3.0 11.0 0.9999999999999999
    vertex 3.0 11.0 1.9999999999999998
  endloop
endfacet
facet normal 0.0 1.0 0.0
  outer loop
    vertex 6.499999999999999 10.999999999999995 1.9999999999999998
    vertex 9.5 10.999999999999995 0.9999999999999999
    vertex 6.499999999999999 10.999999999999995 0.9999999999999999
  endloop
endfacet
facet normal 0.0 1.0 0.0
  outer loop
    vertex 9.5 10.999999999999995 0.9999999999999999
    vertex 6.499999999999999 10.999999999999995 1.9999999999999998
    vertex 9.5 10.999999999999995 1.9999999999999998
  endloop
endfacet
facet normal -1.0 0.0 0.0
  outer loop
    vertex 6.499999999999999 10.999999999999995 1.9999999999999998
    vertex 6.499999999999999 9.5 0.9999999999999999
    vertex 6.499999999999999 9.5 1.9999999999999998
  endloop
endfacet
facet normal -1.0 0.0 0.0
  outer loop
    vertex 6.499999999999999 9.5 0.9999999999999999
    vertex 6.499999999999999 10.999999999999995 1.9999999999999998
    vertex 6.499999999999999 10.999999999999995 0.9999999999999999
  endloop
endfacet
facet normal 0.0 0.0 -1.0
  outer loop
    vertex 9.5 10.999999999999995 0.9999999999999999
    vertex 6.499999999999999 9.5 0.9999999999999999
    vertex 6.499999999999999 10.999999999999995 0.9999999999999999
  endloop
endfacet
facet normal 0.0 0.0 -1.0
  outer loop
    vertex 6.499999999999999 9.5 0.9999999999999999
    vertex 9.5 10.999999999999995 0.9999999999999999
    vertex 9.5 9.5 0.9999999999999999
  endloop
endfacet
facet normal 0.0 -1.0 -1.7624790515924374e-16
  outer loop
    vertex 9.5 -2.5 1.999999999999998
    vertex 6.499999999999999 -2.4999999999999996 0.9999999999999989
    vertex 9.5 -2.4999999999999996 0.9999999999999989
  endloop
endfacet
facet normal 0.0 -1.0 -1.7624790515924374e-16
  outer loop
    vertex 6.499999999999999 -2.4999999999999996 0.9999999999999989
    vertex 9.5 -2.5 1.999999999999998
    vertex 6.499999999999999 -2.5 1.999999999999998
  endloop
endfacet
facet normal -1.0 0.0 -0.0
  outer loop
    vertex 6.499999999999999 -0.9999999999999999 1.9999999999999984
    vertex 6.499999999999999 -2.4999999999999996 0.9999999999999989
    vertex 6.499999999999999 -2.5 1.999999999999998
  endloop
endfacet
facet normal -1.0 0.0 -0.0
  outer loop
    vertex 6.499999999999999 -2.4999999999999996 0.9999999999999989
    vertex 6.499999999999999 -0.9999999999999999 1.9999999999999984
    vertex 6.499999999999999 -0.9999999999999998 0.9999999999999992
  endloop
endfacet
facet normal 0.0 1.7624790515924376e-16 -1.0
  outer loop
    vertex 9.5 -0.9999999999999998 0.9999999999999992
    vertex 6.499999999999999 -2.4999999999999996 0.9999999999999989
    vertex 6.499999999999999 -0.9999999999999998 0.9999999999999992
  endloop
endfacet
facet normal 0.0 1.7624790515924376e-16 -1.0
  outer loop
    vertex 6.499999999999999 -2.4999999999999996 0.9999999999999989
    vertex 9.5 -0.9999999999999998 0.9999999999999992
    vertex 9.5 -2.4999999999999996 0.9999999999999989
  endloop
endfacet
facet normal 3.6874269924099106e-34 -1.0 -1.762479051592437e-16
  outer loop
    vertex 3.0 -2.499999999999999 1.999999999999998
    vertex 0.024254999999999652 -2.4999999999999987 0.9999999999999987
    vertex 3.0 -2.4999999999999987 0.9999999999999987
  endloop
endfacet
facet normal 3.6874269924099106e-34 -1.0 -1.762479051592437e-16
  outer loop
    vertex 0.024254999999999652 -2.4999999999999987 0.9999999999999987
    vertex 3.0 -2.499999999999999 1.999999999999998
    vertex 5.531140488614862e-34 -2.499999999999999 1.999999999999998
  endloop
endfacet
facet normal -0.9997059772124542 4.2736360236988255e-18 -0.02424786847728775
  outer loop
    vertex 0.0 -0.9999999999999999 1.9999999999999984
    vertex 0.024254999999999652 -2.4999999999999987 0.9999999999999987
    vertex 5.531140488614862e-34 -2.499999999999999 1.999999999999998
  endloop
endfacet
facet normal -0.9997059772124542 4.2736360236988255e-18 -0.02424786847728775
  outer loop
    vertex 0.024254999999999652 -2.4999999999999987 0.9999999999999987
    vertex 0.0 -0.9999999999999999 1.9999999999999984
    vertex 0.024254999999999652 -0.9999999999999998 0.9999999999999992
  endloop
endfacet
facet normal 0.0 1.762479051592437e-16 -1.0
  outer loop
    vertex 3.0 -0.9999999999999998 0.9999999999999992
    vertex 0.024254999999999652 -2.4999999999999987 0.9999999999999987
    vertex 0.024254999999999652 -0.9999999999999998 0.9999999999999992
  endloop
endfacet
facet normal 0.0 1.762479051592437e-16 -1.0
  outer loop
    vertex 0.024254999999999652 -2.4999999999999987 0.9999999999999987
    vertex 3.0 -0.9999999999999998 0.9999999999999992
    vertex 3.0 -2.4999999999999987 0.9999999999999987
  endloop
endfacet
facet normal 1.0 3.687426992409911e-34 6.499012828398973e-50
  outer loop
    vertex 3.0 -2.4999999999999987 0.9999999999999987
    vertex 3.0 -0.9999999999999999 1.9999999999999984
    vertex 3.0 -2.499999999999999 1.999999999999998
  endloop
endfacet
facet normal 1.0 3.687426992409911e-34 6.499012828398973e-50
  outer loop
    vertex 3.0 -0.9999999999999999 1.9999999999999984
    vertex 3.0 -2.4999999999999987 0.9999999999999987
    vertex 3.0 -0.9999999999999998 0.9999999999999992
  endloop
endfacet
endsolid cable
