solid case
facet normal -0.0 -0.0 1.0
  outer loop
    vertex 20.000000000000007 -0.20000000000000004 1.5
    vertex -5.0 20.2 1.5
    vertex -5.0 -0.20000000000000004 1.5
  endloop
endfacet
facet normal -0.0 -0.0 1.0
  outer loop
    vertex -5.0 20.2 1.5
    vertex 20.000000000000007 -0.20000000000000004 1.5
    vertex 20.000000000000007 20.2 1.5
  endloop
endfacet
facet normal -0.0 -0.0 1.0
  outer loop
    vertex 20.000000000000007 20.2 1.5
    vertex 20.000000000000007 -0.20000000000000004 1.5
    vertex 20.000000000000007 3.0 1.5
  endloop
endfacet
facet normal -0.0 -0.0 1.0
  outer loop
    vertex 20.000000000000007 20.2 1.5
    vertex 20.000000000000007 3.0 1.5
    vertex 20.000000000000007 17.0 1.5
  endloop
endfacet
facet normal -1.0 0.0 0.0
  outer loop
    vertex -5.0 -1.7 12.000000000000004
    vertex -5.0 -0.20000000000000004 10.499999999999979
    vertex -5.0 -1.7 0.0
  endloop
endfacet
facet normal -1.0 0.0 0.0
  outer loop
    vertex -5.0 -0.20000000000000004 10.499999999999979
    vertex -5.0 -1.7 12.000000000000004
    vertex -5.0 5.999999999999997 12.000000000000004
  endloop
endfacet
facet normal -1.0 0.0 0.0
  outer loop
    vertex -5.0 -0.20000000000000004 10.499999999999979
    vertex -5.0 5.999999999999997 12.000000000000004
    vertex -5.0 5.999999999999997 10.499999999999979
  endloop
endfacet
facet normal -1.0 0.0 0.0
  outer loop
    vertex -5.0 21.7 12.000000000000005
    vertex -5.0 16.199999999999996 10.499999999999972
    vertex -5.0 16.19999999999999 11.999999999999979
  endloop
endfacet
facet normal -1.0 0.0 0.0
  outer loop
    vertex -5.0 16.199999999999996 10.499999999999972
    vertex -5.0 21.7 12.000000000000005
    vertex -5.0 20.2 10.499999999999998
  endloop
endfacet
facet normal -1.0 0.0 0.0
  outer loop
    vertex -5.0 20.2 10.499999999999998
    vertex -5.0 21.7 12.000000000000005
    vertex -5.0 20.2 1.5
  endloop
endfacet
facet normal -1.0 0.0 0.0
  outer loop
    vertex -5.0 -1.7 0.0
    vertex -5.0 -0.20000000000000004 1.5
    vertex -5.0 21.7 0.0
  endloop
endfacet
facet normal -1.0 0.0 0.0
  outer loop
    vertex -5.0 -0.20000000000000004 1.5
    vertex -5.0 -1.7 0.0
    vertex -5.0 -0.20000000000000004 10.499999999999979
  endloop
endfacet
facet normal -1.0 0.0 0.0
  outer loop
    vertex -5.0 21.7 0.0
    vertex -5.0 -0.20000000000000004 1.5
    vertex -5.0 20.2 1.5
  endloop
endfacet
facet normal -1.0 0.0 0.0
  outer loop
    vertex -5.0 21.7 0.0
    vertex -5.0 20.2 1.5
    vertex -5.0 21.7 12.000000000000005
  endloop
endfacet
facet normal 0.0 1.0 0.0
  outer loop
    vertex -5.0 21.7 12.000000000000005
    vertex 30.000000000000007 21.7 0.0
    vertex -5.0 21.7 0.0
  endloop
endfacet
facet normal 0.0 1.0 0.0
  outer loop
    vertex 30.000000000000007 21.7 0.0
    vertex -5.0 21.7 12.000000000000005
    vertex 30.000000000000007 21.7 1.5
  endloop
endfacet
facet normal 0.0 1.0 0.0
  outer loop
    vertex 30.000000000000007 21.7 1.5
    vertex -5.0 21.7 12.000000000000005
    vertex 20.000000000000007 21.7 5.5
  endloop
endfacet
facet normal 0.0 1.0 0.0
  outer loop
    vertex 20.000000000000007 21.7 5.5
    vertex -5.0 21.7 12.000000000000005
    vertex 20.000000000000007 21.7 12.000000000000005
  endloop
endfacet
facet normal 0.0 -1.0 0.0
  outer loop
    vertex 30.000000000000007 -1.7 1.5
    vertex -5.0 -1.7 0.0
    vertex 30.000000000000007 -1.7 0.0
  endloop
endfacet
facet normal 0.0 -1.0 0.0
  outer loop
    vertex -5.0 -1.7 0.0
    vertex 30.000000000000007 -1.7 1.5
    vertex -5.0 -1.7 12.000000000000004
  endloop
endfacet
facet normal 0.0 -1.0 0.0
  outer loop
    vertex -5.0 -1.7 12.000000000000004
    vertex 30.000000000000007 -1.7 1.5
    vertex 20.000000000000007 -1.7 5.5
  endloop
endfacet
facet normal 0.0 -1.0 0.0
  outer loop
    vertex -5.0 -1.7 12.000000000000004
    vertex 20.000000000000007 -1.7 5.5
    vertex 20.000000000000007 -1.7 12.000000000000004
  endloop
endfacet
facet normal 0.0 0.0 1.0
  outer loop
    vertex 20.000000000000007 16.19999999999999 11.999999999999979
    vertex -5.0 21.7 12.000000000000005
    vertex -5.0 16.19999999999999 11.999999999999979
  endloop
endfacet
facet normal 0.0 0.0 1.0
  outer loop
    vertex -5.0 21.7 12.000000000000005
    vertex 20.000000000000007 16.19999999999999 11.999999999999979
    vertex 20.000000000000007 21.7 12.000000000000005
  endloop
endfacet
facet normal 0.0 0.0 1.0
  outer loop
    vertex 20.000000000000007 -1.7 12.000000000000004
    vertex -5.0 5.999999999999997 12.000000000000004
    vertex -5.0 -1.7 12.000000000000004
  endloop
endfacet
facet normal 0.0 0.0 1.0
  outer loop
    vertex -5.0 5.999999999999997 12.000000000000004
    vertex 20.000000000000007 -1.7 12.000000000000004
    vertex 20.000000000000007 5.999999999999997 12.000000000000004
  endloop
endfacet
facet normal 0.0 1.0 0.0
  outer loop
    vertex -5.0 5.999999999999997 12.000000000000004
    vertex 20.000000000000007 5.999999999999997 10.499999999999979
    vertex -5.0 5.999999999999997 10.499999999999979
  endloop
endfacet
facet normal 0.0 1.0 0.0
  outer loop
    vertex 20.000000000000007 5.999999999999997 10.499999999999979
    vertex -5.0 5.999999999999997 12.000000000000004
    vertex 20.000000000000007 5.999999999999997 12.000000000000004
  endloop
endfacet
facet normal 0.0 0.0 -1.0
  outer loop
    vertex 20.000000000000007 5.999999999999997 10.499999999999979
    vertex -5.0 -0.20000000000000004 10.499999999999979
    vertex -5.0 5.999999999999997 10.499999999999979
  endloop
endfacet
facet normal 0.0 0.0 -1.0
  outer loop
    vertex -5.0 -0.20000000000000004 10.499999999999979
    vertex 20.000000000000007 5.999999999999997 10.499999999999979
    vertex 20.000000000000007 -0.20000000000000004 10.499999999999979
  endloop
endfacet
facet normal 0.0 -1.0 -3.7599553100638635e-15
  outer loop
    vertex 20.000000000000007 16.19999999999999 11.999999999999979
    vertex -5.0 16.199999999999996 10.499999999999972
    vertex 20.000000000000007 16.199999999999996 10.499999999999972
  endloop
endfacet
facet normal 0.0 -1.0 -3.7599553100638635e-15
  outer loop
    vertex -5.0 16.199999999999996 10.499999999999972
    vertex 20.000000000000007 16.19999999999999 11.999999999999979
    vertex -5.0 16.19999999999999 11.999999999999979
  endloop
endfacet
facet normal 0.0 3.7599553100638635e-15 -1.0
  outer loop
    vertex 20.000000000000007 20.2 10.499999999999998
    vertex -5.0 16.199999999999996 10.499999999999972
    vertex -5.0 20.2 10.499999999999998
  endloop
endfacet
facet normal 0.0 3.7599553100638635e-15 -1.0
  outer loop
    vertex -5.0 16.199999999999996 10.499999999999972
    vertex 20.000000000000007 20.2 10.499999999999998
    vertex 20.000000000000007 16.199999999999996 10.499999999999972
  endloop
endfacet
facet normal 0.0 0.0 -1.0
  outer loop
    vertex -5.0 21.7 0.0
    vertex 24.100000000000005 18.558845726811988 0.0
    vertex -5.0 -1.7 0.0
  endloop
endfacet
facet normal 0.0 0.0 -1.0
  outer loop
    vertex 24.100000000000005 18.558845726811988 0.0
    vertex -5.0 21.7 0.0
    vertex 30.000000000000007 21.7 0.0
  endloop
endfacet
facet normal 0.0 0.0 -1.0
  outer loop
    vertex -5.0 -1.7 0.0
    vertex 24.100000000000005 18.558845726811988 0.0
    vertex 23.72720779386422 18.272792206135783 0.0
  endloop
endfacet
facet normal 0.0 0.0 -1.0
  outer loop
    vertex -5.0 -1.7 0.0
    vertex 23.72720779386422 18.272792206135783 0.0
    vertex 23.441154273188015 17.9 0.0
  endloop
endfacet
facet normal 0.0 0.0 -1.0
  outer loop
    vertex -5.0 -1.7 0.0
    vertex 23.441154273188015 17.9 0.0
    vertex 23.26133351267968 17.465874281184536 0.0
  endloop
endfacet
facet normal 0.0 0.0 -1.0
  outer loop
    vertex -5.0 -1.7 0.0
    vertex 23.26133351267968 17.465874281184536 0.0
    vertex 23.200000000000006 17.0 0.0
  endloop
endfacet
facet normal 0.0 0.0 -1.0
  outer loop
    vertex 24.100000000000005 18.558845726811988 0.0
    vertex 30.000000000000007 21.7 0.0
    vertex 24.534125718815467 18.738666487320323 0.0
  endloop
endfacet
facet normal 0.0 0.0 -1.0
  outer loop
    vertex 24.534125718815467 18.738666487320323 0.0
    vertex 30.000000000000007 21.7 0.0
    vertex 25.000000000000004 18.8 0.0
  endloop
endfacet
facet normal 0.0 0.0 -1.0
  outer loop
    vertex 25.000000000000004 18.8 0.0
    vertex 30.000000000000007 21.7 0.0
    vertex 25.465874281184544 18.738666487320323 0.0
  endloop
endfacet
facet normal 0.0 0.0 -1.0
  outer loop
    vertex 25.465874281184544 18.738666487320323 0.0
    vertex 30.000000000000007 21.7 0.0
    vertex 25.900000000000002 18.558845726811988 0.0
  endloop
endfacet
facet normal 0.0 0.0 -1.0
  outer loop
    vertex 25.900000000000002 18.558845726811988 0.0
    vertex 30.000000000000007 21.7 0.0
    vertex 26.27279220613579 18.272792206135787 0.0
  endloop
endfacet
facet normal 0.0 0.0 -1.0
  outer loop
    vertex 26.27279220613579 18.272792206135787 0.0
    vertex 30.000000000000007 21.7 0.0
    vertex 26.55884572681199 17.900000000000002 0.0
  endloop
endfacet
facet normal 0.0 0.0 -1.0
  outer loop
    vertex 26.55884572681199 17.900000000000002 0.0
    vertex 30.000000000000007 21.7 0.0
    vertex 26.738666487320327 17.46587428118454 0.0
  endloop
endfacet
facet normal 0.0 0.0 -1.0
  outer loop
    vertex 26.738666487320327 17.46587428118454 0.0
    vertex 30.000000000000007 21.7 0.0
    vertex 26.800000000000008 17.0 0.0
  endloop
endfacet
facet normal 0.0 0.0 -1.0
  outer loop
    vertex 26.800000000000008 17.0 0.0
    vertex 30.000000000000007 21.7 0.0
    vertex 26.800000000000008 3.0 7.049916206369744e-16
  endloop
endfacet
facet normal 0.0 0.0 -1.0
  outer loop
    vertex -5.0 -1.7 0.0
    vertex 24.100000000000005 1.4411542731880107 7.049916206369744e-16
    vertex 30.000000000000007 -1.7 0.0
  endloop
endfacet
facet normal 0.0 0.0 -1.0
  outer loop
    vertex 24.100000000000005 1.4411542731880107 7.049916206369744e-16
    vertex -5.0 -1.7 0.0
    vertex 23.72720779386422 1.727207793864214 7.049916206369744e-16
  endloop
endfacet
facet normal 0.0 0.0 -1.0
  outer loop
    vertex 23.72720779386422 1.727207793864214 7.049916206369744e-16
    vertex -5.0 -1.7 0.0
    vertex 23.441154273188015 2.0999999999999996 7.049916206369744e-16
  endloop
endfacet
facet normal 0.0 0.0 -1.0
  outer loop
    vertex 23.441154273188015 2.0999999999999996 7.049916206369744e-16
    vertex -5.0 -1.7 0.0
    vertex 23.26133351267968 2.5341257188154613 7.049916206369744e-16
  endloop
endfacet
facet normal 0.0 0.0 -1.0
  outer loop
    vertex 23.26133351267968 2.5341257188154613 7.049916206369744e-16
    vertex -5.0 -1.7 0.0
    vertex 23.200000000000006 3.0 7.049916206369744e-16
  endloop
endfacet
facet normal 0.0 0.0 -1.0
  outer loop
    vertex 23.200000000000006 3.0 7.049916206369744e-16
    vertex -5.0 -1.7 0.0
    vertex 23.200000000000006 17.0 0.0
  endloop
endfacet
facet normal 0.0 0.0 -1.0
  outer loop
    vertex 30.000000000000007 -1.7 0.0
    vertex 24.100000000000005 1.4411542731880107 7.049916206369744e-16
    vertex 24.53412571881547 1.2613335126796776 7.049916206369744e-16
  endloop
endfacet
facet normal 0.0 0.0 -1.0
  outer loop
    vertex 30.000000000000007 -1.7 0.0
    vertex 24.53412571881547 1.2613335126796776 7.049916206369744e-16
    vertex 25.000000000000004 1.2000000000000006 7.049916206369744e-16
  endloop
endfacet
facet normal 0.0 0.0 -1.0
  outer loop
    vertex 30.000000000000007 -1.7 0.0
    vertex 25.000000000000004 1.2000000000000006 7.049916206369744e-16
    vertex 25.465874281184544 1.2613335126796779 7.049916206369744e-16
  endloop
endfacet
facet normal 0.0 0.0 -1.0
  outer loop
    vertex 30.000000000000007 -1.7 0.0
    vertex 25.465874281184544 1.2613335126796779 7.049916206369744e-16
    vertex 25.900000000000002 1.4411542731880111 7.049916206369744e-16
  endloop
endfacet
facet normal 0.0 0.0 -1.0
  outer loop
    vertex 30.000000000000007 -1.7 0.0
    vertex 25.900000000000002 1.4411542731880111 7.049916206369744e-16
    vertex 26.27279220613579 1.7272077938642152 7.049916206369744e-16
  endloop
endfacet
facet normal 0.0 0.0 -1.0
  outer loop
    vertex 30.000000000000007 -1.7 0.0
    vertex 26.27279220613579 1.7272077938642152 7.049916206369744e-16
    vertex 26.55884572681199 2.1000000000000005 7.049916206369744e-16
  endloop
endfacet
facet normal 0.0 0.0 -1.0
  outer loop
    vertex 30.000000000000007 -1.7 0.0
    vertex 26.55884572681199 2.1000000000000005 7.049916206369744e-16
    vertex 26.738666487320327 2.534125718815463 7.049916206369744e-16
  endloop
endfacet
facet normal 0.0 0.0 -1.0
  outer loop
    vertex 30.000000000000007 -1.7 0.0
    vertex 26.738666487320327 2.534125718815463 7.049916206369744e-16
    vertex 26.800000000000008 3.0 7.049916206369744e-16
  endloop
endfacet
facet normal 0.0 0.0 -1.0
  outer loop
    vertex 30.000000000000007 -1.7 0.0
    vertex 26.800000000000008 3.0 7.049916206369744e-16
    vertex 30.000000000000007 21.7 0.0
  endloop
endfacet
facet normal 0.0 0.0 -1.0
  outer loop
    vertex 23.26133351267968 16.53412571881546 0.0
    vertex 23.200000000000006 3.0 7.049916206369744e-16
    vertex 23.200000000000006 17.0 0.0
  endloop
endfacet
facet normal 0.0 0.0 -1.0
  outer loop
    vertex 23.200000000000006 3.0 7.049916206369744e-16
    vertex 23.26133351267968 16.53412571881546 0.0
    vertex 23.26133351267968 3.465874281184537 7.049916206369744e-16
  endloop
endfacet
facet normal 0.0 0.0 -1.0
  outer loop
    vertex 23.26133351267968 3.465874281184537 7.049916206369744e-16
    vertex 23.26133351267968 16.53412571881546 0.0
    vertex 23.441154273188015 16.099999999999998 0.0
  endloop
endfacet
facet normal 0.0 0.0 -1.0
  outer loop
    vertex 23.26133351267968 3.465874281184537 7.049916206369744e-16
    vertex 23.441154273188015 16.099999999999998 0.0
    vertex 23.441154273188015 3.8999999999999986 7.049916206369744e-16
  endloop
endfacet
facet normal 0.0 0.0 -1.0
  outer loop
    vertex 23.441154273188015 3.8999999999999986 7.049916206369744e-16
    vertex 23.441154273188015 16.099999999999998 0.0
    vertex 23.72720779386422 15.727207793864215 0.0
  endloop
endfacet
facet normal 0.0 0.0 -1.0
  outer loop
    vertex 23.441154273188015 3.8999999999999986 7.049916206369744e-16
    vertex 23.72720779386422 15.727207793864215 0.0
    vertex 23.72720779386422 4.272792206135785 7.049916206369744e-16
  endloop
endfacet
facet normal 0.0 0.0 -1.0
  outer loop
    vertex 23.72720779386422 4.272792206135785 7.049916206369744e-16
    vertex 23.72720779386422 15.727207793864215 0.0
    vertex 24.100000000000005 15.44115427318801 0.0
  endloop
endfacet
facet normal 0.0 0.0 -1.0
  outer loop
    vertex 23.72720779386422 4.272792206135785 7.049916206369744e-16
    vertex 24.100000000000005 15.44115427318801 0.0
    vertex 24.100000000000005 4.558845726811989 7.049916206369744e-16
  endloop
endfacet
facet normal 0.0 0.0 -1.0
  outer loop
    vertex 24.100000000000005 4.558845726811989 7.049916206369744e-16
    vertex 24.100000000000005 15.44115427318801 0.0
    vertex 24.534125718815467 4.738666487320322 7.049916206369744e-16
  endloop
endfacet
facet normal 0.0 0.0 -1.0
  outer loop
    vertex 24.534125718815467 4.738666487320322 7.049916206369744e-16
    vertex 24.100000000000005 15.44115427318801 0.0
    vertex 24.53412571881547 15.261333512679677 0.0
  endloop
endfacet
facet normal 0.0 0.0 -1.0
  outer loop
    vertex 24.534125718815467 4.738666487320322 7.049916206369744e-16
    vertex 24.53412571881547 15.261333512679677 0.0
    vertex 25.000000000000004 4.8 7.049916206369744e-16
  endloop
endfacet
facet normal 0.0 0.0 -1.0
  outer loop
    vertex 25.000000000000004 4.8 7.049916206369744e-16
    vertex 24.53412571881547 15.261333512679677 0.0
    vertex 25.000000000000004 15.200000000000001 0.0
  endloop
endfacet
facet normal 0.0 0.0 -1.0
  outer loop
    vertex 25.000000000000004 4.8 7.049916206369744e-16
    vertex 25.000000000000004 15.200000000000001 0.0
    vertex 25.465874281184544 15.261333512679677 0.0
  endloop
endfacet
facet normal 0.0 0.0 -1.0
  outer loop
    vertex 25.000000000000004 4.8 7.049916206369744e-16
    vertex 25.465874281184544 15.261333512679677 0.0
    vertex 25.465874281184544 4.738666487320323 7.049916206369744e-16
  endloop
endfacet
facet normal 0.0 0.0 -1.0
  outer loop
    vertex 25.465874281184544 4.738666487320323 7.049916206369744e-16
    vertex 25.465874281184544 15.261333512679677 0.0
    vertex 25.900000000000002 15.44115427318801 0.0
  endloop
endfacet
facet normal 0.0 0.0 -1.0
  outer loop
    vertex 25.465874281184544 4.738666487320323 7.049916206369744e-16
    vertex 25.900000000000002 15.44115427318801 0.0
    vertex 25.900000000000002 4.558845726811989 7.049916206369744e-16
  endloop
endfacet
facet normal 0.0 0.0 -1.0
  outer loop
    vertex 25.900000000000002 4.558845726811989 7.049916206369744e-16
    vertex 25.900000000000002 15.44115427318801 0.0
    vertex 26.27279220613579 15.727207793864215 0.0
  endloop
endfacet
facet normal 0.0 0.0 -1.0
  outer loop
    vertex 25.900000000000002 4.558845726811989 7.049916206369744e-16
    vertex 26.27279220613579 15.727207793864215 0.0
    vertex 26.27279220613579 4.272792206135786 7.049916206369744e-16
  endloop
endfacet
facet normal 0.0 0.0 -1.0
  outer loop
    vertex 26.27279220613579 4.272792206135786 7.049916206369744e-16
    vertex 26.27279220613579 15.727207793864215 0.0
    vertex 26.558845726812 16.1 0.0
  endloop
endfacet
facet normal 0.0 0.0 -1.0
  outer loop
    vertex 26.27279220613579 4.272792206135786 7.049916206369744e-16
    vertex 26.558845726812 16.1 0.0
    vertex 26.55884572681199 3.9 7.049916206369744e-16
  endloop
endfacet
facet normal 0.0 0.0 -1.0
  outer loop
    vertex 26.55884572681199 3.9 7.049916206369744e-16
    vertex 26.558845726812 16.1 0.0
    vertex 26.738666487320327 3.4658742811845373 7.049916206369744e-16
  endloop
endfacet
facet normal 0.0 0.0 -1.0
  outer loop
    vertex 26.738666487320327 3.4658742811845373 7.049916206369744e-16
    vertex 26.558845726812 16.1 0.0
    vertex 26.738666487320327 16.534125718815464 0.0
  endloop
endfacet
facet normal 0.0 0.0 -1.0
  outer loop
    vertex 26.738666487320327 3.4658742811845373 7.049916206369744e-16
    vertex 26.738666487320327 16.534125718815464 0.0
    vertex 26.800000000000008 17.0 0.0
  endloop
endfacet
facet normal 0.0 0.0 -1.0
  outer loop
    vertex 26.738666487320327 3.4658742811845373 7.049916206369744e-16
    vertex 26.800000000000008 17.0 0.0
    vertex 26.800000000000008 3.0 7.049916206369744e-16
  endloop
endfacet
facet normal 4.711662925675549e-17 4.619368750094985e-33 1.0
  outer loop
    vertex 23.200000000000006 3.0 1.5
    vertex 20.000000000000007 17.0 1.5
    vertex 20.000000000000007 3.0 1.5
  endloop
endfacet
facet normal 4.711662925675549e-17 4.619368750094985e-33 1.0
  outer loop
    vertex 20.000000000000007 17.0 1.5
    vertex 23.200000000000006 3.0 1.5
    vertex 23.000000000000007 5.000000000000001 1.4999999999999991
  endloop
endfacet
facet normal 4.711662925675549e-17 4.619368750094985e-33 1.0
  outer loop
    vertex 23.000000000000007 5.000000000000001 1.4999999999999991
    vertex 23.200000000000006 3.0 1.5
    vertex 23.26133351267968 3.465874281184537 1.5
  endloop
endfacet
facet normal 4.711662925675549e-17 4.619368750094985e-33 1.0
  outer loop
    vertex 23.000000000000007 5.000000000000001 1.4999999999999991
    vertex 23.26133351267968 3.465874281184537 1.5
    vertex 23.441154273188015 3.8999999999999986 1.5
  endloop
endfacet
facet normal 4.711662925675549e-17 4.619368750094985e-33 1.0
  outer loop
    vertex 23.000000000000007 5.000000000000001 1.4999999999999991
    vertex 23.441154273188015 3.8999999999999986 1.5
    vertex 23.72720779386422 4.272792206135785 1.5
  endloop
endfacet
facet normal 4.711662925675549e-17 4.619368750094985e-33 1.0
  outer loop
    vertex 23.000000000000007 5.000000000000001 1.4999999999999991
    vertex 23.72720779386422 4.272792206135785 1.5
    vertex 24.100000000000005 4.558845726811989 1.5
  endloop
endfacet
facet normal 4.711662925675549e-17 4.619368750094985e-33 1.0
  outer loop
    vertex 23.000000000000007 5.000000000000001 1.4999999999999991
    vertex 24.100000000000005 4.558845726811989 1.5
    vertex 25.000000000000004 5.000000000000001 1.4999999999999991
  endloop
endfacet
facet normal 4.711662925675549e-17 4.619368750094985e-33 1.0
  outer loop
    vertex 25.000000000000004 5.000000000000001 1.4999999999999991
    vertex 24.100000000000005 4.558845726811989 1.5
    vertex 24.534125718815467 4.738666487320322 1.5
  endloop
endfacet
facet normal 4.711662925675549e-17 4.619368750094985e-33 1.0
  outer loop
    vertex 25.000000000000004 5.000000000000001 1.4999999999999991
    vertex 24.534125718815467 4.738666487320322 1.5
    vertex 25.000000000000004 4.8 1.5
  endloop
endfacet
facet normal 4.711662925675549e-17 4.619368750094985e-33 1.0
  outer loop
    vertex 20.000000000000007 17.0 1.5
    vertex 23.000000000000007 15.0 1.4999999999999991
    vertex 23.200000000000006 17.0 1.5
  endloop
endfacet
facet normal 4.711662925675549e-17 4.619368750094985e-33 1.0
  outer loop
    vertex 23.000000000000007 15.0 1.4999999999999991
    vertex 20.000000000000007 17.0 1.5
    vertex 23.000000000000007 5.000000000000001 1.4999999999999991
  endloop
endfacet
facet normal 4.711662925675549e-17 4.619368750094985e-33 1.0
  outer loop
    vertex 23.200000000000006 17.0 1.5
    vertex 23.000000000000007 15.0 1.4999999999999991
    vertex 23.26133351267968 16.53412571881546 1.5
  endloop
endfacet
facet normal 4.711662925675549e-17 4.619368750094985e-33 1.0
  outer loop
    vertex 23.26133351267968 16.53412571881546 1.5
    vertex 23.000000000000007 15.0 1.4999999999999991
    vertex 23.441154273188015 16.099999999999998 1.5
  endloop
endfacet
facet normal 4.711662925675549e-17 4.619368750094985e-33 1.0
  outer loop
    vertex 23.441154273188015 16.099999999999998 1.5
    vertex 23.000000000000007 15.0 1.4999999999999991
    vertex 23.72720779386422 15.727207793864215 1.5
  endloop
endfacet
facet normal 4.711662925675549e-17 4.619368750094985e-33 1.0
  outer loop
    vertex 23.72720779386422 15.727207793864215 1.5
    vertex 23.000000000000007 15.0 1.4999999999999991
    vertex 24.100000000000005 15.44115427318801 1.5
  endloop
endfacet
facet normal 4.711662925675549e-17 4.619368750094985e-33 1.0
  outer loop
    vertex 24.100000000000005 15.44115427318801 1.5
    vertex 23.000000000000007 15.0 1.4999999999999991
    vertex 25.000000000000004 15.0 1.4999999999999991
  endloop
endfacet
facet normal 4.711662925675549e-17 4.619368750094985e-33 1.0
  outer loop
    vertex 24.100000000000005 15.44115427318801 1.5
    vertex 25.000000000000004 15.0 1.4999999999999991
    vertex 24.53412571881547 15.261333512679677 1.5
  endloop
endfacet
facet normal 4.711662925675549e-17 4.619368750094985e-33 1.0
  outer loop
    vertex 24.53412571881547 15.261333512679677 1.5
    vertex 25.000000000000004 15.0 1.4999999999999991
    vertex 25.000000000000004 15.200000000000001 1.5
  endloop
endfacet
facet normal 1.0 -0.0 -0.0
  outer loop
    vertex 20.000000000000007 -0.20000000000000004 5.5
    vertex 20.000000000000007 -1.7 12.000000000000004
    vertex 20.000000000000007 -1.7 5.5
  endloop
endfacet
facet normal 1.0 -0.0 -0.0
  outer loop
    vertex 20.000000000000007 -1.7 12.000000000000004
    vertex 20.000000000000007 -0.20000000000000004 5.5
    vertex 20.000000000000007 -0.20000000000000004 10.499999999999979
  endloop
endfacet
facet normal 1.0 -0.0 -0.0
  outer loop
    vertex 20.000000000000007 -1.7 12.000000000000004
    vertex 20.000000000000007 -0.20000000000000004 10.499999999999979
    vertex 20.000000000000007 5.999999999999997 12.000000000000004
  endloop
endfacet
facet normal 1.0 -0.0 -0.0
  outer loop
    vertex 20.000000000000007 5.999999999999997 12.000000000000004
    vertex 20.000000000000007 -0.20000000000000004 10.499999999999979
    vertex 20.000000000000007 5.999999999999997 10.499999999999979
  endloop
endfacet
facet normal -0.0 1.0 -0.0
  outer loop
    vertex 20.000000000000007 -0.20000000000000004 5.5
    vertex 25.000000000000004 -0.19999999999999962 1.5
    vertex 20.000000000000007 -0.20000000000000004 1.5
  endloop
endfacet
facet normal -0.0 1.0 -0.0
  outer loop
    vertex 25.000000000000004 -0.19999999999999962 1.5
    vertex 20.000000000000007 -0.20000000000000004 5.5
    vertex 30.000000000000007 -0.20000000000000004 1.5
  endloop
endfacet
facet normal 0.3713906763541036 2.184450449663668e-31 0.9284766908852594
  outer loop
    vertex 30.000000000000007 -1.7 1.5
    vertex 20.000000000000007 -0.20000000000000004 5.5
    vertex 20.000000000000007 -1.7 5.5
  endloop
endfacet
facet normal 0.3713906763541036 2.184450449663668e-31 0.9284766908852594
  outer loop
    vertex 20.000000000000007 -0.20000000000000004 5.5
    vertex 30.000000000000007 -1.7 1.5
    vertex 30.000000000000007 -0.20000000000000004 1.5
  endloop
endfacet
facet normal 1.0 -0.0 -0.0
  outer loop
    vertex 20.000000000000007 21.7 5.5
    vertex 20.000000000000007 20.2 10.499999999999998
    vertex 20.000000000000007 20.2 5.5
  endloop
endfacet
facet normal 1.0 -0.0 -0.0
  outer loop
    vertex 20.000000000000007 16.199999999999996 10.499999999999972
    vertex 20.000000000000007 21.7 12.000000000000005
    vertex 20.000000000000007 16.19999999999999 11.999999999999979
  endloop
endfacet
facet normal 1.0 -0.0 -0.0
  outer loop
    vertex 20.000000000000007 21.7 12.000000000000005
    vertex 20.000000000000007 16.199999999999996 10.499999999999972
    vertex 20.000000000000007 20.2 10.499999999999998
  endloop
endfacet
facet normal 1.0 -0.0 -0.0
  outer loop
    vertex 20.000000000000007 21.7 12.000000000000005
    vertex 20.000000000000007 20.2 10.499999999999998
    vertex 20.000000000000007 21.7 5.5
  endloop
endfacet
facet normal 0.37139067635410367 1.3126120035312354e-30 0.9284766908852594
  outer loop
    vertex 30.000000000000007 20.2 1.5
    vertex 20.000000000000007 21.7 5.5
    vertex 20.000000000000007 20.2 5.5
  endloop
endfacet
facet normal 0.37139067635410367 1.3126120035312354e-30 0.9284766908852594
  outer loop
    vertex 20.000000000000007 21.7 5.5
    vertex 30.000000000000007 20.2 1.5
    vertex 30.000000000000007 21.7 1.5
  endloop
endfacet
facet normal 0.0 -1.0 0.0
  outer loop
    vertex 20.000000000000007 20.2 5.5
    vertex 25.000000000000004 20.2 1.5
    vertex 30.000000000000007 20.2 1.5
  endloop
endfacet
facet normal 0.0 -1.0 0.0
  outer loop
    vertex 25.000000000000004 20.2 1.5
    vertex 20.000000000000007 20.2 5.5
    vertex 20.000000000000007 20.2 1.5
  endloop
endfacet
facet normal 0.0 -1.0 0.0
  outer loop
    vertex 20.000000000000007 20.2 5.5
    vertex -5.0 20.2 1.5
    vertex 20.000000000000007 20.2 1.5
  endloop
endfacet
facet normal 0.0 -1.0 0.0
  outer loop
    vertex -5.0 20.2 1.5
    vertex 20.000000000000007 20.2 5.5
    vertex -5.0 20.2 10.499999999999998
  endloop
endfacet
facet normal 0.0 -1.0 0.0
  outer loop
    vertex -5.0 20.2 10.499999999999998
    vertex 20.000000000000007 20.2 5.5
    vertex 20.000000000000007 20.2 10.499999999999998
  endloop
endfacet
facet normal -0.0 1.0 -0.0
  outer loop
    vertex -5.0 -0.20000000000000004 10.499999999999979
    vertex 20.000000000000007 -0.20000000000000004 1.5
    vertex -5.0 -0.20000000000000004 1.5
  endloop
endfacet
facet normal -0.0 1.0 -0.0
  outer loop
    vertex 20.000000000000007 -0.20000000000000004 1.5
    vertex -5.0 -0.20000000000000004 10.499999999999979
    vertex 20.000000000000007 -0.20000000000000004 5.5
  endloop
endfacet
facet normal -0.0 1.0 -0.0
  outer loop
    vertex 20.000000000000007 -0.20000000000000004 5.5
    vertex -5.0 -0.20000000000000004 10.499999999999979
    vertex 20.000000000000007 -0.20000000000000004 10.499999999999979
  endloop
endfacet
facet normal -0.0 -0.0 1.0
  outer loop
    vertex 25.000000000000004 -0.19999999999999962 1.5
    vertex 20.000000000000007 3.0 1.5
    vertex 20.000000000000007 -0.20000000000000004 1.5
  endloop
endfacet
facet normal -0.0 -0.0 1.0
  outer loop
    vertex 20.000000000000007 3.0 1.5
    vertex 25.000000000000004 -0.19999999999999962 1.5
    vertex 23.441154273188015 2.0999999999999996 1.5
  endloop
endfacet
facet normal -0.0 -0.0 1.0
  outer loop
    vertex 20.000000000000007 3.0 1.5
    vertex 23.441154273188015 2.0999999999999996 1.5
    vertex 23.26133351267968 2.5341257188154613 1.5
  endloop
endfacet
facet normal -0.0 -0.0 1.0
  outer loop
    vertex 20.000000000000007 3.0 1.5
    vertex 23.26133351267968 2.5341257188154613 1.5
    vertex 23.200000000000006 3.0 1.5
  endloop
endfacet
facet normal -0.0 -0.0 1.0
  outer loop
    vertex 23.441154273188015 2.0999999999999996 1.5
    vertex 25.000000000000004 -0.19999999999999962 1.5
    vertex 23.72720779386422 1.727207793864214 1.5
  endloop
endfacet
facet normal -0.0 -0.0 1.0
  outer loop
    vertex 23.72720779386422 1.727207793864214 1.5
    vertex 25.000000000000004 -0.19999999999999962 1.5
    vertex 24.100000000000005 1.4411542731880107 1.5
  endloop
endfacet
facet normal -0.0 -0.0 1.0
  outer loop
    vertex 24.100000000000005 1.4411542731880107 1.5
    vertex 25.000000000000004 -0.19999999999999962 1.5
    vertex 24.53412571881547 1.2613335126796776 1.5
  endloop
endfacet
facet normal -0.0 -0.0 1.0
  outer loop
    vertex 24.53412571881547 1.2613335126796776 1.5
    vertex 25.000000000000004 -0.19999999999999962 1.5
    vertex 25.000000000000004 1.2000000000000006 1.5
  endloop
endfacet
facet normal -1.9829221284310514e-17 2.1074300770534168e-33 1.0
  outer loop
    vertex 27.000000000000007 15.0 1.4999999999999991
    vertex 25.000000000000004 15.200000000000001 1.5
    vertex 25.000000000000004 15.0 1.4999999999999991
  endloop
endfacet
facet normal -1.9829221284310514e-17 2.1074300770534168e-33 1.0
  outer loop
    vertex 25.000000000000004 15.200000000000001 1.5
    vertex 27.000000000000007 15.0 1.4999999999999991
    vertex 25.465874281184544 15.261333512679677 1.5
  endloop
endfacet
facet normal -1.9829221284310514e-17 2.1074300770534168e-33 1.0
  outer loop
    vertex 25.465874281184544 15.261333512679677 1.5
    vertex 27.000000000000007 15.0 1.4999999999999991
    vertex 25.900000000000002 15.44115427318801 1.5
  endloop
endfacet
facet normal -1.9829221284310514e-17 2.1074300770534168e-33 1.0
  outer loop
    vertex 25.900000000000002 15.44115427318801 1.5
    vertex 27.000000000000007 15.0 1.4999999999999991
    vertex 26.27279220613579 15.727207793864215 1.5
  endloop
endfacet
facet normal -1.9829221284310514e-17 2.1074300770534168e-33 1.0
  outer loop
    vertex 26.27279220613579 15.727207793864215 1.5
    vertex 27.000000000000007 15.0 1.4999999999999991
    vertex 26.558845726812 16.1 1.5
  endloop
endfacet
facet normal -1.9829221284310514e-17 2.1074300770534168e-33 1.0
  outer loop
    vertex 26.558845726812 16.1 1.5
    vertex 27.000000000000007 15.0 1.4999999999999991
    vertex 26.738666487320327 16.534125718815464 1.5
  endloop
endfacet
facet normal -1.9829221284310514e-17 2.1074300770534168e-33 1.0
  outer loop
    vertex 26.738666487320327 16.534125718815464 1.5
    vertex 27.000000000000007 15.0 1.4999999999999991
    vertex 26.800000000000008 17.0 1.5
  endloop
endfacet
facet normal -1.9829221284310514e-17 2.1074300770534168e-33 1.0
  outer loop
    vertex 30.000000000000007 -0.20000000000000004 1.5
    vertex 25.000000000000004 1.2000000000000006 1.5
    vertex 25.000000000000004 -0.19999999999999962 1.5
  endloop
endfacet
facet normal -1.9829221284310514e-17 2.1074300770534168e-33 1.0
  outer loop
    vertex 25.000000000000004 1.2000000000000006 1.5
    vertex 30.000000000000007 -0.20000000000000004 1.5
    vertex 25.465874281184544 1.2613335126796779 1.5
  endloop
endfacet
facet normal -1.9829221284310514e-17 2.1074300770534168e-33 1.0
  outer loop
    vertex 25.465874281184544 1.2613335126796779 1.5
    vertex 30.000000000000007 -0.20000000000000004 1.5
    vertex 25.900000000000002 1.4411542731880111 1.5
  endloop
endfacet
facet normal -1.9829221284310514e-17 2.1074300770534168e-33 1.0
  outer loop
    vertex 25.900000000000002 1.4411542731880111 1.5
    vertex 30.000000000000007 -0.20000000000000004 1.5
    vertex 26.27279220613579 1.7272077938642152 1.5
  endloop
endfacet
facet normal -1.9829221284310514e-17 2.1074300770534168e-33 1.0
  outer loop
    vertex 26.27279220613579 1.7272077938642152 1.5
    vertex 30.000000000000007 -0.20000000000000004 1.5
    vertex 26.55884572681199 2.1000000000000005 1.5
  endloop
endfacet
facet normal -1.9829221284310514e-17 2.1074300770534168e-33 1.0
  outer loop
    vertex 26.55884572681199 2.1000000000000005 1.5
    vertex 30.000000000000007 -0.20000000000000004 1.5
    vertex 26.738666487320327 2.534125718815463 1.5
  endloop
endfacet
facet normal -1.9829221284310514e-17 2.1074300770534168e-33 1.0
  outer loop
    vertex 26.738666487320327 2.534125718815463 1.5
    vertex 30.000000000000007 -0.20000000000000004 1.5
    vertex 26.800000000000008 3.0 1.5
  endloop
endfacet
facet normal -1.9829221284310514e-17 2.1074300770534168e-33 1.0
  outer loop
    vertex 26.800000000000008 3.0 1.5
    vertex 30.000000000000007 -0.20000000000000004 1.5
    vertex 27.000000000000007 5.000000000000001 1.4999999999999991
  endloop
endfacet
facet normal -1.9829221284310514e-17 2.1074300770534168e-33 1.0
  outer loop
    vertex 27.000000000000007 5.000000000000001 1.4999999999999991
    vertex 30.000000000000007 -0.20000000000000004 1.5
    vertex 27.000000000000007 15.0 1.4999999999999991
  endloop
endfacet
facet normal -1.9829221284310514e-17 2.1074300770534168e-33 1.0
  outer loop
    vertex 25.465874281184544 18.738666487320323 1.5
    vertex 25.000000000000004 20.2 1.5
    vertex 25.000000000000004 18.8 1.5
  endloop
endfacet
facet normal -1.9829221284310514e-17 2.1074300770534168e-33 1.0
  outer loop
    vertex 25.000000000000004 20.2 1.5
    vertex 25.465874281184544 18.738666487320323 1.5
    vertex 30.000000000000007 20.2 1.5
  endloop
endfacet
facet normal -1.9829221284310514e-17 2.1074300770534168e-33 1.0
  outer loop
    vertex 30.000000000000007 20.2 1.5
    vertex 25.465874281184544 18.738666487320323 1.5
    vertex 25.900000000000002 18.558845726811988 1.5
  endloop
endfacet
facet normal -1.9829221284310514e-17 2.1074300770534168e-33 1.0
  outer loop
    vertex 30.000000000000007 20.2 1.5
    vertex 25.900000000000002 18.558845726811988 1.5
    vertex 26.27279220613579 18.272792206135787 1.5
  endloop
endfacet
facet normal -1.9829221284310514e-17 2.1074300770534168e-33 1.0
  outer loop
    vertex 30.000000000000007 20.2 1.5
    vertex 26.27279220613579 18.272792206135787 1.5
    vertex 26.55884572681199 17.900000000000002 1.5
  endloop
endfacet
facet normal -1.9829221284310514e-17 2.1074300770534168e-33 1.0
  outer loop
    vertex 30.000000000000007 20.2 1.5
    vertex 26.55884572681199 17.900000000000002 1.5
    vertex 26.738666487320327 17.46587428118454 1.5
  endloop
endfacet
facet normal -1.9829221284310514e-17 2.1074300770534168e-33 1.0
  outer loop
    vertex 30.000000000000007 20.2 1.5
    vertex 26.738666487320327 17.46587428118454 1.5
    vertex 26.800000000000008 17.0 1.5
  endloop
endfacet
facet normal -1.9829221284310514e-17 2.1074300770534168e-33 1.0
  outer loop
    vertex 30.000000000000007 20.2 1.5
    vertex 26.800000000000008 17.0 1.5
    vertex 27.000000000000007 15.0 1.4999999999999991
  endloop
endfacet
facet normal -1.9829221284310514e-17 2.1074300770534168e-33 1.0
  outer loop
    vertex 30.000000000000007 20.2 1.5
    vertex 27.000000000000007 15.0 1.4999999999999991
    vertex 30.000000000000007 -0.20000000000000004 1.5
  endloop
endfacet
facet normal -1.9829221284310514e-17 2.1074300770534168e-33 1.0
  outer loop
    vertex 25.465874281184544 4.738666487320323 1.5
    vertex 25.000000000000004 5.000000000000001 1.4999999999999991
    vertex 25.000000000000004 4.8 1.5
  endloop
endfacet
facet normal -1.9829221284310514e-17 2.1074300770534168e-33 1.0
  outer loop
    vertex 25.000000000000004 5.000000000000001 1.4999999999999991
    vertex 25.465874281184544 4.738666487320323 1.5
    vertex 27.000000000000007 5.000000000000001 1.4999999999999991
  endloop
endfacet
facet normal -1.9829221284310514e-17 2.1074300770534168e-33 1.0
  outer loop
    vertex 27.000000000000007 5.000000000000001 1.4999999999999991
    vertex 25.465874281184544 4.738666487320323 1.5
    vertex 25.900000000000002 4.558845726811989 1.5
  endloop
endfacet
facet normal -1.9829221284310514e-17 2.1074300770534168e-33 1.0
  outer loop
    vertex 27.000000000000007 5.000000000000001 1.4999999999999991
    vertex 25.900000000000002 4.558845726811989 1.5
    vertex 26.27279220613579 4.272792206135786 1.5
  endloop
endfacet
facet normal -1.9829221284310514e-17 2.1074300770534168e-33 1.0
  outer loop
    vertex 27.000000000000007 5.000000000000001 1.4999999999999991
    vertex 26.27279220613579 4.272792206135786 1.5
    vertex 26.55884572681199 3.9 1.5
  endloop
endfacet
facet normal -1.9829221284310514e-17 2.1074300770534168e-33 1.0
  outer loop
    vertex 27.000000000000007 5.000000000000001 1.4999999999999991
    vertex 26.55884572681199 3.9 1.5
    vertex 26.738666487320327 3.4658742811845373 1.5
  endloop
endfacet
facet normal -1.9829221284310514e-17 2.1074300770534168e-33 1.0
  outer loop
    vertex 27.000000000000007 5.000000000000001 1.4999999999999991
    vertex 26.738666487320327 3.4658742811845373 1.5
    vertex 26.800000000000008 3.0 1.5
  endloop
endfacet
facet normal -0.0 -0.0 1.0
  outer loop
    vertex 23.200000000000006 17.0 1.5
    vertex 20.000000000000007 20.2 1.5
    vertex 20.000000000000007 17.0 1.5
  endloop
endfacet
facet normal -0.0 -0.0 1.0
  outer loop
    vertex 20.000000000000007 20.2 1.5
    vertex 23.200000000000006 17.0 1.5
    vertex 23.26133351267968 17.465874281184536 1.5
  endloop
endfacet
facet normal -0.0 -0.0 1.0
  outer loop
    vertex 20.000000000000007 20.2 1.5
    vertex 23.26133351267968 17.465874281184536 1.5
    vertex 23.441154273188015 17.9 1.5
  endloop
endfacet
facet normal -0.0 -0.0 1.0
  outer loop
    vertex 20.000000000000007 20.2 1.5
    vertex 23.441154273188015 17.9 1.5
    vertex 25.000000000000004 20.2 1.5
  endloop
endfacet
facet normal -0.0 -0.0 1.0
  outer loop
    vertex 25.000000000000004 20.2 1.5
    vertex 23.441154273188015 17.9 1.5
    vertex 23.72720779386422 18.272792206135783 1.5
  endloop
endfacet
facet normal -0.0 -0.0 1.0
  outer loop
    vertex 25.000000000000004 20.2 1.5
    vertex 23.72720779386422 18.272792206135783 1.5
    vertex 24.100000000000005 18.558845726811988 1.5
  endloop
endfacet
facet normal -0.0 -0.0 1.0
  outer loop
    vertex 25.000000000000004 20.2 1.5
    vertex 24.100000000000005 18.558845726811988 1.5
    vertex 24.534125718815467 18.738666487320323 1.5
  endloop
endfacet
facet normal -0.0 -0.0 1.0
  outer loop
    vertex 25.000000000000004 20.2 1.5
    vertex 24.534125718815467 18.738666487320323 1.5
    vertex 25.000000000000004 18.8 1.5
  endloop
endfacet
facet normal 1.0 -0.0 -0.0
  outer loop
    vertex 27.000000000000007 15.0 1.4999999999999991
    vertex 27.000000000000007 5.042775693130949 2.152630961100257
    vertex 27.000000000000007 5.000000000000001 1.4999999999999991
  endloop
endfacet
facet normal 1.0 -0.0 -0.0
  outer loop
    vertex 27.000000000000007 5.042775693130949 2.152630961100257
    vertex 27.000000000000007 15.0 1.4999999999999991
    vertex 27.000000000000007 5.170370868554659 2.7940952255126033
  endloop
endfacet
facet normal 1.0 -0.0 -0.0
  outer loop
    vertex 27.000000000000007 5.170370868554659 2.7940952255126033
    vertex 27.000000000000007 15.0 1.4999999999999991
    vertex 27.000000000000007 5.380602337443567 3.413417161825449
  endloop
endfacet
facet normal 1.0 -0.0 -0.0
  outer loop
    vertex 27.000000000000007 5.380602337443567 3.413417161825449
    vertex 27.000000000000007 15.0 1.4999999999999991
    vertex 27.000000000000007 5.669872981077807 3.9999999999999996
  endloop
endfacet
facet normal 1.0 -0.0 -0.0
  outer loop
    vertex 27.000000000000007 5.669872981077807 3.9999999999999996
    vertex 27.000000000000007 15.0 1.4999999999999991
    vertex 27.000000000000007 6.033233298543825 4.543807145043602
  endloop
endfacet
facet normal 1.0 -0.0 -0.0
  outer loop
    vertex 27.000000000000007 6.033233298543825 4.543807145043602
    vertex 27.000000000000007 15.0 1.4999999999999991
    vertex 27.000000000000007 6.464466094067263 5.035533905932738
  endloop
endfacet
facet normal 1.0 -0.0 -0.0
  outer loop
    vertex 27.000000000000007 6.464466094067263 5.035533905932738
    vertex 27.000000000000007 15.0 1.4999999999999991
    vertex 27.000000000000007 6.956192854956398 5.466766701456176
  endloop
endfacet
facet normal 1.0 -0.0 -0.0
  outer loop
    vertex 27.000000000000007 6.956192854956398 5.466766701456176
    vertex 27.000000000000007 15.0 1.4999999999999991
    vertex 27.000000000000007 7.5 5.830127018922193
  endloop
endfacet
facet normal 1.0 -0.0 -0.0
  outer loop
    vertex 27.000000000000007 7.5 5.830127018922193
    vertex 27.000000000000007 15.0 1.4999999999999991
    vertex 27.000000000000007 8.086582838174552 6.119397662556432
  endloop
endfacet
facet normal 1.0 -0.0 -0.0
  outer loop
    vertex 27.000000000000007 8.086582838174552 6.119397662556432
    vertex 27.000000000000007 15.0 1.4999999999999991
    vertex 27.000000000000007 8.705904774487395 6.32962913144534
  endloop
endfacet
facet normal 1.0 -0.0 -0.0
  outer loop
    vertex 27.000000000000007 8.705904774487395 6.32962913144534
    vertex 27.000000000000007 15.0 1.4999999999999991
    vertex 27.000000000000007 9.347369038899743 6.457224306869051
  endloop
endfacet
facet normal 1.0 -0.0 -0.0
  outer loop
    vertex 27.000000000000007 9.347369038899743 6.457224306869051
    vertex 27.000000000000007 15.0 1.4999999999999991
    vertex 27.000000000000007 10.0 6.499999999999999
  endloop
endfacet
facet normal 1.0 -0.0 -0.0
  outer loop
    vertex 27.000000000000007 10.0 6.499999999999999
    vertex 27.000000000000007 15.0 1.4999999999999991
    vertex 27.000000000000007 10.652630961100257 6.457224306869051
  endloop
endfacet
facet normal 1.0 -0.0 -0.0
  outer loop
    vertex 27.000000000000007 10.652630961100257 6.457224306869051
    vertex 27.000000000000007 15.0 1.4999999999999991
    vertex 27.000000000000007 11.294095225512605 6.32962913144534
  endloop
endfacet
facet normal 1.0 -0.0 -0.0
  outer loop
    vertex 27.000000000000007 11.294095225512605 6.32962913144534
    vertex 27.000000000000007 15.0 1.4999999999999991
    vertex 27.000000000000007 11.913417161825448 6.119397662556432
  endloop
endfacet
facet normal 1.0 -0.0 -0.0
  outer loop
    vertex 27.000000000000007 11.913417161825448 6.119397662556432
    vertex 27.000000000000007 15.0 1.4999999999999991
    vertex 27.000000000000007 12.5 5.830127018922193
  endloop
endfacet
facet normal 1.0 -0.0 -0.0
  outer loop
    vertex 27.000000000000007 12.5 5.830127018922193
    vertex 27.000000000000007 15.0 1.4999999999999991
    vertex 27.000000000000007 13.043807145043601 5.466766701456176
  endloop
endfacet
facet normal 1.0 -0.0 -0.0
  outer loop
    vertex 27.000000000000007 13.043807145043601 5.466766701456176
    vertex 27.000000000000007 15.0 1.4999999999999991
    vertex 27.000000000000007 13.535533905932736 5.035533905932738
  endloop
endfacet
facet normal 1.0 -0.0 -0.0
  outer loop
    vertex 27.000000000000007 13.535533905932736 5.035533905932738
    vertex 27.000000000000007 15.0 1.4999999999999991
    vertex 27.000000000000007 13.966766701456175 4.543807145043602
  endloop
endfacet
facet normal 1.0 -0.0 -0.0
  outer loop
    vertex 27.000000000000007 13.966766701456175 4.543807145043602
    vertex 27.000000000000007 15.0 1.4999999999999991
    vertex 27.000000000000007 14.330127018922191 3.9999999999999996
  endloop
endfacet
facet normal 1.0 -0.0 -0.0
  outer loop
    vertex 27.000000000000007 14.330127018922191 3.9999999999999996
    vertex 27.000000000000007 15.0 1.4999999999999991
    vertex 27.000000000000007 14.619397662556432 3.413417161825449
  endloop
endfacet
facet normal 1.0 -0.0 -0.0
  outer loop
    vertex 27.000000000000007 14.619397662556432 3.413417161825449
    vertex 27.000000000000007 15.0 1.4999999999999991
    vertex 27.000000000000007 14.829629131445342 2.7940952255126033
  endloop
endfacet
facet normal 1.0 -0.0 -0.0
  outer loop
    vertex 27.000000000000007 14.829629131445342 2.7940952255126033
    vertex 27.000000000000007 15.0 1.4999999999999991
    vertex 27.000000000000007 14.95722430686905 2.152630961100257
  endloop
endfacet
facet normal 0.0 0.9978589232386034 0.06540312923014745
  outer loop
    vertex 23.000000000000007 14.95722430686905 2.152630961100257
    vertex 25.000000000000004 15.0 1.4999999999999991
    vertex 23.000000000000007 15.0 1.4999999999999991
  endloop
endfacet
facet normal 0.0 0.9978589232386034 0.06540312923014745
  outer loop
    vertex 25.000000000000004 15.0 1.4999999999999991
    vertex 23.000000000000007 14.95722430686905 2.152630961100257
    vertex 27.000000000000007 15.0 1.4999999999999991
  endloop
endfacet
facet normal 0.0 0.9978589232386034 0.06540312923014745
  outer loop
    vertex 27.000000000000007 15.0 1.4999999999999991
    vertex 23.000000000000007 14.95722430686905 2.152630961100257
    vertex 27.000000000000007 14.95722430686905 2.152630961100257
  endloop
endfacet
facet normal 0.0 0.9807852804032313 0.19509032201612425
  outer loop
    vertex 23.000000000000007 14.829629131445342 2.7940952255126033
    vertex 27.000000000000007 14.95722430686905 2.152630961100257
    vertex 23.000000000000007 14.95722430686905 2.152630961100257
  endloop
endfacet
facet normal 0.0 0.9807852804032313 0.19509032201612425
  outer loop
    vertex 27.000000000000007 14.95722430686905 2.152630961100257
    vertex 23.000000000000007 14.829629131445342 2.7940952255126033
    vertex 27.000000000000007 14.829629131445342 2.7940952255126033
  endloop
endfacet
facet normal 0.0 0.9469301294951047 0.32143946530316486
  outer loop
    vertex 23.000000000000007 14.619397662556432 3.413417161825449
    vertex 27.000000000000007 14.829629131445342 2.7940952255126033
    vertex 23.000000000000007 14.829629131445342 2.7940952255126033
  endloop
endfacet
facet normal 0.0 0.9469301294951047 0.32143946530316486
  outer loop
    vertex 27.000000000000007 14.829629131445342 2.7940952255126033
    vertex 23.000000000000007 14.619397662556432 3.413417161825449
    vertex 27.000000000000007 14.619397662556432 3.413417161825449
  endloop
endfacet
facet normal 0.0 0.8968727415326886 0.44228869021900097
  outer loop
    vertex 23.000000000000007 14.330127018922191 3.9999999999999996
    vertex 27.000000000000007 14.619397662556432 3.413417161825449
    vertex 23.000000000000007 14.619397662556432 3.413417161825449
  endloop
endfacet
facet normal 0.0 0.8968727415326886 0.44228869021900097
  outer loop
    vertex 27.000000000000007 14.619397662556432 3.413417161825449
    vertex 23.000000000000007 14.330127018922191 3.9999999999999996
    vertex 27.000000000000007 14.330127018922191 3.9999999999999996
  endloop
endfacet
facet normal 0.0 0.831469612302546 0.5555702330196013
  outer loop
    vertex 23.000000000000007 13.966766701456175 4.543807145043602
    vertex 27.000000000000007 14.330127018922191 3.9999999999999996
    vertex 23.000000000000007 14.330127018922191 3.9999999999999996
  endloop
endfacet
facet normal 0.0 0.831469612302546 0.5555702330196013
  outer loop
    vertex 27.000000000000007 14.330127018922191 3.9999999999999996
    vertex 23.000000000000007 13.966766701456175 4.543807145043602
    vertex 27.000000000000007 13.966766701456175 4.543807145043602
  endloop
endfacet
facet normal 0.0 0.7518398074789772 0.6593458151000692
  outer loop
    vertex 23.000000000000007 13.535533905932736 5.035533905932738
    vertex 27.000000000000007 13.966766701456175 4.543807145043602
    vertex 23.000000000000007 13.966766701456175 4.543807145043602
  endloop
endfacet
facet normal 0.0 0.7518398074789772 0.6593458151000692
  outer loop
    vertex 27.000000000000007 13.966766701456175 4.543807145043602
    vertex 23.000000000000007 13.535533905932736 5.035533905932738
    vertex 27.000000000000007 13.535533905932736 5.035533905932738
  endloop
endfacet
facet normal 0.0 0.6593458151000681 0.7518398074789784
  outer loop
    vertex 27.000000000000007 13.043807145043601 5.466766701456176
    vertex 23.000000000000007 13.535533905932736 5.035533905932738
    vertex 23.000000000000007 13.043807145043601 5.466766701456176
  endloop
endfacet
facet normal 0.0 0.6593458151000681 0.7518398074789784
  outer loop
    vertex 23.000000000000007 13.535533905932736 5.035533905932738
    vertex 27.000000000000007 13.043807145043601 5.466766701456176
    vertex 27.000000000000007 13.535533905932736 5.035533905932738
  endloop
endfacet
facet normal 0.0 0.5555702330196031 0.8314696123025449
  outer loop
    vertex 27.000000000000007 12.5 5.830127018922193
    vertex 23.000000000000007 13.043807145043601 5.466766701456176
    vertex 23.000000000000007 12.5 5.830127018922193
  endloop
endfacet
facet normal 0.0 0.5555702330196031 0.8314696123025449
  outer loop
    vertex 23.000000000000007 13.043807145043601 5.466766701456176
    vertex 27.000000000000007 12.5 5.830127018922193
    vertex 27.000000000000007 13.043807145043601 5.466766701456176
  endloop
endfacet
facet normal 0.0 0.44228869021900097 0.8968727415326886
  outer loop
    vertex 27.000000000000007 11.913417161825448 6.119397662556432
    vertex 23.000000000000007 12.5 5.830127018922193
    vertex 23.000000000000007 11.913417161825448 6.119397662556432
  endloop
endfacet
facet normal 0.0 0.44228869021900097 0.8968727415326886
  outer loop
    vertex 23.000000000000007 12.5 5.830127018922193
    vertex 27.000000000000007 11.913417161825448 6.119397662556432
    vertex 27.000000000000007 12.5 5.830127018922193
  endloop
endfacet
facet normal 0.0 0.3214394653031613 0.9469301294951059
  outer loop
    vertex 27.000000000000007 11.294095225512605 6.32962913144534
    vertex 23.000000000000007 11.913417161825448 6.119397662556432
    vertex 23.000000000000007 11.294095225512605 6.32962913144534
  endloop
endfacet
facet normal 0.0 0.3214394653031613 0.9469301294951059
  outer loop
    vertex 23.000000000000007 11.913417161825448 6.119397662556432
    vertex 27.000000000000007 11.294095225512605 6.32962913144534
    vertex 27.000000000000007 11.913417161825448 6.119397662556432
  endloop
endfacet
facet normal 0.0 0.1950903220161294 0.9807852804032302
  outer loop
    vertex 27.000000000000007 10.652630961100257 6.457224306869051
    vertex 23.000000000000007 11.294095225512605 6.32962913144534
    vertex 23.000000000000007 10.652630961100257 6.457224306869051
  endloop
endfacet
facet normal 0.0 0.1950903220161294 0.9807852804032302
  outer loop
    vertex 23.000000000000007 11.294095225512605 6.32962913144534
    vertex 27.000000000000007 10.652630961100257 6.457224306869051
    vertex 27.000000000000007 11.294095225512605 6.32962913144534
  endloop
endfacet
facet normal 0.0 0.06540312923014317 0.9978589232386036
  outer loop
    vertex 27.000000000000007 10.0 6.499999999999999
    vertex 23.000000000000007 10.652630961100257 6.457224306869051
    vertex 23.000000000000007 10.0 6.499999999999999
  endloop
endfacet
facet normal 0.0 0.06540312923014317 0.9978589232386036
  outer loop
    vertex 23.000000000000007 10.652630961100257 6.457224306869051
    vertex 27.000000000000007 10.0 6.499999999999999
    vertex 27.000000000000007 10.652630961100257 6.457224306869051
  endloop
endfacet
facet normal 0.0 -0.06540312923014317 0.9978589232386036
  outer loop
    vertex 27.000000000000007 9.347369038899743 6.457224306869051
    vertex 23.000000000000007 10.0 6.499999999999999
    vertex 23.000000000000007 9.347369038899743 6.457224306869051
  endloop
endfacet
facet normal 0.0 -0.06540312923014317 0.9978589232386036
  outer loop
    vertex 23.000000000000007 10.0 6.499999999999999
    vertex 27.000000000000007 9.347369038899743 6.457224306869051
    vertex 27.000000000000007 10.0 6.499999999999999
  endloop
endfacet
facet normal 0.0 -0.1950903220161294 0.9807852804032302
  outer loop
    vertex 27.000000000000007 8.705904774487395 6.32962913144534
    vertex 23.000000000000007 9.347369038899743 6.457224306869051
    vertex 23.000000000000007 8.705904774487395 6.32962913144534
  endloop
endfacet
facet normal 0.0 -0.1950903220161294 0.9807852804032302
  outer loop
    vertex 23.000000000000007 9.347369038899743 6.457224306869051
    vertex 27.000000000000007 8.705904774487395 6.32962913144534
    vertex 27.000000000000007 9.347369038899743 6.457224306869051
  endloop
endfacet
facet normal 0.0 -0.3214394653031613 0.9469301294951059
  outer loop
    vertex 27.000000000000007 8.086582838174552 6.119397662556432
    vertex 23.000000000000007 8.705904774487395 6.32962913144534
    vertex 23.000000000000007 8.086582838174552 6.119397662556432
  endloop
endfacet
facet normal 0.0 -0.3214394653031613 0.9469301294951059
  outer loop
    vertex 23.000000000000007 8.705904774487395 6.32962913144534
    vertex 27.000000000000007 8.086582838174552 6.119397662556432
    vertex 27.000000000000007 8.705904774487395 6.32962913144534
  endloop
endfacet
facet normal 0.0 -0.44228869021900097 0.8968727415326886
  outer loop
    vertex 27.000000000000007 7.5 5.830127018922193
    vertex 23.000000000000007 8.086582838174552 6.119397662556432
    vertex 23.000000000000007 7.5 5.830127018922193
  endloop
endfacet
facet normal 0.0 -0.44228869021900097 0.8968727415326886
  outer loop
    vertex 23.000000000000007 8.086582838174552 6.119397662556432
    vertex 27.000000000000007 7.5 5.830127018922193
    vertex 27.000000000000007 8.086582838174552 6.119397662556432
  endloop
endfacet
facet normal 0.0 -0.555570233019602 0.8314696123025453
  outer loop
    vertex 27.000000000000007 6.956192854956398 5.466766701456176
    vertex 23.000000000000007 7.5 5.830127018922193
    vertex 23.000000000000007 6.956192854956398 5.466766701456176
  endloop
endfacet
facet normal 0.0 -0.555570233019602 0.8314696123025453
  outer loop
    vertex 23.000000000000007 7.5 5.830127018922193
    vertex 27.000000000000007 6.956192854956398 5.466766701456176
    vertex 27.000000000000007 7.5 5.830127018922193
  endloop
endfacet
facet normal 0.0 -0.6593458151000691 0.7518398074789773
  outer loop
    vertex 27.000000000000007 6.464466094067263 5.035533905932738
    vertex 23.000000000000007 6.956192854956398 5.466766701456176
    vertex 23.000000000000007 6.464466094067263 5.035533905932738
  endloop
endfacet
facet normal 0.0 -0.6593458151000691 0.7518398074789773
  outer loop
    vertex 23.000000000000007 6.956192854956398 5.466766701456176
    vertex 27.000000000000007 6.464466094067263 5.035533905932738
    vertex 27.000000000000007 6.956192854956398 5.466766701456176
  endloop
endfacet
facet normal 0.0 -0.7518398074789777 0.6593458151000686
  outer loop
    vertex 27.000000000000007 6.464466094067263 5.035533905932738
    vertex 23.000000000000007 6.033233298543825 4.543807145043602
    vertex 27.000000000000007 6.033233298543825 4.543807145043602
  endloop
endfacet
facet normal 0.0 -0.7518398074789777 0.6593458151000686
  outer loop
    vertex 23.000000000000007 6.033233298543825 4.543807145043602
    vertex 27.000000000000007 6.464466094067263 5.035533905932738
    vertex 23.000000000000007 6.464466094067263 5.035533905932738
  endloop
endfacet
facet normal 0.0 -0.8314696123025449 0.5555702330196027
  outer loop
    vertex 27.000000000000007 6.033233298543825 4.543807145043602
    vertex 23.000000000000007 5.669872981077807 3.9999999999999996
    vertex 27.000000000000007 5.669872981077807 3.9999999999999996
  endloop
endfacet
facet normal 0.0 -0.8314696123025449 0.5555702330196027
  outer loop
    vertex 23.000000000000007 5.669872981077807 3.9999999999999996
    vertex 27.000000000000007 6.033233298543825 4.543807145043602
    vertex 23.000000000000007 6.033233298543825 4.543807145043602
  endloop
endfacet
facet normal 0.0 -0.896872741532688 0.4422886902190018
  outer loop
    vertex 27.000000000000007 5.669872981077807 3.9999999999999996
    vertex 23.000000000000007 5.380602337443567 3.413417161825449
    vertex 27.000000000000007 5.380602337443567 3.413417161825449
  endloop
endfacet
facet normal 0.0 -0.896872741532688 0.4422886902190018
  outer loop
    vertex 23.000000000000007 5.380602337443567 3.413417161825449
    vertex 27.000000000000007 5.669872981077807 3.9999999999999996
    vertex 23.000000000000007 5.669872981077807 3.9999999999999996
  endloop
endfacet
facet normal 0.0 -0.946930129495106 0.32143946530316103
  outer loop
    vertex 27.000000000000007 5.380602337443567 3.413417161825449
    vertex 23.000000000000007 5.170370868554659 2.7940952255126033
    vertex 27.000000000000007 5.170370868554659 2.7940952255126033
  endloop
endfacet
facet normal 0.0 -0.946930129495106 0.32143946530316103
  outer loop
    vertex 23.000000000000007 5.170370868554659 2.7940952255126033
    vertex 27.000000000000007 5.380602337443567 3.413417161825449
    vertex 23.000000000000007 5.380602337443567 3.413417161825449
  endloop
endfacet
facet normal 0.0 -0.9807852804032304 0.1950903220161284
  outer loop
    vertex 27.000000000000007 5.170370868554659 2.7940952255126033
    vertex 23.000000000000007 5.042775693130949 2.152630961100257
    vertex 27.000000000000007 5.042775693130949 2.152630961100257
  endloop
endfacet
facet normal 0.0 -0.9807852804032304 0.1950903220161284
  outer loop
    vertex 23.000000000000007 5.042775693130949 2.152630961100257
    vertex 27.000000000000007 5.170370868554659 2.7940952255126033
    vertex 23.000000000000007 5.170370868554659 2.7940952255126033
  endloop
endfacet
facet normal 0.0 -0.9978589232386036 0.06540312923014314
  outer loop
    vertex 27.000000000000007 5.042775693130949 2.152630961100257
    vertex 25.000000000000004 5.000000000000001 1.4999999999999991
    vertex 27.000000000000007 5.000000000000001 1.4999999999999991
  endloop
endfacet
facet normal 0.0 -0.9978589232386036 0.06540312923014314
  outer loop
    vertex 25.000000000000004 5.000000000000001 1.4999999999999991
    vertex 27.000000000000007 5.042775693130949 2.152630961100257
    vertex 23.000000000000007 5.000000000000001 1.4999999999999991
  endloop
endfacet
facet normal 0.0 -0.9978589232386036 0.06540312923014314
  outer loop
    vertex 23.000000000000007 5.000000000000001 1.4999999999999991
    vertex 27.000000000000007 5.042775693130949 2.152630961100257
    vertex 23.000000000000007 5.042775693130949 2.152630961100257
  endloop
endfacet
facet normal 1.0 0.0 0.0
  outer loop
    vertex 23.000000000000007 15.0 1.4999999999999991
    vertex 23.000000000000007 5.042775693130949 2.152630961100257
    vertex 23.000000000000007 5.000000000000001 1.4999999999999991
  endloop
endfacet
facet normal 1.0 0.0 0.0
  outer loop
    vertex 23.000000000000007 5.042775693130949 2.152630961100257
    vertex 23.000000000000007 15.0 1.4999999999999991
    vertex 23.000000000000007 5.170370868554659 2.7940952255126033
  endloop
endfacet
facet normal 1.0 0.0 0.0
  outer loop
    vertex 23.000000000000007 5.170370868554659 2.7940952255126033
    vertex 23.000000000000007 15.0 1.4999999999999991
    vertex 23.000000000000007 5.380602337443567 3.413417161825449
  endloop
endfacet
facet normal 1.0 0.0 0.0
  outer loop
    vertex 23.000000000000007 5.380602337443567 3.413417161825449
    vertex 23.000000000000007 15.0 1.4999999999999991
    vertex 23.000000000000007 5.669872981077807 3.9999999999999996
  endloop
endfacet
facet normal 1.0 0.0 0.0
  outer loop
    vertex 23.000000000000007 5.669872981077807 3.9999999999999996
    vertex 23.000000000000007 15.0 1.4999999999999991
    vertex 23.000000000000007 6.033233298543825 4.543807145043602
  endloop
endfacet
facet normal 1.0 0.0 0.0
  outer loop
    vertex 23.000000000000007 6.033233298543825 4.543807145043602
    vertex 23.000000000000007 15.0 1.4999999999999991
    vertex 23.000000000000007 6.464466094067263 5.035533905932738
  endloop
endfacet
facet normal 1.0 0.0 0.0
  outer loop
    vertex 23.000000000000007 6.464466094067263 5.035533905932738
    vertex 23.000000000000007 15.0 1.4999999999999991
    vertex 23.000000000000007 6.956192854956398 5.466766701456176
  endloop
endfacet
facet normal 1.0 0.0 0.0
  outer loop
    vertex 23.000000000000007 6.956192854956398 5.466766701456176
    vertex 23.000000000000007 15.0 1.4999999999999991
    vertex 23.000000000000007 7.5 5.830127018922193
  endloop
endfacet
facet normal 1.0 0.0 0.0
  outer loop
    vertex 23.000000000000007 7.5 5.830127018922193
    vertex 23.000000000000007 15.0 1.4999999999999991
    vertex 23.000000000000007 8.086582838174552 6.119397662556432
  endloop
endfacet
facet normal 1.0 0.0 0.0
  outer loop
    vertex 23.000000000000007 8.086582838174552 6.119397662556432
    vertex 23.000000000000007 15.0 1.4999999999999991
    vertex 23.000000000000007 8.705904774487395 6.32962913144534
  endloop
endfacet
facet normal 1.0 0.0 0.0
  outer loop
    vertex 23.000000000000007 8.705904774487395 6.32962913144534
    vertex 23.000000000000007 15.0 1.4999999999999991
    vertex 23.000000000000007 9.347369038899743 6.457224306869051
  endloop
endfacet
facet normal 1.0 0.0 0.0
  outer loop
    vertex 23.000000000000007 9.347369038899743 6.457224306869051
    vertex 23.000000000000007 15.0 1.4999999999999991
    vertex 23.000000000000007 10.0 6.499999999999999
  endloop
endfacet
facet normal 1.0 0.0 0.0
  outer loop
    vertex 23.000000000000007 10.0 6.499999999999999
    vertex 23.000000000000007 15.0 1.4999999999999991
    vertex 23.000000000000007 10.652630961100257 6.457224306869051
  endloop
endfacet
facet normal 1.0 0.0 0.0
  outer loop
    vertex 23.000000000000007 10.652630961100257 6.457224306869051
    vertex 23.000000000000007 15.0 1.4999999999999991
    vertex 23.000000000000007 11.294095225512605 6.32962913144534
  endloop
endfacet
facet normal 1.0 0.0 0.0
  outer loop
    vertex 23.000000000000007 11.294095225512605 6.32962913144534
    vertex 23.000000000000007 15.0 1.4999999999999991
    vertex 23.000000000000007 11.913417161825448 6.119397662556432
  endloop
endfacet
facet normal 1.0 0.0 0.0
  outer loop
    vertex 23.000000000000007 11.913417161825448 6.119397662556432
    vertex 23.000000000000007 15.0 1.4999999999999991
    vertex 23.000000000000007 12.5 5.830127018922193
  endloop
endfacet
facet normal 1.0 0.0 0.0
  outer loop
    vertex 23.000000000000007 12.5 5.830127018922193
    vertex 23.000000000000007 15.0 1.4999999999999991
    vertex 23.000000000000007 13.043807145043601 5.466766701456176
  endloop
endfacet
facet normal 1.0 0.0 0.0
  outer loop
    vertex 23.000000000000007 13.043807145043601 5.466766701456176
    vertex 23.000000000000007 15.0 1.4999999999999991
    vertex 23.000000000000007 13.535533905932736 5.035533905932738
  endloop
endfacet
facet normal 1.0 0.0 0.0
  outer loop
    vertex 23.000000000000007 13.535533905932736 5.035533905932738
    vertex 23.000000000000007 15.0 1.4999999999999991
    vertex 23.000000000000007 13.966766701456175 4.543807145043602
  endloop
endfacet
facet normal 1.0 0.0 0.0
  outer loop
    vertex 23.000000000000007 13.966766701456175 4.543807145043602
    vertex 23.000000000000007 15.0 1.4999999999999991
    vertex 23.000000000000007 14.330127018922191 3.9999999999999996
  endloop
endfacet
facet normal 1.0 0.0 0.0
  outer loop
    vertex 23.000000000000007 14.330127018922191 3.9999999999999996
    vertex 23.000000000000007 15.0 1.4999999999999991
    vertex 23.000000000000007 14.619397662556432 3.413417161825449
  endloop
endfacet
facet normal 1.0 0.0 0.0
  outer loop
    vertex 23.000000000000007 14.619397662556432 3.413417161825449
    vertex 23.000000000000007 15.0 1.4999999999999991
    vertex 23.000000000000007 14.829629131445342 2.7940952255126033
  endloop
endfacet
facet normal 1.0 0.0 0.0
  outer loop
    vertex 23.000000000000007 14.829629131445342 2.7940952255126033
    vertex 23.000000000000007 15.0 1.4999999999999991
    vertex 23.000000000000007 14.95722430686905 2.152630961100257
  endloop
endfacet
facet normal -0.1305261922200502 -0.9914448613738107 -1.634825142731978e-32
  outer loop
    vertex 25.465874281184544 4.738666487320323 1.5
    vertex 25.000000000000004 4.8 7.049916206369744e-16
    vertex 25.465874281184544 4.738666487320323 7.049916206369744e-16
  endloop
endfacet
facet normal -0.1305261922200502 -0.9914448613738107 -1.634825142731978e-32
  outer loop
    vertex 25.000000000000004 4.8 7.049916206369744e-16
    vertex 25.465874281184544 4.738666487320323 1.5
    vertex 25.000000000000004 4.8 1.5
  endloop
endfacet
facet normal 0.13052619222005166 -0.9914448613738104 3.674353061317115e-33
  outer loop
    vertex 25.000000000000004 4.8 1.5
    vertex 24.534125718815467 4.738666487320322 7.049916206369744e-16
    vertex 25.000000000000004 4.8 7.049916206369744e-16
  endloop
endfacet
facet normal 0.13052619222005166 -0.9914448613738104 3.674353061317115e-33
  outer loop
    vertex 24.534125718815467 4.738666487320322 7.049916206369744e-16
    vertex 25.000000000000004 4.8 1.5
    vertex 24.534125718815467 4.738666487320322 1.5
  endloop
endfacet
facet normal 0.3826834323650906 -0.9238795325112865 2.3446556460980945e-32
  outer loop
    vertex 24.534125718815467 4.738666487320322 1.5
    vertex 24.100000000000005 4.558845726811989 7.049916206369744e-16
    vertex 24.534125718815467 4.738666487320322 7.049916206369744e-16
  endloop
endfacet
facet normal 0.3826834323650906 -0.9238795325112865 2.3446556460980945e-32
  outer loop
    vertex 24.100000000000005 4.558845726811989 7.049916206369744e-16
    vertex 24.534125718815467 4.738666487320322 1.5
    vertex 24.100000000000005 4.558845726811989 1.5
  endloop
endfacet
facet normal 0.6087614290087228 -0.7933533402912337 4.162091578509556e-32
  outer loop
    vertex 24.100000000000005 4.558845726811989 1.5
    vertex 23.72720779386422 4.272792206135785 7.049916206369744e-16
    vertex 24.100000000000005 4.558845726811989 7.049916206369744e-16
  endloop
endfacet
facet normal 0.6087614290087228 -0.7933533402912337 4.162091578509556e-32
  outer loop
    vertex 23.72720779386422 4.272792206135785 7.049916206369744e-16
    vertex 24.100000000000005 4.558845726811989 1.5
    vertex 23.72720779386422 4.272792206135785 1.5
  endloop
endfacet
facet normal 0.7933533402912342 -0.6087614290087219 5.6958878480271e-32
  outer loop
    vertex 23.72720779386422 4.272792206135785 7.049916206369744e-16
    vertex 23.441154273188015 3.8999999999999986 1.5
    vertex 23.441154273188015 3.8999999999999986 7.049916206369744e-16
  endloop
endfacet
facet normal 0.7933533402912342 -0.6087614290087219 5.6958878480271e-32
  outer loop
    vertex 23.441154273188015 3.8999999999999986 1.5
    vertex 23.72720779386422 4.272792206135785 7.049916206369744e-16
    vertex 23.72720779386422 4.272792206135785 1.5
  endloop
endfacet
facet normal 0.9238795325112867 -0.3826834323650898 6.841518773601358e-32
  outer loop
    vertex 23.441154273188015 3.8999999999999986 7.049916206369744e-16
    vertex 23.26133351267968 3.465874281184537 1.5
    vertex 23.26133351267968 3.465874281184537 7.049916206369744e-16
  endloop
endfacet
facet normal 0.9238795325112867 -0.3826834323650898 6.841518773601358e-32
  outer loop
    vertex 23.26133351267968 3.465874281184537 1.5
    vertex 23.441154273188015 3.8999999999999986 7.049916206369744e-16
    vertex 23.441154273188015 3.8999999999999986 1.5
  endloop
endfacet
facet normal 0.9914448613738106 -0.13052619222005069 7.520911500899024e-32
  outer loop
    vertex 23.26133351267968 3.465874281184537 7.049916206369744e-16
    vertex 23.200000000000006 3.0 1.5
    vertex 23.200000000000006 3.0 7.049916206369744e-16
  endloop
endfacet
facet normal 0.9914448613738106 -0.13052619222005069 7.520911500899024e-32
  outer loop
    vertex 23.200000000000006 3.0 1.5
    vertex 23.26133351267968 3.465874281184537 7.049916206369744e-16
    vertex 23.26133351267968 3.465874281184537 1.5
  endloop
endfacet
facet normal 0.9914448613738107 0.1305261922200503 7.687766538304332e-32
  outer loop
    vertex 23.200000000000006 3.0 7.049916206369744e-16
    vertex 23.26133351267968 2.5341257188154613 1.5
    vertex 23.26133351267968 2.5341257188154613 7.049916206369744e-16
  endloop
endfacet
facet normal 0.9914448613738107 0.1305261922200503 7.687766538304332e-32
  outer loop
    vertex 23.26133351267968 2.5341257188154613 1.5
    vertex 23.200000000000006 3.0 7.049916206369744e-16
    vertex 23.200000000000006 3.0 1.5
  endloop
endfacet
facet normal 0.9238795325112867 0.3826834323650898 7.330712990759097e-32
  outer loop
    vertex 23.26133351267968 2.5341257188154613 7.049916206369744e-16
    vertex 23.441154273188015 2.0999999999999996 1.5
    vertex 23.441154273188015 2.0999999999999996 7.049916206369744e-16
  endloop
endfacet
facet normal 0.9238795325112867 0.3826834323650898 7.330712990759097e-32
  outer loop
    vertex 23.441154273188015 2.0999999999999996 1.5
    vertex 23.26133351267968 2.5341257188154613 7.049916206369744e-16
    vertex 23.26133351267968 2.5341257188154613 1.5
  endloop
endfacet
facet normal 0.7933533402912335 0.608761429008723 6.474083467469635e-32
  outer loop
    vertex 23.441154273188015 2.0999999999999996 7.049916206369744e-16
    vertex 23.72720779386422 1.727207793864214 1.5
    vertex 23.72720779386422 1.727207793864214 7.049916206369744e-16
  endloop
endfacet
facet normal 0.7933533402912335 0.608761429008723 6.474083467469635e-32
  outer loop
    vertex 23.72720779386422 1.727207793864214 1.5
    vertex 23.441154273188015 2.0999999999999996 7.049916206369744e-16
    vertex 23.441154273188015 2.0999999999999996 1.5
  endloop
endfacet
facet normal 0.6087614290087195 0.793353340291236 5.176255854800926e-32
  outer loop
    vertex 23.72720779386422 1.727207793864214 1.5
    vertex 24.100000000000005 1.4411542731880107 7.049916206369744e-16
    vertex 23.72720779386422 1.727207793864214 7.049916206369744e-16
  endloop
endfacet
facet normal 0.6087614290087195 0.793353340291236 5.176255854800926e-32
  outer loop
    vertex 24.100000000000005 1.4411542731880107 7.049916206369744e-16
    vertex 23.72720779386422 1.727207793864214 1.5
    vertex 24.100000000000005 1.4411542731880107 1.5
  endloop
endfacet
facet normal 0.3826834323650896 0.923879532511287 3.52567495979479e-32
  outer loop
    vertex 24.100000000000005 1.4411542731880107 1.5
    vertex 24.53412571881547 1.2613335126796776 7.049916206369744e-16
    vertex 24.100000000000005 1.4411542731880107 7.049916206369744e-16
  endloop
endfacet
facet normal 0.3826834323650896 0.923879532511287 3.52567495979479e-32
  outer loop
    vertex 24.53412571881547 1.2613335126796776 7.049916206369744e-16
    vertex 24.100000000000005 1.4411542731880107 1.5
    vertex 24.53412571881547 1.2613335126796776 1.5
  endloop
endfacet
facet normal 0.1305261922200517 0.9914448613738105 1.6348251427319894e-32
  outer loop
    vertex 24.53412571881547 1.2613335126796776 1.5
    vertex 25.000000000000004 1.2000000000000006 7.049916206369744e-16
    vertex 24.53412571881547 1.2613335126796776 7.049916206369744e-16
  endloop
endfacet
facet normal 0.1305261922200517 0.9914448613738105 1.6348251427319894e-32
  outer loop
    vertex 25.000000000000004 1.2000000000000006 7.049916206369744e-16
    vertex 24.53412571881547 1.2613335126796776 1.5
    vertex 25.000000000000004 1.2000000000000006 1.5
  endloop
endfacet
facet normal -0.13052619222005166 0.9914448613738104 -3.674353061317115e-33
  outer loop
    vertex 25.000000000000004 1.2000000000000006 1.5
    vertex 25.465874281184544 1.2613335126796779 7.049916206369744e-16
    vertex 25.000000000000004 1.2000000000000006 7.049916206369744e-16
  endloop
endfacet
facet normal -0.13052619222005166 0.9914448613738104 -3.674353061317115e-33
  outer loop
    vertex 25.465874281184544 1.2613335126796779 7.049916206369744e-16
    vertex 25.000000000000004 1.2000000000000006 1.5
    vertex 25.465874281184544 1.2613335126796779 1.5
  endloop
endfacet
facet normal -0.3826834323650921 0.923879532511286 -2.344655646098106e-32
  outer loop
    vertex 25.465874281184544 1.2613335126796779 1.5
    vertex 25.900000000000002 1.4411542731880111 7.049916206369744e-16
    vertex 25.465874281184544 1.2613335126796779 7.049916206369744e-16
  endloop
endfacet
facet normal -0.3826834323650921 0.923879532511286 -2.344655646098106e-32
  outer loop
    vertex 25.900000000000002 1.4411542731880111 7.049916206369744e-16
    vertex 25.465874281184544 1.2613335126796779 1.5
    vertex 25.900000000000002 1.4411542731880111 1.5
  endloop
endfacet
facet normal -0.6087614290087203 0.7933533402912356 -4.162091578509536e-32
  outer loop
    vertex 25.900000000000002 1.4411542731880111 1.5
    vertex 26.27279220613579 1.7272077938642152 7.049916206369744e-16
    vertex 25.900000000000002 1.4411542731880111 7.049916206369744e-16
  endloop
endfacet
facet normal -0.6087614290087203 0.7933533402912356 -4.162091578509536e-32
  outer loop
    vertex 26.27279220613579 1.7272077938642152 7.049916206369744e-16
    vertex 25.900000000000002 1.4411542731880111 1.5
    vertex 26.27279220613579 1.7272077938642152 1.5
  endloop
endfacet
facet normal -0.7933533402912363 0.6087614290087192 -5.695887848027118e-32
  outer loop
    vertex 26.55884572681199 2.1000000000000005 1.5
    vertex 26.27279220613579 1.7272077938642152 7.049916206369744e-16
    vertex 26.27279220613579 1.7272077938642152 1.5
  endloop
endfacet
facet normal -0.7933533402912363 0.6087614290087192 -5.695887848027118e-32
  outer loop
    vertex 26.27279220613579 1.7272077938642152 7.049916206369744e-16
    vertex 26.55884572681199 2.1000000000000005 1.5
    vertex 26.55884572681199 2.1000000000000005 7.049916206369744e-16
  endloop
endfacet
facet normal -0.9238795325112849 0.3826834323650944 -6.841518773601341e-32
  outer loop
    vertex 26.738666487320327 2.534125718815463 1.5
    vertex 26.55884572681199 2.1000000000000005 7.049916206369744e-16
    vertex 26.55884572681199 2.1000000000000005 1.5
  endloop
endfacet
facet normal -0.9238795325112849 0.3826834323650944 -6.841518773601341e-32
  outer loop
    vertex 26.55884572681199 2.1000000000000005 7.049916206369744e-16
    vertex 26.738666487320327 2.534125718815463 1.5
    vertex 26.738666487320327 2.534125718815463 7.049916206369744e-16
  endloop
endfacet
facet normal -0.9914448613738099 0.1305261922200566 -7.520911500899015e-32
  outer loop
    vertex 26.800000000000008 3.0 1.5
    vertex 26.738666487320327 2.534125718815463 7.049916206369744e-16
    vertex 26.738666487320327 2.534125718815463 1.5
  endloop
endfacet
facet normal -0.9914448613738099 0.1305261922200566 -7.520911500899015e-32
  outer loop
    vertex 26.738666487320327 2.534125718815463 7.049916206369744e-16
    vertex 26.800000000000008 3.0 1.5
    vertex 26.800000000000008 3.0 7.049916206369744e-16
  endloop
endfacet
facet normal -0.9914448613738097 -0.1305261922200565 -7.687766538304327e-32
  outer loop
    vertex 26.738666487320327 3.4658742811845373 1.5
    vertex 26.800000000000008 3.0 7.049916206369744e-16
    vertex 26.800000000000008 3.0 1.5
  endloop
endfacet
facet normal -0.9914448613738097 -0.1305261922200565 -7.687766538304327e-32
  outer loop
    vertex 26.800000000000008 3.0 7.049916206369744e-16
    vertex 26.738666487320327 3.4658742811845373 1.5
    vertex 26.738666487320327 3.4658742811845373 7.049916206369744e-16
  endloop
endfacet
facet normal -0.9238795325112849 -0.3826834323650944 -7.330712990759085e-32
  outer loop
    vertex 26.55884572681199 3.9 1.5
    vertex 26.738666487320327 3.4658742811845373 7.049916206369744e-16
    vertex 26.738666487320327 3.4658742811845373 1.5
  endloop
endfacet
facet normal -0.9238795325112849 -0.3826834323650944 -7.330712990759085e-32
  outer loop
    vertex 26.738666487320327 3.4658742811845373 7.049916206369744e-16
    vertex 26.55884572681199 3.9 1.5
    vertex 26.55884572681199 3.9 7.049916206369744e-16
  endloop
endfacet
facet normal -0.7933533402912365 -0.6087614290087189 -6.474083467469656e-32
  outer loop
    vertex 26.27279220613579 4.272792206135786 1.5
    vertex 26.55884572681199 3.9 7.049916206369744e-16
    vertex 26.55884572681199 3.9 1.5
  endloop
endfacet
facet normal -0.7933533402912365 -0.6087614290087189 -6.474083467469656e-32
  outer loop
    vertex 26.55884572681199 3.9 7.049916206369744e-16
    vertex 26.27279220613579 4.272792206135786 1.5
    vertex 26.27279220613579 4.272792206135786 7.049916206369744e-16
  endloop
endfacet
facet normal -0.6087614290087198 -0.7933533402912358 -5.176255854800928e-32
  outer loop
    vertex 26.27279220613579 4.272792206135786 1.5
    vertex 25.900000000000002 4.558845726811989 7.049916206369744e-16
    vertex 26.27279220613579 4.272792206135786 7.049916206369744e-16
  endloop
endfacet
facet normal -0.6087614290087198 -0.7933533402912358 -5.176255854800928e-32
  outer loop
    vertex 25.900000000000002 4.558845726811989 7.049916206369744e-16
    vertex 26.27279220613579 4.272792206135786 1.5
    vertex 25.900000000000002 4.558845726811989 1.5
  endloop
endfacet
facet normal -0.38268343236509267 -0.9238795325112855 -3.525674959794812e-32
  outer loop
    vertex 25.900000000000002 4.558845726811989 1.5
    vertex 25.465874281184544 4.738666487320323 7.049916206369744e-16
    vertex 25.900000000000002 4.558845726811989 7.049916206369744e-16
  endloop
endfacet
facet normal -0.38268343236509267 -0.9238795325112855 -3.525674959794812e-32
  outer loop
    vertex 25.465874281184544 4.738666487320323 7.049916206369744e-16
    vertex 25.900000000000002 4.558845726811989 1.5
    vertex 25.465874281184544 4.738666487320323 1.5
  endloop
endfacet
facet normal -0.1305261922200502 -0.9914448613738107 -5.403269421211729e-32
  outer loop
    vertex 25.465874281184544 18.738666487320323 1.5
    vertex 25.000000000000004 18.8 0.0
    vertex 25.465874281184544 18.738666487320323 0.0
  endloop
endfacet
facet normal -0.1305261922200502 -0.9914448613738107 -5.403269421211729e-32
  outer loop
    vertex 25.000000000000004 18.8 0.0
    vertex 25.465874281184544 18.738666487320323 1.5
    vertex 25.000000000000004 18.8 1.5
  endloop
endfacet
facet normal 0.1305261922200502 -0.9914448613738107 -4.7358492715905035e-32
  outer loop
    vertex 25.000000000000004 18.8 1.5
    vertex 24.534125718815467 18.738666487320323 0.0
    vertex 25.000000000000004 18.8 0.0
  endloop
endfacet
facet normal 0.1305261922200502 -0.9914448613738107 -4.7358492715905035e-32
  outer loop
    vertex 24.534125718815467 18.738666487320323 0.0
    vertex 25.000000000000004 18.8 1.5
    vertex 24.534125718815467 18.738666487320323 1.5
  endloop
endfacet
facet normal 0.3826834323650892 -0.923879532511287 -3.7456888204713404e-32
  outer loop
    vertex 24.534125718815467 18.738666487320323 1.5
    vertex 24.100000000000005 18.558845726811988 0.0
    vertex 24.534125718815467 18.738666487320323 0.0
  endloop
endfacet
facet normal 0.3826834323650892 -0.923879532511287 -3.7456888204713404e-32
  outer loop
    vertex 24.100000000000005 18.558845726811988 0.0
    vertex 24.534125718815467 18.738666487320323 1.5
    vertex 24.100000000000005 18.558845726811988 1.5
  endloop
endfacet
facet normal 0.6087614290087255 -0.7933533402912315 -2.5002658662804743e-32
  outer loop
    vertex 24.100000000000005 18.558845726811988 1.5
    vertex 23.72720779386422 18.272792206135783 0.0
    vertex 24.100000000000005 18.558845726811988 0.0
  endloop
endfacet
facet normal 0.6087614290087255 -0.7933533402912315 -2.5002658662804743e-32
  outer loop
    vertex 23.72720779386422 18.272792206135783 0.0
    vertex 24.100000000000005 18.558845726811988 1.5
    vertex 23.72720779386422 18.272792206135783 1.5
  endloop
endfacet
facet normal 0.7933533402912338 -0.6087614290087227 -1.0844539251873787e-32
  outer loop
    vertex 23.72720779386422 18.272792206135783 0.0
    vertex 23.441154273188015 17.9 1.5
    vertex 23.441154273188015 17.9 0.0
  endloop
endfacet
facet normal 0.7933533402912338 -0.6087614290087227 -1.0844539251873787e-32
  outer loop
    vertex 23.441154273188015 17.9 1.5
    vertex 23.72720779386422 18.272792206135783 0.0
    vertex 23.72720779386422 18.272792206135783 1.5
  endloop
endfacet
facet normal 0.923879532511287 -0.3826834323650892 4.052617587624524e-33
  outer loop
    vertex 23.441154273188015 17.9 0.0
    vertex 23.26133351267968 17.465874281184536 1.5
    vertex 23.26133351267968 17.465874281184536 0.0
  endloop
endfacet
facet normal 0.923879532511287 -0.3826834323650892 4.052617587624524e-33
  outer loop
    vertex 23.26133351267968 17.465874281184536 1.5
    vertex 23.441154273188015 17.9 0.0
    vertex 23.441154273188015 17.9 1.5
  endloop
endfacet
facet normal 0.9914448613738105 -0.13052619222005096 1.8673595235793273e-32
  outer loop
    vertex 23.26133351267968 17.465874281184536 0.0
    vertex 23.200000000000006 17.0 1.5
    vertex 23.200000000000006 17.0 0.0
  endloop
endfacet
facet normal 0.9914448613738105 -0.13052619222005096 1.8673595235793273e-32
  outer loop
    vertex 23.200000000000006 17.0 1.5
    vertex 23.26133351267968 17.465874281184536 0.0
    vertex 23.26133351267968 17.465874281184536 1.5
  endloop
endfacet
facet normal 0.9914448613738107 0.1305261922200502 3.202199822821783e-32
  outer loop
    vertex 23.200000000000006 17.0 0.0
    vertex 23.26133351267968 16.53412571881546 1.5
    vertex 23.26133351267968 16.53412571881546 0.0
  endloop
endfacet
facet normal 0.9914448613738107 0.1305261922200502 3.202199822821783e-32
  outer loop
    vertex 23.26133351267968 16.53412571881546 1.5
    vertex 23.200000000000006 17.0 0.0
    vertex 23.200000000000006 17.0 1.5
  endloop
endfacet
facet normal 0.923879532511287 0.3826834323650892 4.318815496024365e-32
  outer loop
    vertex 23.26133351267968 16.53412571881546 0.0
    vertex 23.441154273188015 16.099999999999998 1.5
    vertex 23.441154273188015 16.099999999999998 0.0
  endloop
endfacet
facet normal 0.923879532511287 0.3826834323650892 4.318815496024365e-32
  outer loop
    vertex 23.441154273188015 16.099999999999998 1.5
    vertex 23.26133351267968 16.53412571881546 0.0
    vertex 23.26133351267968 16.53412571881546 1.5
  endloop
endfacet
facet normal 0.7933533402912315 0.6087614290087255 5.141111030352963e-32
  outer loop
    vertex 23.441154273188015 16.099999999999998 0.0
    vertex 23.72720779386422 15.727207793864215 1.5
    vertex 23.72720779386422 15.727207793864215 0.0
  endloop
endfacet
facet normal 0.7933533402912315 0.6087614290087255 5.141111030352963e-32
  outer loop
    vertex 23.72720779386422 15.727207793864215 1.5
    vertex 23.441154273188015 16.099999999999998 0.0
    vertex 23.441154273188015 16.099999999999998 1.5
  endloop
endfacet
facet normal 0.6087614290087227 0.7933533402912338 5.613048344050659e-32
  outer loop
    vertex 23.72720779386422 15.727207793864215 1.5
    vertex 24.100000000000005 15.44115427318801 0.0
    vertex 23.72720779386422 15.727207793864215 0.0
  endloop
endfacet
facet normal 0.6087614290087227 0.7933533402912338 5.613048344050659e-32
  outer loop
    vertex 24.100000000000005 15.44115427318801 0.0
    vertex 23.72720779386422 15.727207793864215 1.5
    vertex 24.100000000000005 15.44115427318801 1.5
  endloop
endfacet
facet normal 0.3826834323650892 0.923879532511287 5.702465689102296e-32
  outer loop
    vertex 24.100000000000005 15.44115427318801 1.5
    vertex 24.53412571881547 15.261333512679677 0.0
    vertex 24.100000000000005 15.44115427318801 0.0
  endloop
endfacet
facet normal 0.3826834323650892 0.923879532511287 5.702465689102296e-32
  outer loop
    vertex 24.53412571881547 15.261333512679677 0.0
    vertex 24.100000000000005 15.44115427318801 1.5
    vertex 24.53412571881547 15.261333512679677 1.5
  endloop
endfacet
facet normal 0.13052619222005096 0.9914448613738105 5.40326942121173e-32
  outer loop
    vertex 24.53412571881547 15.261333512679677 1.5
    vertex 25.000000000000004 15.200000000000001 0.0
    vertex 24.53412571881547 15.261333512679677 0.0
  endloop
endfacet
facet normal 0.13052619222005096 0.9914448613738105 5.40326942121173e-32
  outer loop
    vertex 25.000000000000004 15.200000000000001 0.0
    vertex 24.53412571881547 15.261333512679677 1.5
    vertex 25.000000000000004 15.200000000000001 1.5
  endloop
endfacet
facet normal -0.1305261922200502 0.9914448613738107 4.7358492715905035e-32
  outer loop
    vertex 25.000000000000004 15.200000000000001 1.5
    vertex 25.465874281184544 15.261333512679677 0.0
    vertex 25.000000000000004 15.200000000000001 0.0
  endloop
endfacet
facet normal -0.1305261922200502 0.9914448613738107 4.7358492715905035e-32
  outer loop
    vertex 25.465874281184544 15.261333512679677 0.0
    vertex 25.000000000000004 15.200000000000001 1.5
    vertex 25.465874281184544 15.261333512679677 1.5
  endloop
endfacet
facet normal -0.38268343236509134 0.9238795325112861 3.7456888204713305e-32
  outer loop
    vertex 25.465874281184544 15.261333512679677 1.5
    vertex 25.900000000000002 15.44115427318801 0.0
    vertex 25.465874281184544 15.261333512679677 0.0
  endloop
endfacet
facet normal -0.38268343236509134 0.9238795325112861 3.7456888204713305e-32
  outer loop
    vertex 25.900000000000002 15.44115427318801 0.0
    vertex 25.465874281184544 15.261333512679677 1.5
    vertex 25.900000000000002 15.44115427318801 1.5
  endloop
endfacet
facet normal -0.6087614290087227 0.7933533402912338 2.5002658662804935e-32
  outer loop
    vertex 25.900000000000002 15.44115427318801 1.5
    vertex 26.27279220613579 15.727207793864215 0.0
    vertex 25.900000000000002 15.44115427318801 0.0
  endloop
endfacet
facet normal -0.6087614290087227 0.7933533402912338 2.5002658662804935e-32
  outer loop
    vertex 26.27279220613579 15.727207793864215 0.0
    vertex 25.900000000000002 15.44115427318801 1.5
    vertex 26.27279220613579 15.727207793864215 1.5
  endloop
endfacet
facet normal -0.7933533402912308 0.6087614290087264 1.0844539251874056e-32
  outer loop
    vertex 26.558845726812 16.1 1.5
    vertex 26.27279220613579 15.727207793864215 0.0
    vertex 26.27279220613579 15.727207793864215 1.5
  endloop
endfacet
facet normal -0.7933533402912308 0.6087614290087264 1.0844539251874056e-32
  outer loop
    vertex 26.27279220613579 15.727207793864215 0.0
    vertex 26.558845726812 16.1 1.5
    vertex 26.558845726812 16.1 0.0
  endloop
endfacet
facet normal -0.9238795325112891 0.3826834323650841 -4.052617587624841e-33
  outer loop
    vertex 26.738666487320327 16.534125718815464 1.5
    vertex 26.558845726812 16.1 0.0
    vertex 26.558845726812 16.1 1.5
  endloop
endfacet
facet normal -0.9238795325112891 0.3826834323650841 -4.052617587624841e-33
  outer loop
    vertex 26.558845726812 16.1 0.0
    vertex 26.738666487320327 16.534125718815464 1.5
    vertex 26.738666487320327 16.534125718815464 0.0
  endloop
endfacet
facet normal -0.9914448613738097 0.13052619222005687 -1.8673595235792952e-32
  outer loop
    vertex 26.800000000000008 17.0 1.5
    vertex 26.738666487320327 16.534125718815464 0.0
    vertex 26.738666487320327 16.534125718815464 1.5
  endloop
endfacet
facet normal -0.9914448613738097 0.13052619222005687 -1.8673595235792952e-32
  outer loop
    vertex 26.738666487320327 16.534125718815464 0.0
    vertex 26.800000000000008 17.0 1.5
    vertex 26.800000000000008 17.0 0.0
  endloop
endfacet
facet normal -0.9914448613738099 -0.1305261922200561 -3.202199822821811e-32
  outer loop
    vertex 26.738666487320327 17.46587428118454 1.5
    vertex 26.800000000000008 17.0 0.0
    vertex 26.800000000000008 17.0 1.5
  endloop
endfacet
facet normal -0.9914448613738099 -0.1305261922200561 -3.202199822821811e-32
  outer loop
    vertex 26.800000000000008 17.0 0.0
    vertex 26.738666487320327 17.46587428118454 1.5
    vertex 26.738666487320327 17.46587428118454 0.0
  endloop
endfacet
facet normal -0.9238795325112849 -0.3826834323650944 -4.3188154960243856e-32
  outer loop
    vertex 26.55884572681199 17.900000000000002 1.5
    vertex 26.738666487320327 17.46587428118454 0.0
    vertex 26.738666487320327 17.46587428118454 1.5
  endloop
endfacet
facet normal -0.9238795325112849 -0.3826834323650944 -4.3188154960243856e-32
  outer loop
    vertex 26.738666487320327 17.46587428118454 0.0
    vertex 26.55884572681199 17.900000000000002 1.5
    vertex 26.55884572681199 17.900000000000002 0.0
  endloop
endfacet
facet normal -0.7933533402912365 -0.6087614290087189 -5.141111030352941e-32
  outer loop
    vertex 26.27279220613579 18.272792206135787 1.5
    vertex 26.55884572681199 17.900000000000002 0.0
    vertex 26.55884572681199 17.900000000000002 1.5
  endloop
endfacet
facet normal -0.7933533402912365 -0.6087614290087189 -5.141111030352941e-32
  outer loop
    vertex 26.55884572681199 17.900000000000002 0.0
    vertex 26.27279220613579 18.272792206135787 1.5
    vertex 26.27279220613579 18.272792206135787 0.0
  endloop
endfacet
facet normal -0.6087614290087189 -0.7933533402912365 -5.613048344050664e-32
  outer loop
    vertex 26.27279220613579 18.272792206135787 1.5
    vertex 25.900000000000002 18.558845726811988 0.0
    vertex 26.27279220613579 18.272792206135787 0.0
  endloop
endfacet
facet normal -0.6087614290087189 -0.7933533402912365 -5.613048344050664e-32
  outer loop
    vertex 25.900000000000002 18.558845726811988 0.0
    vertex 26.27279220613579 18.272792206135787 1.5
    vertex 25.900000000000002 18.558845726811988 1.5
  endloop
endfacet
facet normal -0.38268343236509134 -0.9238795325112861 -5.702465689102297e-32
  outer loop
    vertex 25.900000000000002 18.558845726811988 1.5
    vertex 25.465874281184544 18.738666487320323 0.0
    vertex 25.900000000000002 18.558845726811988 0.0
  endloop
endfacet
facet normal -0.38268343236509134 -0.9238795325112861 -5.702465689102297e-32
  outer loop
    vertex 25.465874281184544 18.738666487320323 0.0
    vertex 25.900000000000002 18.558845726811988 1.5
    vertex 25.465874281184544 18.738666487320323 1.5
  endloop
endfacet
facet normal 1.0 -0.0 -0.0
  outer loop
    vertex 30.000000000000007 21.7 0.0
    vertex 30.000000000000007 -1.7 1.5
    vertex 30.000000000000007 -1.7 0.0
  endloop
endfacet
facet normal 1.0 -0.0 -0.0
  outer loop
    vertex 30.000000000000007 -1.7 1.5
    vertex 30.000000000000007 21.7 0.0
    vertex 30.000000000000007 -0.20000000000000004 1.5
  endloop
endfacet
facet normal 1.0 -0.0 -0.0
  outer loop
    vertex 30.000000000000007 -0.20000000000000004 1.5
    vertex 30.000000000000007 21.7 0.0
    vertex 30.000000000000007 20.2 1.5
  endloop
endfacet
facet normal 1.0 -0.0 -0.0
  outer loop
    vertex 30.000000000000007 20.2 1.5
    vertex 30.000000000000007 21.7 0.0
    vertex 30.000000000000007 21.7 1.5
  endloop
endfacet
endsolid case
