solid oled
facet normal -0.0 -0.0 1.0
  outer loop
    vertex 31.999999999999996 -0.4000000000000001 1.5
    vertex 11.0 12.4 1.5
    vertex 11.0 -0.4000000000000001 1.5
  endloop
endfacet
facet normal -0.0 -0.0 1.0
  outer loop
    vertex 11.0 12.4 1.5
    vertex 31.999999999999996 -0.4000000000000001 1.5
    vertex 31.999999999999996 12.4 1.5
  endloop
endfacet
facet normal -0.0 -0.0 1.0
  outer loop
    vertex 11.0 -0.4000000000000001 3.0
    vertex 0.0 12.4 3.0
    vertex 0.0 -0.4000000000000001 3.0
  endloop
endfacet
facet normal -0.0 -0.0 1.0
  outer loop
    vertex 0.0 12.4 3.0
    vertex 11.0 -0.4000000000000001 3.0
    vertex 11.0 12.4 3.0
  endloop
endfacet
facet normal 1.0 -0.0 -0.0
  outer loop
    vertex 11.0 12.4 1.5
    vertex 11.0 -0.4000000000000001 3.0
    vertex 11.0 -0.4000000000000001 1.5
  endloop
endfacet
facet normal 1.0 -0.0 -0.0
  outer loop
    vertex 11.0 -0.4000000000000001 3.0
    vertex 11.0 12.4 1.5
    vertex 11.0 12.4 3.0
  endloop
endfacet
facet normal -1.0 0.0 0.0
  outer loop
    vertex -1.5 -1.6951180000000003 6.1000000000000005
    vertex -1.5 13.700000000000001 0.0
    vertex -1.5 -1.7 0.0
  endloop
endfacet
facet normal -1.0 0.0 0.0
  outer loop
    vertex -1.5 13.700000000000001 0.0
    vertex -1.5 -1.6951180000000003 6.1000000000000005
    vertex -1.5 13.700000000000001 6.1000000000000005
  endloop
endfacet
facet normal 1.0 -0.0 -0.0
  outer loop
    vertex 31.999999999999996 -1.7 0.0
    vertex 31.999999999999996 -0.4000000000000001 1.5
    vertex 31.999999999999996 -1.6951180000000003 6.1000000000000005
  endloop
endfacet
facet normal 1.0 -0.0 -0.0
  outer loop
    vertex 31.999999999999996 -0.4000000000000001 1.5
    vertex 31.999999999999996 -1.7 0.0
    vertex 31.999999999999996 13.700000000000001 0.0
  endloop
endfacet
facet normal 1.0 -0.0 -0.0
  outer loop
    vertex 31.999999999999996 -0.4000000000000001 1.5
    vertex 31.999999999999996 13.700000000000001 0.0
    vertex 31.999999999999996 12.4 1.5
  endloop
endfacet
facet normal 1.0 -0.0 -0.0
  outer loop
    vertex 31.999999999999996 12.4 1.5
    vertex 31.999999999999996 13.700000000000001 0.0
    vertex 31.999999999999996 12.4 6.1000000000000005
  endloop
endfacet
facet normal 1.0 -0.0 -0.0
  outer loop
    vertex 31.999999999999996 12.4 6.1000000000000005
    vertex 31.999999999999996 13.700000000000001 0.0
    vertex 31.999999999999996 13.700000000000001 6.1000000000000005
  endloop
endfacet
facet normal 1.0 -0.0 -0.0
  outer loop
    vertex 31.999999999999996 -0.4000000000000001 6.1000000000000005
    vertex 31.999999999999996 -1.6951180000000003 6.1000000000000005
    vertex 31.999999999999996 -0.4000000000000001 1.5
  endloop
endfacet
facet normal 0.0 1.0 0.0
  outer loop
    vertex 0.0 -0.4000000000000001 6.1000000000000005
    vertex 11.0 -0.4000000000000001 3.0
    vertex 0.0 -0.4000000000000001 3.0
  endloop
endfacet
facet normal 0.0 1.0 0.0
  outer loop
    vertex 11.0 -0.4000000000000001 3.0
    vertex 31.999999999999996 -0.4000000000000001 1.5
    vertex 11.0 -0.4000000000000001 1.5
  endloop
endfacet
facet normal 0.0 1.0 0.0
  outer loop
    vertex 31.999999999999996 -0.4000000000000001 1.5
    vertex 11.0 -0.4000000000000001 3.0
    vertex 31.999999999999996 -0.4000000000000001 6.1000000000000005
  endloop
endfacet
facet normal 0.0 1.0 0.0
  outer loop
    vertex 31.999999999999996 -0.4000000000000001 6.1000000000000005
    vertex 11.0 -0.4000000000000001 3.0
    vertex 0.0 -0.4000000000000001 6.1000000000000005
  endloop
endfacet
facet normal -0.0 -0.0 1.0
  outer loop
    vertex -1.5 -1.6951180000000003 6.1000000000000005
    vertex 0.0 -0.4000000000000001 6.1000000000000005
    vertex -1.5 13.700000000000001 6.1000000000000005
  endloop
endfacet
facet normal -0.0 -0.0 1.0
  outer loop
    vertex 0.0 -0.4000000000000001 6.1000000000000005
    vertex -1.5 -1.6951180000000003 6.1000000000000005
    vertex 31.999999999999996 -1.6951180000000003 6.1000000000000005
  endloop
endfacet
facet normal -0.0 -0.0 1.0
  outer loop
    vertex 0.0 -0.4000000000000001 6.1000000000000005
    vertex 31.999999999999996 -1.6951180000000003 6.1000000000000005
    vertex 31.999999999999996 -0.4000000000000001 6.1000000000000005
  endloop
endfacet
facet normal -0.0 -0.0 1.0
  outer loop
    vertex -1.5 13.700000000000001 6.1000000000000005
    vertex 0.0 12.4 6.1000000000000005
    vertex 31.999999999999996 13.700000000000001 6.1000000000000005
  endloop
endfacet
facet normal -0.0 -0.0 1.0
  outer loop
    vertex 0.0 12.4 6.1000000000000005
    vertex -1.5 13.700000000000001 6.1000000000000005
    vertex 0.0 -0.4000000000000001 6.1000000000000005
  endloop
endfacet
facet normal -0.0 -0.0 1.0
  outer loop
    vertex 31.999999999999996 13.700000000000001 6.1000000000000005
    vertex 0.0 12.4 6.1000000000000005
    vertex 31.999999999999996 12.4 6.1000000000000005
  endloop
endfacet
facet normal 1.0 -0.0 0.0
  outer loop
    vertex 0.0 12.4 3.0
    vertex 0.0 -0.4000000000000001 6.1000000000000005
    vertex 0.0 -0.4000000000000001 3.0
  endloop
endfacet
facet normal 1.0 -0.0 0.0
  outer loop
    vertex 0.0 -0.4000000000000001 6.1000000000000005
    vertex 0.0 12.4 3.0
    vertex 0.0 12.4 6.1000000000000005
  endloop
endfacet
facet normal 0.0 -1.0 0.0
  outer loop
    vertex 31.999999999999996 12.4 6.1000000000000005
    vertex 11.0 12.4 1.5
    vertex 31.999999999999996 12.4 1.5
  endloop
endfacet
facet normal 0.0 -1.0 0.0
  outer loop
    vertex 11.0 12.4 1.5
    vertex 31.999999999999996 12.4 6.1000000000000005
    vertex 11.0 12.4 3.0
  endloop
endfacet
facet normal 0.0 -1.0 0.0
  outer loop
    vertex 11.0 12.4 3.0
    vertex 31.999999999999996 12.4 6.1000000000000005
    vertex 0.0 12.4 3.0
  endloop
endfacet
facet normal 0.0 -1.0 0.0
  outer loop
    vertex 0.0 12.4 3.0
    vertex 31.999999999999996 12.4 6.1000000000000005
    vertex 0.0 12.4 6.1000000000000005
  endloop
endfacet
facet normal 0.0 0.0 1.0
  outer loop
    vertex -1.5 -1.6951180000000003 7.6000000000000005
    vertex 6.0 0.7999999999999999 7.6000000000000005
    vertex -1.5 13.700000000000001 7.6000000000000005
  endloop
endfacet
facet normal 0.0 0.0 1.0
  outer loop
    vertex 6.0 0.7999999999999999 7.6000000000000005
    vertex -1.5 -1.6951180000000003 7.6000000000000005
    vertex 31.999999999999996 -1.6951180000000003 7.6000000000000005
  endloop
endfacet
facet normal 0.0 0.0 1.0
  outer loop
    vertex 6.0 0.7999999999999999 7.6000000000000005
    vertex 31.999999999999996 -1.6951180000000003 7.6000000000000005
    vertex 31.999999999999996 0.7999999999999999 7.6000000000000005
  endloop
endfacet
facet normal 0.0 0.0 1.0
  outer loop
    vertex -1.5 13.700000000000001 7.6000000000000005
    vertex 6.0 11.200000000000001 7.6000000000000005
    vertex 31.999999999999996 13.700000000000001 7.6000000000000005
  endloop
endfacet
facet normal 0.0 0.0 1.0
  outer loop
    vertex 6.0 11.200000000000001 7.6000000000000005
    vertex -1.5 13.700000000000001 7.6000000000000005
    vertex 6.0 0.7999999999999999 7.6000000000000005
  endloop
endfacet
facet normal 0.0 0.0 1.0
  outer loop
    vertex 31.999999999999996 13.700000000000001 7.6000000000000005
    vertex 6.0 11.200000000000001 7.6000000000000005
    vertex 31.999999999999996 11.200000000000001 7.6000000000000005
  endloop
endfacet
facet normal 1.0 -0.0 -0.0
  outer loop
    vertex 31.999999999999996 -0.4000000000000001 6.1000000000000005
    vertex 31.999999999999996 -1.6951180000000003 7.6000000000000005
    vertex 31.999999999999996 -1.6951180000000003 6.1000000000000005
  endloop
endfacet
facet normal 1.0 -0.0 -0.0
  outer loop
    vertex 31.999999999999996 -1.6951180000000003 7.6000000000000005
    vertex 31.999999999999996 -0.4000000000000001 6.1000000000000005
    vertex 31.999999999999996 -0.4000000000000001 6.300000000000001
  endloop
endfacet
facet normal 1.0 -0.0 -0.0
  outer loop
    vertex 31.999999999999996 -1.6951180000000003 7.6000000000000005
    vertex 31.999999999999996 -0.4000000000000001 6.300000000000001
    vertex 31.999999999999996 0.7999999999999999 7.6000000000000005
  endloop
endfacet
facet normal 1.0 -0.0 -0.0
  outer loop
    vertex 31.999999999999996 0.7999999999999999 7.6000000000000005
    vertex 31.999999999999996 -0.4000000000000001 6.300000000000001
    vertex 31.999999999999996 0.7999999999999999 6.300000000000001
  endloop
endfacet
facet normal 1.0 -0.0 -0.0
  outer loop
    vertex 31.999999999999996 13.700000000000001 6.1000000000000005
    vertex 31.999999999999996 12.4 6.300000000000001
    vertex 31.999999999999996 12.4 6.1000000000000005
  endloop
endfacet
facet normal 1.0 -0.0 -0.0
  outer loop
    vertex 31.999999999999996 12.4 6.300000000000001
    vertex 31.999999999999996 11.200000000000001 7.6000000000000005
    vertex 31.999999999999996 11.200000000000001 6.300000000000001
  endloop
endfacet
facet normal 1.0 -0.0 -0.0
  outer loop
    vertex 31.999999999999996 11.200000000000001 7.6000000000000005
    vertex 31.999999999999996 12.4 6.300000000000001
    vertex 31.999999999999996 13.700000000000001 7.6000000000000005
  endloop
endfacet
facet normal 1.0 -0.0 -0.0
  outer loop
    vertex 31.999999999999996 13.700000000000001 7.6000000000000005
    vertex 31.999999999999996 12.4 6.300000000000001
    vertex 31.999999999999996 13.700000000000001 6.1000000000000005
  endloop
endfacet
facet normal -0.0 1.0 -0.0
  outer loop
    vertex -1.5 13.700000000000001 7.6000000000000005
    vertex 31.999999999999996 13.700000000000001 6.1000000000000005
    vertex -1.5 13.700000000000001 6.1000000000000005
  endloop
endfacet
facet normal -0.0 1.0 -0.0
  outer loop
    vertex 31.999999999999996 13.700000000000001 6.1000000000000005
    vertex -1.5 13.700000000000001 7.6000000000000005
    vertex 31.999999999999996 13.700000000000001 7.6000000000000005
  endloop
endfacet
facet normal -1.0 0.0 0.0
  outer loop
    vertex -1.5 13.700000000000001 7.6000000000000005
    vertex -1.5 -1.6951180000000003 6.1000000000000005
    vertex -1.5 -1.6951180000000003 7.6000000000000005
  endloop
endfacet
facet normal -1.0 0.0 0.0
  outer loop
    vertex -1.5 -1.6951180000000003 6.1000000000000005
    vertex -1.5 13.700000000000001 7.6000000000000005
    vertex -1.5 13.700000000000001 6.1000000000000005
  endloop
endfacet
facet normal 0.0 -1.0 0.0
  outer loop
    vertex 31.999999999999996 -1.6951180000000003 7.6000000000000005
    vertex -1.5 -1.6951180000000003 6.1000000000000005
    vertex 31.999999999999996 -1.6951180000000003 6.1000000000000005
  endloop
endfacet
facet normal 0.0 -1.0 0.0
  outer loop
    vertex -1.5 -1.6951180000000003 6.1000000000000005
    vertex 31.999999999999996 -1.6951180000000003 7.6000000000000005
    vertex -1.5 -1.6951180000000003 7.6000000000000005
  endloop
endfacet
facet normal 1.0 0.0 0.0
  outer loop
    vertex 6.0 11.200000000000001 6.300000000000001
    vertex 6.0 0.7999999999999999 7.6000000000000005
    vertex 6.0 0.7999999999999999 6.300000000000001
  endloop
endfacet
facet normal 1.0 0.0 0.0
  outer loop
    vertex 6.0 0.7999999999999999 7.6000000000000005
    vertex 6.0 11.200000000000001 6.300000000000001
    vertex 6.0 11.200000000000001 7.6000000000000005
  endloop
endfacet
facet normal 0.0 1.0 0.0
  outer loop
    vertex 6.0 0.7999999999999999 7.6000000000000005
    vertex 31.999999999999996 0.7999999999999999 6.300000000000001
    vertex 6.0 0.7999999999999999 6.300000000000001
  endloop
endfacet
facet normal 0.0 1.0 0.0
  outer loop
    vertex 31.999999999999996 0.7999999999999999 6.300000000000001
    vertex 6.0 0.7999999999999999 7.6000000000000005
    vertex 31.999999999999996 0.7999999999999999 7.6000000000000005
  endloop
endfacet
facet normal 0.0 -1.0 0.0
  outer loop
    vertex 31.999999999999996 11.200000000000001 7.6000000000000005
    vertex 6.0 11.200000000000001 6.300000000000001
    vertex 31.999999999999996 11.200000000000001 6.300000000000001
  endloop
endfacet
facet normal 0.0 -1.0 0.0
  outer loop
    vertex 6.0 11.200000000000001 6.300000000000001
    vertex 31.999999999999996 11.200000000000001 7.6000000000000005
    vertex 6.0 11.200000000000001 7.6000000000000005
  endloop
endfacet
facet normal 0.0 0.0 -1.0
  outer loop
    vertex 31.999999999999996 13.700000000000001 0.0
    vertex -1.5 -1.7 0.0
    vertex -1.5 13.700000000000001 0.0
  endloop
endfacet
facet normal 0.0 0.0 -1.0
  outer loop
    vertex -1.5 -1.7 0.0
    vertex 31.999999999999996 13.700000000000001 0.0
    vertex 31.999999999999996 -1.7 0.0
  endloop
endfacet
facet normal 8.857438645467836e-34 -0.999999679737805 0.000800327612537648
  outer loop
    vertex 31.999999999999996 -1.6951180000000003 6.1000000000000005
    vertex -1.5 -1.7 0.0
    vertex 31.999999999999996 -1.7 0.0
  endloop
endfacet
facet normal 8.857438645467836e-34 -0.999999679737805 0.000800327612537648
  outer loop
    vertex -1.5 -1.7 0.0
    vertex 31.999999999999996 -1.6951180000000003 6.1000000000000005
    vertex -1.5 -1.6951180000000003 6.1000000000000005
  endloop
endfacet
facet normal -0.0 1.0 -0.0
  outer loop
    vertex -1.5 13.700000000000001 6.1000000000000005
    vertex 31.999999999999996 13.700000000000001 0.0
    vertex -1.5 13.700000000000001 0.0
  endloop
endfacet
facet normal -0.0 1.0 -0.0
  outer loop
    vertex 31.999999999999996 13.700000000000001 0.0
    vertex -1.5 13.700000000000001 6.1000000000000005
    vertex 31.999999999999996 13.700000000000001 6.1000000000000005
  endloop
endfacet
facet normal 0.0 0.0 -1.0
  outer loop
    vertex 0.0 12.4 6.300000000000001
    vertex 6.0 11.200000000000001 6.300000000000001
    vertex 0.0 -0.4000000000000001 6.300000000000001
  endloop
endfacet
facet normal 0.0 0.0 -1.0
  outer loop
    vertex 6.0 11.200000000000001 6.300000000000001
    vertex 0.0 12.4 6.300000000000001
    vertex 31.999999999999996 12.4 6.300000000000001
  endloop
endfacet
facet normal 0.0 0.0 -1.0
  outer loop
    vertex 6.0 11.200000000000001 6.300000000000001
    vertex 31.999999999999996 12.4 6.300000000000001
    vertex 31.999999999999996 11.200000000000001 6.300000000000001
  endloop
endfacet
facet normal 0.0 0.0 -1.0
  outer loop
    vertex 0.0 -0.4000000000000001 6.300000000000001
    vertex 6.0 0.7999999999999999 6.300000000000001
    vertex 31.999999999999996 -0.4000000000000001 6.300000000000001
  endloop
endfacet
facet normal 0.0 0.0 -1.0
  outer loop
    vertex 6.0 0.7999999999999999 6.300000000000001
    vertex 0.0 -0.4000000000000001 6.300000000000001
    vertex 6.0 11.200000000000001 6.300000000000001
  endloop
endfacet
facet normal 0.0 0.0 -1.0
  outer loop
    vertex 31.999999999999996 -0.4000000000000001 6.300000000000001
    vertex 6.0 0.7999999999999999 6.300000000000001
    vertex 31.999999999999996 0.7999999999999999 6.300000000000001
  endloop
endfacet
facet normal 0.0 1.0 0.0
  outer loop
    vertex 0.0 -0.4000000000000001 6.300000000000001
    vertex 31.999999999999996 -0.4000000000000001 6.1000000000000005
    vertex 0.0 -0.4000000000000001 6.1000000000000005
  endloop
endfacet
facet normal 0.0 1.0 0.0
  outer loop
    vertex 31.999999999999996 -0.4000000000000001 6.1000000000000005
    vertex 0.0 -0.4000000000000001 6.300000000000001
    vertex 31.999999999999996 -0.4000000000000001 6.300000000000001
  endloop
endfacet
facet normal 1.0 -0.0 -0.0
  outer loop
    vertex 0.0 12.4 6.1000000000000005
    vertex 0.0 -0.4000000000000001 6.300000000000001
    vertex 0.0 -0.4000000000000001 6.1000000000000005
  endloop
endfacet
facet normal 1.0 -0.0 -0.0
  outer loop
    vertex 0.0 -0.4000000000000001 6.300000000000001
    vertex 0.0 12.4 6.1000000000000005
    vertex 0.0 12.4 6.300000000000001
  endloop
endfacet
facet normal 0.0 -1.0 -0.0
  outer loop
    vertex 31.999999999999996 12.4 6.300000000000001
    vertex 0.0 12.4 6.1000000000000005
    vertex 31.999999999999996 12.4 6.1000000000000005
  endloop
endfacet
facet normal 0.0 -1.0 -0.0
  outer loop
    vertex 0.0 12.4 6.1000000000000005
    vertex 31.999999999999996 12.4 6.300000000000001
    vertex 0.0 12.4 6.300000000000001
  endloop
endfacet
endsolid oled
