solid rotary
facet normal 0.0 0.0 -1.0
  outer loop
    vertex 22.0 20.2 0.0
    vertex 0.0 18.7 0.0
    vertex 0.0 20.2 0.0
  endloop
endfacet
facet normal 0.0 0.0 -1.0
  outer loop
    vertex 0.0 18.7 0.0
    vertex 22.0 20.2 0.0
    vertex 22.0 18.7 0.0
  endloop
endfacet
facet normal 0.0 0.0 -1.0
  outer loop
    vertex 28.000000000000004 3.0 0.0
    vertex 26.500000000000004 0.0 0.0
    vertex 26.500000000000004 3.0 0.0
  endloop
endfacet
facet normal 0.0 0.0 -1.0
  outer loop
    vertex 0.0 20.2 0.0
    vertex -1.5 0.0 0.0
    vertex -1.5 20.2 0.0
  endloop
endfacet
facet normal 0.0 0.0 -1.0
  outer loop
    vertex -1.5 0.0 0.0
    vertex 0.0 20.2 0.0
    vertex -1.5 -1.5 0.0
  endloop
endfacet
facet normal 0.0 0.0 -1.0
  outer loop
    vertex -1.5 -1.5 0.0
    vertex 0.0 20.2 0.0
    vertex 0.0 0.0 0.0
  endloop
endfacet
facet normal 0.0 0.0 -1.0
  outer loop
    vertex -1.5 -1.5 0.0
    vertex 0.0 0.0 0.0
    vertex 28.000000000000004 -1.5 0.0
  endloop
endfacet
facet normal 0.0 0.0 -1.0
  outer loop
    vertex 0.0 0.0 0.0
    vertex 0.0 20.2 0.0
    vertex 0.0 18.7 0.0
  endloop
endfacet
facet normal 0.0 0.0 -1.0
  outer loop
    vertex 0.0 0.0 0.0
    vertex 0.0 18.7 0.0
    vertex 0.0 14.500000000000002 0.0
  endloop
endfacet
facet normal 0.0 0.0 -1.0
  outer loop
    vertex 0.0 0.0 0.0
    vertex 0.0 14.500000000000002 0.0
    vertex 0.0 6.499999999999999 0.0
  endloop
endfacet
facet normal 0.0 0.0 -1.0
  outer loop
    vertex 28.000000000000004 -1.5 0.0
    vertex 0.0 0.0 0.0
    vertex 26.500000000000004 0.0 0.0
  endloop
endfacet
facet normal 0.0 0.0 -1.0
  outer loop
    vertex 28.000000000000004 -1.5 0.0
    vertex 26.500000000000004 0.0 0.0
    vertex 28.000000000000004 3.0 0.0
  endloop
endfacet
facet normal 0.0 0.0 -1.0
  outer loop
    vertex 22.0 18.7 0.0
    vertex 0.0 14.500000000000002 0.0
    vertex 0.0 18.7 0.0
  endloop
endfacet
facet normal 0.0 0.0 -1.0
  outer loop
    vertex 0.0 14.500000000000002 0.0
    vertex 22.0 18.7 0.0
    vertex 4.2 14.499999999999998 0.0
  endloop
endfacet
facet normal 0.0 0.0 -1.0
  outer loop
    vertex 4.2 14.499999999999998 0.0
    vertex 22.0 18.7 0.0
    vertex 4.2 6.499999999999999 0.0
  endloop
endfacet
facet normal 0.0 0.0 -1.0
  outer loop
    vertex 4.2 6.499999999999999 0.0
    vertex 22.0 18.7 0.0
    vertex 15.999999999999998 14.499999999999998 -7.049916206369744e-16
  endloop
endfacet
facet normal 0.0 0.0 -1.0
  outer loop
    vertex 15.999999999999998 14.499999999999998 -7.049916206369744e-16
    vertex 22.0 18.7 0.0
    vertex 19.999999999999996 14.499999999999998 -7.049916206369744e-16
  endloop
endfacet
facet normal 0.0 0.0 -1.0
  outer loop
    vertex 19.999999999999996 14.499999999999998 -7.049916206369744e-16
    vertex 22.0 18.7 0.0
    vertex 19.999999999999996 6.499999999999999 -7.049916206369744e-16
  endloop
endfacet
facet normal 0.0 0.0 -1.0
  outer loop
    vertex 4.2 6.499999999999999 0.0
    vertex 0.0 0.0 0.0
    vertex 0.0 6.499999999999999 0.0
  endloop
endfacet
facet normal 0.0 0.0 -1.0
  outer loop
    vertex 0.0 0.0 0.0
    vertex 4.2 6.499999999999999 0.0
    vertex 26.500000000000004 0.0 0.0
  endloop
endfacet
facet normal 0.0 0.0 -1.0
  outer loop
    vertex 26.500000000000004 0.0 0.0
    vertex 4.2 6.499999999999999 0.0
    vertex 15.999999999999998 6.499999999999999 -7.049916206369744e-16
  endloop
endfacet
facet normal 0.0 0.0 -1.0
  outer loop
    vertex 15.999999999999998 6.499999999999999 -7.049916206369744e-16
    vertex 4.2 6.499999999999999 0.0
    vertex 15.999999999999998 14.499999999999998 -7.049916206369744e-16
  endloop
endfacet
facet normal 0.0 0.0 -1.0
  outer loop
    vertex 26.500000000000004 0.0 0.0
    vertex 15.999999999999998 6.499999999999999 -7.049916206369744e-16
    vertex 22.000000000000004 3.0 0.0
  endloop
endfacet
facet normal 0.0 0.0 -1.0
  outer loop
    vertex 22.000000000000004 3.0 0.0
    vertex 15.999999999999998 6.499999999999999 -7.049916206369744e-16
    vertex 19.999999999999996 6.499999999999999 -7.049916206369744e-16
  endloop
endfacet
facet normal 0.0 0.0 -1.0
  outer loop
    vertex 22.000000000000004 3.0 0.0
    vertex 19.999999999999996 6.499999999999999 -7.049916206369744e-16
    vertex 22.0 18.7 0.0
  endloop
endfacet
facet normal 0.0 0.0 -1.0
  outer loop
    vertex 26.500000000000004 0.0 0.0
    vertex 22.000000000000004 3.0 0.0
    vertex 26.500000000000004 3.0 0.0
  endloop
endfacet
facet normal 7.049916206369745e-17 1.0 -0.0
  outer loop
    vertex 22.000000000000004 3.0 1.9999999999999998
    vertex 26.500000000000004 3.0 0.0
    vertex 22.000000000000004 3.0 0.0
  endloop
endfacet
facet normal 7.049916206369745e-17 1.0 -0.0
  outer loop
    vertex 26.500000000000004 3.0 0.0
    vertex 22.000000000000004 3.0 1.9999999999999998
    vertex 26.500000000000004 3.0 1.9999999999999998
  endloop
endfacet
facet normal -0.0 1.0 0.0
  outer loop
    vertex 0.0 20.2 3.9999999999999996
    vertex 22.0 20.2 0.0
    vertex 0.0 20.2 0.0
  endloop
endfacet
facet normal -0.0 1.0 0.0
  outer loop
    vertex 22.0 20.2 0.0
    vertex 0.0 20.2 3.9999999999999996
    vertex 22.0 20.2 3.9999999999999996
  endloop
endfacet
facet normal 1.0 -0.0 -0.0
  outer loop
    vertex 22.0 20.2 0.0
    vertex 22.0 18.7 1.9999999999999998
    vertex 22.0 18.7 0.0
  endloop
endfacet
facet normal 1.0 -0.0 -0.0
  outer loop
    vertex 22.0 18.7 1.9999999999999998
    vertex 22.0 20.2 0.0
    vertex 22.0 18.7 3.9999999999999996
  endloop
endfacet
facet normal 1.0 -0.0 -0.0
  outer loop
    vertex 22.0 18.7 3.9999999999999996
    vertex 22.0 20.2 0.0
    vertex 22.0 20.2 3.9999999999999996
  endloop
endfacet
facet normal -1.0 0.0 0.0
  outer loop
    vertex 26.500000000000004 3.0 1.9999999999999998
    vertex 26.500000000000004 0.0 0.0
    vertex 26.500000000000004 0.0 1.9999999999999998
  endloop
endfacet
facet normal -1.0 0.0 0.0
  outer loop
    vertex 26.500000000000004 0.0 0.0
    vertex 26.500000000000004 3.0 1.9999999999999998
    vertex 26.500000000000004 3.0 0.0
  endloop
endfacet
facet normal -2.3499720687899103e-16 1.0 -0.0
  outer loop
    vertex 26.500000000000004 3.0 1.9999999999999998
    vertex 28.000000000000004 3.0 0.0
    vertex 26.500000000000004 3.0 0.0
  endloop
endfacet
facet normal -2.3499720687899103e-16 1.0 -0.0
  outer loop
    vertex 28.000000000000004 3.0 0.0
    vertex 26.500000000000004 3.0 1.9999999999999998
    vertex 28.000000000000004 3.0 3.9999999999999996
  endloop
endfacet
facet normal -2.3499720687899103e-16 1.0 -0.0
  outer loop
    vertex 28.000000000000004 3.0 3.9999999999999996
    vertex 26.500000000000004 3.0 1.9999999999999998
    vertex 26.500000000000004 3.0 3.9999999999999996
  endloop
endfacet
facet normal 1.0 0.0 0.0
  outer loop
    vertex 28.000000000000004 3.0 0.0
    vertex 28.000000000000004 -1.5 3.9999999999999996
    vertex 28.000000000000004 -1.5 0.0
  endloop
endfacet
facet normal 1.0 0.0 0.0
  outer loop
    vertex 28.000000000000004 -1.5 3.9999999999999996
    vertex 28.000000000000004 3.0 0.0
    vertex 28.000000000000004 3.0 3.9999999999999996
  endloop
endfacet
facet normal -1.0 0.0 0.0
  outer loop
    vertex -1.5 0.0 3.9999999999999996
    vertex -1.5 -1.5 0.0
    vertex -1.5 -1.5 3.9999999999999996
  endloop
endfacet
facet normal -1.0 0.0 0.0
  outer loop
    vertex -1.5 -1.5 0.0
    vertex -1.5 0.0 3.9999999999999996
    vertex -1.5 0.0 0.0
  endloop
endfacet
facet normal -1.0 0.0 0.0
  outer loop
    vertex -1.5 14.500000000000002 4.899999999999998
    vertex -1.5 6.499999999999999 3.9999999999999996
    vertex -1.5 6.499999999999999 4.899999999999998
  endloop
endfacet
facet normal -1.0 0.0 0.0
  outer loop
    vertex -1.5 6.499999999999999 3.9999999999999996
    vertex -1.5 0.0 0.0
    vertex -1.5 0.0 3.9999999999999996
  endloop
endfacet
facet normal -1.0 0.0 0.0
  outer loop
    vertex -1.5 0.0 0.0
    vertex -1.5 6.499999999999999 3.9999999999999996
    vertex -1.5 20.2 0.0
  endloop
endfacet
facet normal -1.0 0.0 0.0
  outer loop
    vertex -1.5 20.2 0.0
    vertex -1.5 6.499999999999999 3.9999999999999996
    vertex -1.5 14.500000000000002 3.9999999999999996
  endloop
endfacet
facet normal -1.0 0.0 0.0
  outer loop
    vertex -1.5 14.500000000000002 3.9999999999999996
    vertex -1.5 6.499999999999999 3.9999999999999996
    vertex -1.5 14.500000000000002 4.899999999999998
  endloop
endfacet
facet normal -1.0 0.0 0.0
  outer loop
    vertex -1.5 20.2 0.0
    vertex -1.5 14.500000000000002 3.9999999999999996
    vertex -1.5 20.2 3.9999999999999996
  endloop
endfacet
facet normal -0.0 1.0 0.0
  outer loop
    vertex -1.5 20.2 3.9999999999999996
    vertex 0.0 20.2 0.0
    vertex -1.5 20.2 0.0
  endloop
endfacet
facet normal -0.0 1.0 0.0
  outer loop
    vertex 0.0 20.2 0.0
    vertex -1.5 20.2 3.9999999999999996
    vertex 0.0 20.2 3.9999999999999996
  endloop
endfacet
facet normal -0.0 -0.0 1.0
  outer loop
    vertex 26.500000000000004 0.0 1.9999999999999998
    vertex 0.0 6.499999999999999 1.9999999999999998
    vertex 0.0 0.0 1.9999999999999998
  endloop
endfacet
facet normal -0.0 -0.0 1.0
  outer loop
    vertex 0.0 6.499999999999999 1.9999999999999998
    vertex 26.500000000000004 0.0 1.9999999999999998
    vertex 4.2 6.499999999999999 1.9999999999999998
  endloop
endfacet
facet normal -0.0 -0.0 1.0
  outer loop
    vertex 4.2 6.499999999999999 1.9999999999999998
    vertex 26.500000000000004 0.0 1.9999999999999998
    vertex 15.999999999999998 6.499999999999999 1.9999999999999998
  endloop
endfacet
facet normal -0.0 -0.0 1.0
  outer loop
    vertex 15.999999999999998 6.499999999999999 1.9999999999999998
    vertex 26.500000000000004 0.0 1.9999999999999998
    vertex 22.000000000000004 3.0 1.9999999999999998
  endloop
endfacet
facet normal -0.0 -0.0 1.0
  outer loop
    vertex 15.999999999999998 6.499999999999999 1.9999999999999998
    vertex 22.000000000000004 3.0 1.9999999999999998
    vertex 19.999999999999996 6.499999999999999 1.9999999999999998
  endloop
endfacet
facet normal -0.0 -0.0 1.0
  outer loop
    vertex 19.999999999999996 6.499999999999999 1.9999999999999998
    vertex 22.000000000000004 3.0 1.9999999999999998
    vertex 19.999999999999996 14.499999999999998 1.9999999999999998
  endloop
endfacet
facet normal -0.0 -0.0 1.0
  outer loop
    vertex 19.999999999999996 14.499999999999998 1.9999999999999998
    vertex 22.000000000000004 3.0 1.9999999999999998
    vertex 22.0 18.7 1.9999999999999998
  endloop
endfacet
facet normal -0.0 -0.0 1.0
  outer loop
    vertex 22.000000000000004 3.0 1.9999999999999998
    vertex 26.500000000000004 0.0 1.9999999999999998
    vertex 26.500000000000004 3.0 1.9999999999999998
  endloop
endfacet
facet normal -0.0 -0.0 1.0
  outer loop
    vertex 4.2 14.499999999999998 1.9999999999999998
    vertex 0.0 18.7 1.9999999999999998
    vertex 0.0 14.500000000000002 1.9999999999999998
  endloop
endfacet
facet normal -0.0 -0.0 1.0
  outer loop
    vertex 0.0 18.7 1.9999999999999998
    vertex 4.2 14.499999999999998 1.9999999999999998
    vertex 22.0 18.7 1.9999999999999998
  endloop
endfacet
facet normal -0.0 -0.0 1.0
  outer loop
    vertex 22.0 18.7 1.9999999999999998
    vertex 4.2 14.499999999999998 1.9999999999999998
    vertex 15.999999999999998 14.499999999999998 1.9999999999999998
  endloop
endfacet
facet normal -0.0 -0.0 1.0
  outer loop
    vertex 22.0 18.7 1.9999999999999998
    vertex 15.999999999999998 14.499999999999998 1.9999999999999998
    vertex 19.999999999999996 14.499999999999998 1.9999999999999998
  endloop
endfacet
facet normal -0.0 1.0 -0.0
  outer loop
    vertex 0.0 6.499999999999999 1.9999999999999998
    vertex 4.2 6.499999999999999 0.0
    vertex 0.0 6.499999999999999 0.0
  endloop
endfacet
facet normal -0.0 1.0 -0.0
  outer loop
    vertex 4.2 6.499999999999999 0.0
    vertex 0.0 6.499999999999999 1.9999999999999998
    vertex 4.2 6.499999999999999 0.9999999999999999
  endloop
endfacet
facet normal -0.0 1.0 -0.0
  outer loop
    vertex 4.2 6.499999999999999 0.9999999999999999
    vertex 0.0 6.499999999999999 1.9999999999999998
    vertex 4.2 6.499999999999999 1.9999999999999998
  endloop
endfacet
facet normal -1.0 0.0 0.0
  outer loop
    vertex 4.2 14.499999999999998 0.9999999999999999
    vertex 4.2 6.499999999999999 0.0
    vertex 4.2 6.499999999999999 0.9999999999999999
  endloop
endfacet
facet normal -1.0 0.0 0.0
  outer loop
    vertex 4.2 6.499999999999999 0.0
    vertex 4.2 14.499999999999998 0.9999999999999999
    vertex 4.2 14.499999999999998 0.0
  endloop
endfacet
facet normal -6.714205910828328e-16 -1.0 0.0
  outer loop
    vertex 4.2 14.499999999999998 0.9999999999999999
    vertex 0.0 14.500000000000002 0.0
    vertex 4.2 14.499999999999998 0.0
  endloop
endfacet
facet normal -6.714205910828328e-16 -1.0 0.0
  outer loop
    vertex 0.0 14.500000000000002 0.0
    vertex 4.2 14.499999999999998 0.9999999999999999
    vertex 0.0 14.500000000000002 1.9999999999999998
  endloop
endfacet
facet normal -6.714205910828328e-16 -1.0 0.0
  outer loop
    vertex 0.0 14.500000000000002 1.9999999999999998
    vertex 4.2 14.499999999999998 0.9999999999999999
    vertex 4.2 14.499999999999998 1.9999999999999998
  endloop
endfacet
facet normal 1.0 0.0 0.0
  outer loop
    vertex 15.999999999999998 14.499999999999998 -7.049916206369744e-16
    vertex 15.999999999999998 6.499999999999999 0.9999999999999999
    vertex 15.999999999999998 6.499999999999999 -7.049916206369744e-16
  endloop
endfacet
facet normal 1.0 0.0 0.0
  outer loop
    vertex 15.999999999999998 6.499999999999999 0.9999999999999999
    vertex 15.999999999999998 14.499999999999998 -7.049916206369744e-16
    vertex 15.999999999999998 14.499999999999998 0.9999999999999999
  endloop
endfacet
facet normal -0.0 1.0 -0.0
  outer loop
    vertex 15.999999999999998 6.499999999999999 0.9999999999999999
    vertex 19.999999999999996 6.499999999999999 -7.049916206369744e-16
    vertex 15.999999999999998 6.499999999999999 -7.049916206369744e-16
  endloop
endfacet
facet normal -0.0 1.0 -0.0
  outer loop
    vertex 19.999999999999996 6.499999999999999 -7.049916206369744e-16
    vertex 15.999999999999998 6.499999999999999 0.9999999999999999
    vertex 19.999999999999996 6.499999999999999 1.9999999999999998
  endloop
endfacet
facet normal -0.0 1.0 -0.0
  outer loop
    vertex 19.999999999999996 6.499999999999999 1.9999999999999998
    vertex 15.999999999999998 6.499999999999999 0.9999999999999999
    vertex 15.999999999999998 6.499999999999999 1.9999999999999998
  endloop
endfacet
facet normal -1.0 0.0 -0.0
  outer loop
    vertex 19.999999999999996 14.499999999999998 1.9999999999999998
    vertex 19.999999999999996 6.499999999999999 -7.049916206369744e-16
    vertex 19.999999999999996 6.499999999999999 1.9999999999999998
  endloop
endfacet
facet normal -1.0 0.0 -0.0
  outer loop
    vertex 19.999999999999996 6.499999999999999 -7.049916206369744e-16
    vertex 19.999999999999996 14.499999999999998 1.9999999999999998
    vertex 19.999999999999996 14.499999999999998 -7.049916206369744e-16
  endloop
endfacet
facet normal -0.0 -1.0 -0.0
  outer loop
    vertex 19.999999999999996 14.499999999999998 1.9999999999999998
    vertex 15.999999999999998 14.499999999999998 -7.049916206369744e-16
    vertex 19.999999999999996 14.499999999999998 -7.049916206369744e-16
  endloop
endfacet
facet normal -0.0 -1.0 -0.0
  outer loop
    vertex 15.999999999999998 14.499999999999998 -7.049916206369744e-16
    vertex 19.999999999999996 14.499999999999998 1.9999999999999998
    vertex 15.999999999999998 14.499999999999998 0.9999999999999999
  endloop
endfacet
facet normal -0.0 -1.0 -0.0
  outer loop
    vertex 15.999999999999998 14.499999999999998 0.9999999999999999
    vertex 19.999999999999996 14.499999999999998 1.9999999999999998
    vertex 15.999999999999998 14.499999999999998 1.9999999999999998
  endloop
endfacet
facet normal 1.0 1.796156995253438e-16 -0.0
  outer loop
    vertex 22.0 18.7 0.0
    vertex 22.000000000000004 3.0 1.9999999999999998
    vertex 22.000000000000004 3.0 0.0
  endloop
endfacet
facet normal 1.0 1.796156995253438e-16 -0.0
  outer loop
    vertex 22.000000000000004 3.0 1.9999999999999998
    vertex 22.0 18.7 0.0
    vertex 22.0 18.7 1.9999999999999998
  endloop
endfacet
facet normal -0.0 -0.0 1.0
  outer loop
    vertex 0.0 6.499999999999999 3.9999999999999996
    vertex -1.5 6.499999999999999 3.9999999999999996
    vertex 0.0 0.0 3.9999999999999996
  endloop
endfacet
facet normal -0.0 -0.0 1.0
  outer loop
    vertex 28.000000000000004 -1.5 3.9999999999999996
    vertex -1.5 0.0 3.9999999999999996
    vertex -1.5 -1.5 3.9999999999999996
  endloop
endfacet
facet normal -0.0 -0.0 1.0
  outer loop
    vertex -1.5 0.0 3.9999999999999996
    vertex 28.000000000000004 -1.5 3.9999999999999996
    vertex 0.0 0.0 3.9999999999999996
  endloop
endfacet
facet normal -0.0 -0.0 1.0
  outer loop
    vertex -1.5 0.0 3.9999999999999996
    vertex 0.0 0.0 3.9999999999999996
    vertex -1.5 6.499999999999999 3.9999999999999996
  endloop
endfacet
facet normal -0.0 -0.0 1.0
  outer loop
    vertex 0.0 0.0 3.9999999999999996
    vertex 28.000000000000004 -1.5 3.9999999999999996
    vertex 26.500000000000004 0.0 3.9999999999999996
  endloop
endfacet
facet normal -0.0 -0.0 1.0
  outer loop
    vertex 26.500000000000004 0.0 3.9999999999999996
    vertex 28.000000000000004 -1.5 3.9999999999999996
    vertex 26.500000000000004 3.0 3.9999999999999996
  endloop
endfacet
facet normal -0.0 -0.0 1.0
  outer loop
    vertex 26.500000000000004 3.0 3.9999999999999996
    vertex 28.000000000000004 -1.5 3.9999999999999996
    vertex 28.000000000000004 3.0 3.9999999999999996
  endloop
endfacet
facet normal -1.0 -0.0 -0.0
  outer loop
    vertex 26.500000000000004 3.0 3.9999999999999996
    vertex 26.500000000000004 0.0 1.9999999999999998
    vertex 26.500000000000004 0.0 3.9999999999999996
  endloop
endfacet
facet normal -1.0 -0.0 -0.0
  outer loop
    vertex 26.500000000000004 0.0 1.9999999999999998
    vertex 26.500000000000004 3.0 3.9999999999999996
    vertex 26.500000000000004 3.0 1.9999999999999998
  endloop
endfacet
facet normal 0.0 1.0 0.0
  outer loop
    vertex 0.0 0.0 3.9999999999999996
    vertex 26.500000000000004 0.0 1.9999999999999998
    vertex 0.0 0.0 1.9999999999999998
  endloop
endfacet
facet normal 0.0 1.0 0.0
  outer loop
    vertex 26.500000000000004 0.0 1.9999999999999998
    vertex 0.0 0.0 3.9999999999999996
    vertex 26.500000000000004 0.0 3.9999999999999996
  endloop
endfacet
facet normal 1.0 -0.0 -0.0
  outer loop
    vertex 0.0 6.499999999999999 1.9999999999999998
    vertex 0.0 0.0 3.9999999999999996
    vertex 0.0 0.0 1.9999999999999998
  endloop
endfacet
facet normal 1.0 -0.0 -0.0
  outer loop
    vertex 0.0 0.0 3.9999999999999996
    vertex 0.0 6.499999999999999 1.9999999999999998
    vertex 0.0 6.499999999999999 3.9999999999999996
  endloop
endfacet
facet normal 1.0 -0.0 -0.0
  outer loop
    vertex 0.0 6.499999999999999 3.9999999999999996
    vertex 0.0 6.499999999999999 1.9999999999999998
    vertex 0.0 6.499999999999999 3.3999999999999995
  endloop
endfacet
facet normal 1.0 -0.0 0.0
  outer loop
    vertex 0.0 18.7 1.9999999999999998
    vertex 0.0 14.500000000000002 3.3999999999999995
    vertex 0.0 14.500000000000002 1.9999999999999998
  endloop
endfacet
facet normal 1.0 -0.0 0.0
  outer loop
    vertex 0.0 14.500000000000002 3.3999999999999995
    vertex 0.0 18.7 1.9999999999999998
    vertex 0.0 14.500000000000002 3.9999999999999996
  endloop
endfacet
facet normal 1.0 -0.0 0.0
  outer loop
    vertex 0.0 14.500000000000002 3.9999999999999996
    vertex 0.0 18.7 1.9999999999999998
    vertex 0.0 18.7 3.9999999999999996
  endloop
endfacet
facet normal 0.0 -1.0 0.0
  outer loop
    vertex 22.0 18.7 3.9999999999999996
    vertex 0.0 18.7 1.9999999999999998
    vertex 22.0 18.7 1.9999999999999998
  endloop
endfacet
facet normal 0.0 -1.0 0.0
  outer loop
    vertex 0.0 18.7 1.9999999999999998
    vertex 22.0 18.7 3.9999999999999996
    vertex 0.0 18.7 3.9999999999999996
  endloop
endfacet
facet normal 0.0 0.0 1.0
  outer loop
    vertex 15.999999999999998 6.499999999999999 0.9999999999999999
    vertex 4.2 14.499999999999998 0.9999999999999999
    vertex 4.2 6.499999999999999 0.9999999999999999
  endloop
endfacet
facet normal 0.0 0.0 1.0
  outer loop
    vertex 4.2 14.499999999999998 0.9999999999999999
    vertex 15.999999999999998 6.499999999999999 0.9999999999999999
    vertex 15.999999999999998 14.499999999999998 0.9999999999999999
  endloop
endfacet
facet normal -0.0 1.0 -0.0
  outer loop
    vertex 4.2 6.499999999999999 1.9999999999999998
    vertex 15.999999999999998 6.499999999999999 0.9999999999999999
    vertex 4.2 6.499999999999999 0.9999999999999999
  endloop
endfacet
facet normal -0.0 1.0 -0.0
  outer loop
    vertex 15.999999999999998 6.499999999999999 0.9999999999999999
    vertex 4.2 6.499999999999999 1.9999999999999998
    vertex 15.999999999999998 6.499999999999999 1.9999999999999998
  endloop
endfacet
facet normal -0.0 -1.0 -0.0
  outer loop
    vertex 15.999999999999998 14.499999999999998 1.9999999999999998
    vertex 4.2 14.499999999999998 0.9999999999999999
    vertex 15.999999999999998 14.499999999999998 0.9999999999999999
  endloop
endfacet
facet normal -0.0 -1.0 -0.0
  outer loop
    vertex 4.2 14.499999999999998 0.9999999999999999
    vertex 15.999999999999998 14.499999999999998 1.9999999999999998
    vertex 4.2 14.499999999999998 1.9999999999999998
  endloop
endfacet
facet normal -0.0 -0.0 1.0
  outer loop
    vertex 0.0 14.500000000000002 3.9999999999999996
    vertex -1.5 20.2 3.9999999999999996
    vertex -1.5 14.500000000000002 3.9999999999999996
  endloop
endfacet
facet normal -0.0 -0.0 1.0
  outer loop
    vertex -1.5 20.2 3.9999999999999996
    vertex 0.0 14.500000000000002 3.9999999999999996
    vertex 0.0 20.2 3.9999999999999996
  endloop
endfacet
facet normal -0.0 -0.0 1.0
  outer loop
    vertex 0.0 20.2 3.9999999999999996
    vertex 0.0 14.500000000000002 3.9999999999999996
    vertex 0.0 18.7 3.9999999999999996
  endloop
endfacet
facet normal -0.0 -0.0 1.0
  outer loop
    vertex 0.0 20.2 3.9999999999999996
    vertex 0.0 18.7 3.9999999999999996
    vertex 22.0 18.7 3.9999999999999996
  endloop
endfacet
facet normal -0.0 -0.0 1.0
  outer loop
    vertex 0.0 20.2 3.9999999999999996
    vertex 22.0 18.7 3.9999999999999996
    vertex 22.0 20.2 3.9999999999999996
  endloop
endfacet
facet normal -4.699944137579828e-16 -2.054709456913415e-33 1.0
  outer loop
    vertex 1.7 6.499999999999999 4.899999999999998
    vertex -1.5 14.500000000000002 4.899999999999998
    vertex -1.5 6.499999999999999 4.899999999999998
  endloop
endfacet
facet normal -4.699944137579828e-16 -2.054709456913415e-33 1.0
  outer loop
    vertex -1.5 14.500000000000002 4.899999999999998
    vertex 1.7 6.499999999999999 4.899999999999998
    vertex 1.7 14.500000000000002 4.899999999999998
  endloop
endfacet
facet normal 0.0 1.0 0.0
  outer loop
    vertex -1.5 14.500000000000002 4.899999999999998
    vertex 0.0 14.500000000000002 3.9999999999999996
    vertex -1.5 14.500000000000002 3.9999999999999996
  endloop
endfacet
facet normal 0.0 1.0 0.0
  outer loop
    vertex 0.0 14.500000000000002 3.9999999999999996
    vertex -1.5 14.500000000000002 4.899999999999998
    vertex 1.7 14.500000000000002 3.9999999999999996
  endloop
endfacet
facet normal 0.0 1.0 0.0
  outer loop
    vertex 1.7 14.500000000000002 3.9999999999999996
    vertex -1.5 14.500000000000002 4.899999999999998
    vertex 1.7 14.500000000000002 4.899999999999998
  endloop
endfacet
facet normal 0.0 -1.0 0.0
  outer loop
    vertex 1.7 6.499999999999999 4.899999999999998
    vertex 0.0 6.499999999999999 3.9999999999999996
    vertex 1.7 6.499999999999999 3.9999999999999996
  endloop
endfacet
facet normal 0.0 -1.0 0.0
  outer loop
    vertex 0.0 6.499999999999999 3.9999999999999996
    vertex 1.7 6.499999999999999 4.899999999999998
    vertex -1.5 6.499999999999999 3.9999999999999996
  endloop
endfacet
facet normal 0.0 -1.0 0.0
  outer loop
    vertex -1.5 6.499999999999999 3.9999999999999996
    vertex 1.7 6.499999999999999 4.899999999999998
    vertex -1.5 6.499999999999999 4.899999999999998
  endloop
endfacet
facet normal 1.0 -0.0 -0.0
  outer loop
    vertex 0.0 14.500000000000002 0.0
    vertex 0.0 6.499999999999999 1.9999999999999998
    vertex 0.0 6.499999999999999 0.0
  endloop
endfacet
facet normal 1.0 -0.0 -0.0
  outer loop
    vertex 0.0 6.499999999999999 1.9999999999999998
    vertex 0.0 14.500000000000002 0.0
    vertex 0.0 6.499999999999999 3.3999999999999995
  endloop
endfacet
facet normal 1.0 -0.0 -0.0
  outer loop
    vertex 0.0 6.499999999999999 3.3999999999999995
    vertex 0.0 14.500000000000002 0.0
    vertex 0.0 14.500000000000002 3.3999999999999995
  endloop
endfacet
facet normal 1.0 -0.0 -0.0
  outer loop
    vertex 0.0 14.500000000000002 3.3999999999999995
    vertex 0.0 14.500000000000002 0.0
    vertex 0.0 14.500000000000002 1.9999999999999998
  endloop
endfacet
facet normal 1.0 0.0 0.0
  outer loop
    vertex 1.7 14.500000000000002 3.3999999999999995
    vertex 1.7 6.499999999999999 3.9999999999999996
    vertex 1.7 6.499999999999999 3.3999999999999995
  endloop
endfacet
facet normal 1.0 0.0 0.0
  outer loop
    vertex 1.7 6.499999999999999 3.9999999999999996
    vertex 1.7 14.500000000000002 3.3999999999999995
    vertex 1.7 6.499999999999999 4.899999999999998
  endloop
endfacet
facet normal 1.0 0.0 0.0
  outer loop
    vertex 1.7 6.499999999999999 4.899999999999998
    vertex 1.7 14.500000000000002 3.3999999999999995
    vertex 1.7 14.500000000000002 4.899999999999998
  endloop
endfacet
facet normal 1.0 0.0 0.0
  outer loop
    vertex 1.7 14.500000000000002 4.899999999999998
    vertex 1.7 14.500000000000002 3.3999999999999995
    vertex 1.7 14.500000000000002 3.9999999999999996
  endloop
endfacet
facet normal 0.0 0.0 -1.0
  outer loop
    vertex 1.7 14.500000000000002 3.3999999999999995
    vertex 0.0 6.499999999999999 3.3999999999999995
    vertex 0.0 14.500000000000002 3.3999999999999995
  endloop
endfacet
facet normal 0.0 0.0 -1.0
  outer loop
    vertex 0.0 6.499999999999999 3.3999999999999995
    vertex 1.7 14.500000000000002 3.3999999999999995
    vertex 1.7 6.499999999999999 3.3999999999999995
  endloop
endfacet
facet normal 0.0 1.0 -0.0
  outer loop
    vertex 0.0 14.500000000000002 3.9999999999999996
    vertex 1.7 14.500000000000002 3.3999999999999995
    vertex 0.0 14.500000000000002 3.3999999999999995
  endloop
endfacet
facet normal 0.0 1.0 -0.0
  outer loop
    vertex 1.7 14.500000000000002 3.3999999999999995
    vertex 0.0 14.500000000000002 3.9999999999999996
    vertex 1.7 14.500000000000002 3.9999999999999996
  endloop
endfacet
facet normal -0.0 -1.0 -0.0
  outer loop
    vertex 1.7 6.499999999999999 3.9999999999999996
    vertex 0.0 6.499999999999999 3.3999999999999995
    vertex 1.7 6.499999999999999 3.3999999999999995
  endloop
endfacet
facet normal -0.0 -1.0 -0.0
  outer loop
    vertex 0.0 6.499999999999999 3.3999999999999995
    vertex 1.7 6.499999999999999 3.9999999999999996
    vertex 0.0 6.499999999999999 3.9999999999999996
  endloop
endfacet
facet normal 0.0 -1.0 0.0
  outer loop
    vertex 28.000000000000004 -1.5 3.9999999999999996
    vertex -1.5 -1.5 0.0
    vertex 28.000000000000004 -1.5 0.0
  endloop
endfacet
facet normal 0.0 -1.0 0.0
  outer loop
    vertex -1.5 -1.5 0.0
    vertex 28.000000000000004 -1.5 3.9999999999999996
    vertex -1.5 -1.5 3.9999999999999996
  endloop
endfacet
endsolid rotary
